<mxfile host="app.diagrams.net" agent="Mozilla/5.0 (Macintosh; Intel Mac OS X 10_15_7) AppleWebKit/537.36 (KHTML, like Gecko) Chrome/128.0.0.0 Safari/537.36" version="24.7.14">
  <diagram name="Page-1" id="93h7-Tf8R6CLvSdkcBtr">
    <mxGraphModel dx="1687" dy="935" grid="1" gridSize="10" guides="1" tooltips="1" connect="1" arrows="1" fold="1" page="1" pageScale="1" pageWidth="827" pageHeight="1169" math="0" shadow="0">
      <root>
        <mxCell id="0" />
        <mxCell id="1" parent="0" />
        <mxCell id="kG0iY3HcZwcLajI_eg3o-1" value="Google云" style="whiteSpace=wrap;html=1;fillColor=#FFD470;gradientColor=none;fontSize=14;strokeColor=none;verticalAlign=top;" parent="1" vertex="1">
          <mxGeometry x="1032" y="128" width="471" height="362" as="geometry" />
        </mxCell>
        <mxCell id="kG0iY3HcZwcLajI_eg3o-2" value="新加坡节点" style="rounded=1;whiteSpace=wrap;html=1;verticalAlign=top;" parent="1" vertex="1">
          <mxGeometry x="1048.9" y="320" width="444.1" height="137.5" as="geometry" />
        </mxCell>
        <mxCell id="kG0iY3HcZwcLajI_eg3o-3" value="沙特节点" style="rounded=1;whiteSpace=wrap;html=1;verticalAlign=top;" parent="1" vertex="1">
          <mxGeometry x="1045.45" y="171.85" width="444.1" height="137.5" as="geometry" />
        </mxCell>
        <mxCell id="kG0iY3HcZwcLajI_eg3o-4" value="厦门公司" style="whiteSpace=wrap;html=1;fillColor=#f8cecc;fontSize=14;strokeColor=none;verticalAlign=top;" parent="1" vertex="1">
          <mxGeometry x="1753" y="90" width="1297" height="580" as="geometry" />
        </mxCell>
        <mxCell id="kG0iY3HcZwcLajI_eg3o-5" value="" style="whiteSpace=wrap;html=1;fillColor=#d5e8d4;fontSize=14;strokeColor=none;verticalAlign=top;" parent="1" vertex="1">
          <mxGeometry x="1753" y="710" width="1570" height="970" as="geometry" />
        </mxCell>
        <mxCell id="kG0iY3HcZwcLajI_eg3o-6" value="" style="rounded=1;whiteSpace=wrap;html=1;fillColor=#f5f5f5;gradientColor=#b3b3b3;strokeColor=#666666;" parent="1" vertex="1">
          <mxGeometry x="2773" y="1270" width="470" height="360" as="geometry" />
        </mxCell>
        <mxCell id="kG0iY3HcZwcLajI_eg3o-7" value="" style="rounded=1;whiteSpace=wrap;html=1;fillColor=#dae8fc;gradientColor=#7ea6e0;strokeColor=#6c8ebf;" parent="1" vertex="1">
          <mxGeometry x="1783" y="904.4" width="270" height="320" as="geometry" />
        </mxCell>
        <mxCell id="kG0iY3HcZwcLajI_eg3o-8" value="&lt;font style=&quot;font-size: 18px;&quot;&gt;武汉公司&lt;/font&gt;" style="whiteSpace=wrap;html=1;fillColor=#dae8fc;fontSize=14;strokeColor=none;verticalAlign=top;" parent="1" vertex="1">
          <mxGeometry x="190" y="710" width="1490" height="970" as="geometry" />
        </mxCell>
        <mxCell id="kG0iY3HcZwcLajI_eg3o-10" style="edgeStyle=none;rounded=0;html=1;startSize=10;endSize=10;jettySize=auto;orthogonalLoop=1;fontSize=14;endArrow=none;endFill=0;strokeWidth=2;" parent="1" source="kG0iY3HcZwcLajI_eg3o-14" target="kG0iY3HcZwcLajI_eg3o-35" edge="1">
          <mxGeometry relative="1" as="geometry">
            <mxPoint x="1913.9999999999995" y="247.95943894389438" as="targetPoint" />
          </mxGeometry>
        </mxCell>
        <mxCell id="kG0iY3HcZwcLajI_eg3o-11" value="" style="rounded=1;whiteSpace=wrap;html=1;fillColor=#ffe6cc;strokeColor=#d79b00;" parent="1" vertex="1">
          <mxGeometry x="1773" y="1270" width="470" height="360" as="geometry" />
        </mxCell>
        <mxCell id="kG0iY3HcZwcLajI_eg3o-12" style="edgeStyle=none;rounded=0;html=1;startSize=10;endSize=10;jettySize=auto;orthogonalLoop=1;fontSize=14;endArrow=none;endFill=0;strokeWidth=2;" parent="1" source="kG0iY3HcZwcLajI_eg3o-14" target="kG0iY3HcZwcLajI_eg3o-30" edge="1">
          <mxGeometry relative="1" as="geometry">
            <mxPoint x="2137" y="251" as="targetPoint" />
          </mxGeometry>
        </mxCell>
        <mxCell id="kG0iY3HcZwcLajI_eg3o-13" style="edgeStyle=none;rounded=0;html=1;startSize=10;endSize=10;jettySize=auto;orthogonalLoop=1;fontSize=14;endArrow=none;endFill=0;strokeWidth=2;exitX=0;exitY=0.75;exitDx=0;exitDy=0;entryX=0.045;entryY=0.768;entryDx=0;entryDy=0;entryPerimeter=0;" parent="1" source="kG0iY3HcZwcLajI_eg3o-30" target="kG0iY3HcZwcLajI_eg3o-31" edge="1">
          <mxGeometry relative="1" as="geometry">
            <mxPoint x="2323" y="222.0134954058194" as="targetPoint" />
          </mxGeometry>
        </mxCell>
        <mxCell id="kG0iY3HcZwcLajI_eg3o-14" value="" style="verticalLabelPosition=bottom;aspect=fixed;html=1;verticalAlign=top;strokeColor=none;shape=mxgraph.citrix.switch;fillColor=#66B2FF;gradientColor=#0066CC;fontSize=14;" parent="1" vertex="1">
          <mxGeometry x="2053" y="260" width="92" height="41.5" as="geometry" />
        </mxCell>
        <mxCell id="kG0iY3HcZwcLajI_eg3o-15" value="三顾基础架构拓扑图" style="text;strokeColor=none;fillColor=none;html=1;fontSize=24;fontStyle=1;verticalAlign=middle;align=center;" parent="1" vertex="1">
          <mxGeometry x="1352" y="40" width="861" height="40" as="geometry" />
        </mxCell>
        <mxCell id="kG0iY3HcZwcLajI_eg3o-16" value="freeipa&lt;div&gt;192.168.110.230&lt;/div&gt;" style="image;points=[];aspect=fixed;html=1;align=center;shadow=0;dashed=0;image=img/lib/allied_telesis/computer_and_terminals/Server_Desktop.svg;" parent="1" vertex="1">
          <mxGeometry x="2078" y="490" width="42.599999999999994" height="54" as="geometry" />
        </mxCell>
        <mxCell id="kG0iY3HcZwcLajI_eg3o-17" value="rocketchat&lt;div&gt;192.168.110.240&lt;/div&gt;" style="image;points=[];aspect=fixed;html=1;align=center;shadow=0;dashed=0;image=img/lib/allied_telesis/computer_and_terminals/Server_Desktop.svg;" parent="1" vertex="1">
          <mxGeometry x="2323" y="490" width="42.599999999999994" height="54" as="geometry" />
        </mxCell>
        <mxCell id="kG0iY3HcZwcLajI_eg3o-18" value="samba&lt;div&gt;192.168.110.234&lt;/div&gt;" style="image;points=[];aspect=fixed;html=1;align=center;shadow=0;dashed=0;image=img/lib/allied_telesis/computer_and_terminals/Server_Desktop.svg;" parent="1" vertex="1">
          <mxGeometry x="2200" y="490" width="42.599999999999994" height="54" as="geometry" />
        </mxCell>
        <mxCell id="kG0iY3HcZwcLajI_eg3o-19" value="mail.sangoai.cn&lt;div&gt;192.168.110.247&lt;/div&gt;" style="image;points=[];aspect=fixed;html=1;align=center;shadow=0;dashed=0;image=img/lib/allied_telesis/computer_and_terminals/Server_Desktop.svg;" parent="1" vertex="1">
          <mxGeometry x="2690" y="490" width="42.599999999999994" height="54" as="geometry" />
        </mxCell>
        <mxCell id="kG0iY3HcZwcLajI_eg3o-20" value="openvpn&lt;div&gt;192.168.110.248&lt;/div&gt;" style="image;points=[];aspect=fixed;html=1;align=center;shadow=0;dashed=0;image=img/lib/allied_telesis/computer_and_terminals/Server_Desktop.svg;" parent="1" vertex="1">
          <mxGeometry x="2568" y="490" width="42.599999999999994" height="54" as="geometry" />
        </mxCell>
        <mxCell id="kG0iY3HcZwcLajI_eg3o-21" value="gerrit&lt;div&gt;192.168.110.242&lt;/div&gt;" style="image;points=[];aspect=fixed;html=1;align=center;shadow=0;dashed=0;image=img/lib/allied_telesis/computer_and_terminals/Server_Desktop.svg;" parent="1" vertex="1">
          <mxGeometry x="2445" y="490" width="42.599999999999994" height="54" as="geometry" />
        </mxCell>
        <mxCell id="kG0iY3HcZwcLajI_eg3o-22" style="edgeStyle=none;rounded=0;html=1;startSize=10;endSize=10;jettySize=auto;orthogonalLoop=1;fontSize=14;endArrow=none;endFill=0;strokeWidth=2;exitX=0.179;exitY=0.822;exitDx=0;exitDy=0;exitPerimeter=0;" parent="1" source="kG0iY3HcZwcLajI_eg3o-14" target="kG0iY3HcZwcLajI_eg3o-16" edge="1">
          <mxGeometry relative="1" as="geometry">
            <mxPoint x="2060" y="292" as="sourcePoint" />
            <mxPoint x="2038" y="255" as="targetPoint" />
          </mxGeometry>
        </mxCell>
        <mxCell id="kG0iY3HcZwcLajI_eg3o-23" style="edgeStyle=none;rounded=0;html=1;startSize=10;endSize=10;jettySize=auto;orthogonalLoop=1;fontSize=14;endArrow=none;endFill=0;strokeWidth=2;" parent="1" source="kG0iY3HcZwcLajI_eg3o-14" target="kG0iY3HcZwcLajI_eg3o-18" edge="1">
          <mxGeometry relative="1" as="geometry">
            <mxPoint x="2043" y="326" as="sourcePoint" />
            <mxPoint x="1896" y="414" as="targetPoint" />
          </mxGeometry>
        </mxCell>
        <mxCell id="kG0iY3HcZwcLajI_eg3o-24" style="edgeStyle=none;rounded=0;html=1;startSize=10;endSize=10;jettySize=auto;orthogonalLoop=1;fontSize=14;endArrow=none;endFill=0;strokeWidth=2;" parent="1" source="kG0iY3HcZwcLajI_eg3o-14" target="kG0iY3HcZwcLajI_eg3o-17" edge="1">
          <mxGeometry relative="1" as="geometry">
            <mxPoint x="2055" y="323.5" as="sourcePoint" />
            <mxPoint x="1908" y="411.5" as="targetPoint" />
          </mxGeometry>
        </mxCell>
        <mxCell id="kG0iY3HcZwcLajI_eg3o-25" style="edgeStyle=none;rounded=0;html=1;startSize=10;endSize=10;jettySize=auto;orthogonalLoop=1;fontSize=14;endArrow=none;endFill=0;strokeWidth=2;exitX=0.818;exitY=0.936;exitDx=0;exitDy=0;exitPerimeter=0;" parent="1" source="kG0iY3HcZwcLajI_eg3o-14" target="kG0iY3HcZwcLajI_eg3o-21" edge="1">
          <mxGeometry relative="1" as="geometry">
            <mxPoint x="2043" y="334" as="sourcePoint" />
            <mxPoint x="1918" y="421.5" as="targetPoint" />
          </mxGeometry>
        </mxCell>
        <mxCell id="kG0iY3HcZwcLajI_eg3o-26" style="edgeStyle=none;rounded=0;html=1;startSize=10;endSize=10;jettySize=auto;orthogonalLoop=1;fontSize=14;endArrow=none;endFill=0;strokeWidth=2;" parent="1" source="kG0iY3HcZwcLajI_eg3o-14" target="kG0iY3HcZwcLajI_eg3o-20" edge="1">
          <mxGeometry relative="1" as="geometry">
            <mxPoint x="2033" y="324" as="sourcePoint" />
            <mxPoint x="1908" y="411.5" as="targetPoint" />
          </mxGeometry>
        </mxCell>
        <mxCell id="kG0iY3HcZwcLajI_eg3o-27" style="edgeStyle=none;rounded=0;html=1;startSize=10;endSize=10;jettySize=auto;orthogonalLoop=1;fontSize=14;endArrow=none;endFill=0;strokeWidth=2;exitX=0.997;exitY=0.624;exitDx=0;exitDy=0;exitPerimeter=0;" parent="1" source="kG0iY3HcZwcLajI_eg3o-14" target="kG0iY3HcZwcLajI_eg3o-19" edge="1">
          <mxGeometry relative="1" as="geometry">
            <mxPoint x="2102" y="331" as="sourcePoint" />
            <mxPoint x="2220" y="412" as="targetPoint" />
          </mxGeometry>
        </mxCell>
        <mxCell id="kG0iY3HcZwcLajI_eg3o-28" value="jira&lt;div&gt;192.168.110.235&lt;/div&gt;" style="image;points=[];aspect=fixed;html=1;align=center;shadow=0;dashed=0;image=img/lib/allied_telesis/computer_and_terminals/Server_Desktop.svg;" parent="1" vertex="1">
          <mxGeometry x="2641.4" y="370.15" width="42.599999999999994" height="54" as="geometry" />
        </mxCell>
        <mxCell id="kG0iY3HcZwcLajI_eg3o-29" style="edgeStyle=none;rounded=0;html=1;startSize=10;endSize=10;jettySize=auto;orthogonalLoop=1;fontSize=14;endArrow=none;endFill=0;strokeWidth=2;entryX=-0.101;entryY=0.632;entryDx=0;entryDy=0;entryPerimeter=0;exitX=1.01;exitY=0.397;exitDx=0;exitDy=0;exitPerimeter=0;" parent="1" source="kG0iY3HcZwcLajI_eg3o-14" target="kG0iY3HcZwcLajI_eg3o-28" edge="1">
          <mxGeometry relative="1" as="geometry">
            <mxPoint x="2123" y="303" as="sourcePoint" />
            <mxPoint x="2465" y="421" as="targetPoint" />
          </mxGeometry>
        </mxCell>
        <mxCell id="kG0iY3HcZwcLajI_eg3o-30" value="AC&lt;div&gt;192.168.110.1&lt;/div&gt;" style="image;html=1;image=img/lib/clip_art/networking/Wireless_Router_128x128.png" parent="1" vertex="1">
          <mxGeometry x="2050.6" y="118" width="80" height="80" as="geometry" />
        </mxCell>
        <mxCell id="kG0iY3HcZwcLajI_eg3o-31" value="Client" style="verticalLabelPosition=bottom;aspect=fixed;html=1;verticalAlign=top;strokeColor=none;shape=mxgraph.citrix.laptop_2;fillColor=#66B2FF;gradientColor=#0066CC;fontSize=14;" parent="1" vertex="1">
          <mxGeometry x="1813" y="133.39" width="66" height="49.22" as="geometry" />
        </mxCell>
        <mxCell id="kG0iY3HcZwcLajI_eg3o-32" value="Client" style="verticalLabelPosition=bottom;aspect=fixed;html=1;verticalAlign=top;strokeColor=none;shape=mxgraph.citrix.laptop_2;fillColor=#66B2FF;gradientColor=#0066CC;fontSize=14;" parent="1" vertex="1">
          <mxGeometry x="1879" y="98.78" width="66" height="49.22" as="geometry" />
        </mxCell>
        <mxCell id="kG0iY3HcZwcLajI_eg3o-33" style="edgeStyle=none;rounded=0;html=1;startSize=10;endSize=10;jettySize=auto;orthogonalLoop=1;fontSize=14;endArrow=none;endFill=0;strokeWidth=2;entryX=1.051;entryY=0.782;entryDx=0;entryDy=0;entryPerimeter=0;" parent="1" source="kG0iY3HcZwcLajI_eg3o-30" target="kG0iY3HcZwcLajI_eg3o-32" edge="1">
          <mxGeometry relative="1" as="geometry">
            <mxPoint x="2293" y="219" as="sourcePoint" />
            <mxPoint x="2426" y="256" as="targetPoint" />
          </mxGeometry>
        </mxCell>
        <mxCell id="kG0iY3HcZwcLajI_eg3o-34" value="192.168.111.1" style="text;html=1;align=center;verticalAlign=middle;whiteSpace=wrap;rounded=0;" parent="1" vertex="1">
          <mxGeometry x="1984" y="148" width="60" height="30" as="geometry" />
        </mxCell>
        <mxCell id="kG0iY3HcZwcLajI_eg3o-35" value="183.250.156.66" style="image;aspect=fixed;perimeter=ellipsePerimeter;html=1;align=center;shadow=0;dashed=0;spacingTop=3;image=img/lib/active_directory/firewall.svg;" parent="1" vertex="1">
          <mxGeometry x="1802.8799999999999" y="390" width="50.5" height="82.79" as="geometry" />
        </mxCell>
        <mxCell id="kG0iY3HcZwcLajI_eg3o-36" value="192.168.110.2" style="text;html=1;align=center;verticalAlign=middle;whiteSpace=wrap;rounded=0;" parent="1" vertex="1">
          <mxGeometry x="1893" y="225.6" width="60" height="30" as="geometry" />
        </mxCell>
        <mxCell id="kG0iY3HcZwcLajI_eg3o-37" value="harbor-proxy&lt;div&gt;emqx&lt;/div&gt;" style="image;points=[];aspect=fixed;html=1;align=center;shadow=0;dashed=0;image=img/lib/allied_telesis/computer_and_terminals/Server_Desktop.svg;" parent="1" vertex="1">
          <mxGeometry x="1060" y="198" width="42.599999999999994" height="54" as="geometry" />
        </mxCell>
        <mxCell id="kG0iY3HcZwcLajI_eg3o-38" value="windows&lt;div&gt;SHM&lt;/div&gt;" style="image;points=[];aspect=fixed;html=1;align=center;shadow=0;dashed=0;image=img/lib/allied_telesis/computer_and_terminals/Server_Desktop.svg;" parent="1" vertex="1">
          <mxGeometry x="1134" y="198" width="42.599999999999994" height="54" as="geometry" />
        </mxCell>
        <mxCell id="kG0iY3HcZwcLajI_eg3o-39" value="k8s-master&lt;div&gt;rke2-server&lt;/div&gt;" style="image;points=[];aspect=fixed;html=1;align=center;shadow=0;dashed=0;image=img/lib/allied_telesis/computer_and_terminals/Server_Desktop.svg;" parent="1" vertex="1">
          <mxGeometry x="1209" y="198" width="42.599999999999994" height="54" as="geometry" />
        </mxCell>
        <mxCell id="kG0iY3HcZwcLajI_eg3o-40" value="k8s-node1" style="image;points=[];aspect=fixed;html=1;align=center;shadow=0;dashed=0;image=img/lib/allied_telesis/computer_and_terminals/Server_Desktop.svg;" parent="1" vertex="1">
          <mxGeometry x="1283" y="198" width="42.599999999999994" height="54" as="geometry" />
        </mxCell>
        <mxCell id="kG0iY3HcZwcLajI_eg3o-41" value="tdengine" style="image;points=[];aspect=fixed;html=1;align=center;shadow=0;dashed=0;image=img/lib/allied_telesis/computer_and_terminals/Server_Desktop.svg;" parent="1" vertex="1">
          <mxGeometry x="1358" y="198" width="42.599999999999994" height="54" as="geometry" />
        </mxCell>
        <mxCell id="kG0iY3HcZwcLajI_eg3o-42" value="mysql-redis-&lt;div&gt;rabbitmq&lt;/div&gt;" style="image;points=[];aspect=fixed;html=1;align=center;shadow=0;dashed=0;image=img/lib/allied_telesis/computer_and_terminals/Server_Desktop.svg;" parent="1" vertex="1">
          <mxGeometry x="1432" y="198" width="42.6" height="54" as="geometry" />
        </mxCell>
        <mxCell id="kG0iY3HcZwcLajI_eg3o-43" value="k8s-master&lt;div&gt;rke2-server&lt;/div&gt;" style="image;points=[];aspect=fixed;html=1;align=center;shadow=0;dashed=0;image=img/lib/allied_telesis/computer_and_terminals/Server_Desktop.svg;" parent="1" vertex="1">
          <mxGeometry x="1087.6" y="351" width="42.599999999999994" height="54" as="geometry" />
        </mxCell>
        <mxCell id="kG0iY3HcZwcLajI_eg3o-44" value="k8s-node1" style="image;points=[];aspect=fixed;html=1;align=center;shadow=0;dashed=0;image=img/lib/allied_telesis/computer_and_terminals/Server_Desktop.svg;" parent="1" vertex="1">
          <mxGeometry x="1197" y="351" width="42.599999999999994" height="54" as="geometry" />
        </mxCell>
        <mxCell id="kG0iY3HcZwcLajI_eg3o-45" value="demo-offshore" style="image;points=[];aspect=fixed;html=1;align=center;shadow=0;dashed=0;image=img/lib/allied_telesis/computer_and_terminals/Server_Desktop.svg;" parent="1" vertex="1">
          <mxGeometry x="1307" y="351" width="42.599999999999994" height="54" as="geometry" />
        </mxCell>
        <mxCell id="kG0iY3HcZwcLajI_eg3o-46" value="mysql-redis-nacos-&lt;div&gt;rabbitmq-tdengine&lt;/div&gt;" style="image;points=[];aspect=fixed;html=1;align=center;shadow=0;dashed=0;image=img/lib/allied_telesis/computer_and_terminals/Server_Desktop.svg;" parent="1" vertex="1">
          <mxGeometry x="1417" y="351" width="42.6" height="54" as="geometry" />
        </mxCell>
        <mxCell id="kG0iY3HcZwcLajI_eg3o-47" value="&lt;div&gt;kvm&lt;/div&gt;&lt;div&gt;192.168.110.233&lt;/div&gt;" style="image;points=[];aspect=fixed;html=1;align=center;shadow=0;dashed=0;image=img/lib/allied_telesis/computer_and_terminals/Server_Desktop.svg;" parent="1" vertex="1">
          <mxGeometry x="2641.4" y="278.15" width="42.599999999999994" height="54" as="geometry" />
        </mxCell>
        <mxCell id="kG0iY3HcZwcLajI_eg3o-48" style="edgeStyle=none;rounded=0;html=1;startSize=10;endSize=10;jettySize=auto;orthogonalLoop=1;fontSize=14;endArrow=none;endFill=0;strokeWidth=2;exitX=0.93;exitY=0.328;exitDx=0;exitDy=0;exitPerimeter=0;" parent="1" source="kG0iY3HcZwcLajI_eg3o-14" target="kG0iY3HcZwcLajI_eg3o-47" edge="1">
          <mxGeometry relative="1" as="geometry">
            <mxPoint x="2087" y="269" as="sourcePoint" />
            <mxPoint x="2461" y="334" as="targetPoint" />
          </mxGeometry>
        </mxCell>
        <mxCell id="kG0iY3HcZwcLajI_eg3o-49" value="&lt;div&gt;GPU&lt;/div&gt;&lt;div&gt;192.168.110.231&lt;/div&gt;" style="image;points=[];aspect=fixed;html=1;align=center;shadow=0;dashed=0;image=img/lib/allied_telesis/computer_and_terminals/Server_Desktop.svg;" parent="1" vertex="1">
          <mxGeometry x="2549.4" y="198" width="42.599999999999994" height="54" as="geometry" />
        </mxCell>
        <mxCell id="kG0iY3HcZwcLajI_eg3o-50" style="edgeStyle=none;rounded=0;html=1;startSize=10;endSize=10;jettySize=auto;orthogonalLoop=1;fontSize=14;endArrow=none;endFill=0;strokeWidth=2;exitX=0.793;exitY=0.133;exitDx=0;exitDy=0;exitPerimeter=0;entryX=0.043;entryY=0.687;entryDx=0;entryDy=0;entryPerimeter=0;" parent="1" source="kG0iY3HcZwcLajI_eg3o-14" target="kG0iY3HcZwcLajI_eg3o-49" edge="1">
          <mxGeometry relative="1" as="geometry">
            <mxPoint x="2149" y="284" as="sourcePoint" />
            <mxPoint x="2465" y="238" as="targetPoint" />
          </mxGeometry>
        </mxCell>
        <mxCell id="kG0iY3HcZwcLajI_eg3o-51" value="" style="image;aspect=fixed;perimeter=ellipsePerimeter;html=1;align=center;shadow=0;dashed=0;spacingTop=3;image=img/lib/active_directory/firewall.svg;" parent="1" vertex="1">
          <mxGeometry x="2179.9999999999995" y="743.6100000000001" width="50.5" height="82.79" as="geometry" />
        </mxCell>
        <mxCell id="kG0iY3HcZwcLajI_eg3o-52" value="192.168.100.1" style="text;html=1;align=center;verticalAlign=middle;whiteSpace=wrap;rounded=0;" parent="1" vertex="1">
          <mxGeometry x="2164.2999999999997" y="830.0000000000001" width="89" height="30" as="geometry" />
        </mxCell>
        <mxCell id="kG0iY3HcZwcLajI_eg3o-53" value="" style="verticalLabelPosition=bottom;aspect=fixed;html=1;verticalAlign=top;strokeColor=none;shape=mxgraph.citrix.switch;fillColor=#66B2FF;gradientColor=#0066CC;fontSize=14;" parent="1" vertex="1">
          <mxGeometry x="1032" y="1076" width="122" height="55.03" as="geometry" />
        </mxCell>
        <mxCell id="kG0iY3HcZwcLajI_eg3o-54" value="" style="verticalLabelPosition=bottom;aspect=fixed;html=1;verticalAlign=top;strokeColor=none;shape=mxgraph.citrix.switch;fillColor=#66B2FF;gradientColor=#0066CC;fontSize=14;" parent="1" vertex="1">
          <mxGeometry x="900" y="856.4" width="122" height="55.03" as="geometry" />
        </mxCell>
        <mxCell id="kG0iY3HcZwcLajI_eg3o-55" value="" style="verticalLabelPosition=bottom;aspect=fixed;html=1;verticalAlign=top;strokeColor=none;shape=mxgraph.citrix.switch;fillColor=#66B2FF;gradientColor=#0066CC;fontSize=14;" parent="1" vertex="1">
          <mxGeometry x="753" y="1370" width="122" height="55.03" as="geometry" />
        </mxCell>
        <mxCell id="kG0iY3HcZwcLajI_eg3o-56" value="" style="endArrow=classic;html=1;rounded=0;entryX=0.967;entryY=0.285;entryDx=0;entryDy=0;entryPerimeter=0;exitX=0;exitY=0.75;exitDx=0;exitDy=0;" parent="1" source="kG0iY3HcZwcLajI_eg3o-171" target="kG0iY3HcZwcLajI_eg3o-53" edge="1">
          <mxGeometry width="50" height="50" relative="1" as="geometry">
            <mxPoint x="1325.6000000000004" y="938.6524954739707" as="sourcePoint" />
            <mxPoint x="1003" y="1130" as="targetPoint" />
          </mxGeometry>
        </mxCell>
        <mxCell id="kG0iY3HcZwcLajI_eg3o-57" value="&lt;font style=&quot;font-size: 14px;&quot;&gt;eth0到48口&lt;/font&gt;" style="edgeLabel;html=1;align=center;verticalAlign=middle;resizable=0;points=[];" parent="kG0iY3HcZwcLajI_eg3o-56" vertex="1" connectable="0">
          <mxGeometry x="-0.1325" relative="1" as="geometry">
            <mxPoint as="offset" />
          </mxGeometry>
        </mxCell>
        <mxCell id="kG0iY3HcZwcLajI_eg3o-60" value="&lt;font style=&quot;font-size: 18px;&quot;&gt;核心交换机48口&lt;/font&gt;" style="text;html=1;align=center;verticalAlign=middle;whiteSpace=wrap;rounded=0;" parent="1" vertex="1">
          <mxGeometry x="1060" y="1145.8" width="110" height="30" as="geometry" />
        </mxCell>
        <mxCell id="kG0iY3HcZwcLajI_eg3o-61" value="" style="endArrow=classic;html=1;rounded=0;exitX=0.38;exitY=0.103;exitDx=0;exitDy=0;exitPerimeter=0;entryX=0.628;entryY=0.913;entryDx=0;entryDy=0;entryPerimeter=0;" parent="1" source="kG0iY3HcZwcLajI_eg3o-53" target="kG0iY3HcZwcLajI_eg3o-54" edge="1">
          <mxGeometry width="50" height="50" relative="1" as="geometry">
            <mxPoint x="953" y="1200" as="sourcePoint" />
            <mxPoint x="1003" y="1150" as="targetPoint" />
          </mxGeometry>
        </mxCell>
        <mxCell id="kG0iY3HcZwcLajI_eg3o-62" value="&lt;span style=&quot;font-size: 14px;&quot;&gt;47口到24口&lt;/span&gt;" style="edgeLabel;html=1;align=center;verticalAlign=middle;resizable=0;points=[];" parent="kG0iY3HcZwcLajI_eg3o-61" vertex="1" connectable="0">
          <mxGeometry x="-0.0371" y="5" relative="1" as="geometry">
            <mxPoint as="offset" />
          </mxGeometry>
        </mxCell>
        <mxCell id="kG0iY3HcZwcLajI_eg3o-63" value="" style="endArrow=classic;html=1;rounded=0;exitX=0.366;exitY=1.012;exitDx=0;exitDy=0;exitPerimeter=0;entryX=0.699;entryY=0.091;entryDx=0;entryDy=0;entryPerimeter=0;" parent="1" source="kG0iY3HcZwcLajI_eg3o-53" target="kG0iY3HcZwcLajI_eg3o-55" edge="1">
          <mxGeometry width="50" height="50" relative="1" as="geometry">
            <mxPoint x="516" y="1238" as="sourcePoint" />
            <mxPoint x="791" y="1054" as="targetPoint" />
          </mxGeometry>
        </mxCell>
        <mxCell id="kG0iY3HcZwcLajI_eg3o-64" value="&lt;span style=&quot;font-size: 14px;&quot;&gt;46口到10口&lt;/span&gt;" style="edgeLabel;html=1;align=center;verticalAlign=middle;resizable=0;points=[];" parent="kG0iY3HcZwcLajI_eg3o-63" vertex="1" connectable="0">
          <mxGeometry x="-0.0052" y="1" relative="1" as="geometry">
            <mxPoint x="1" as="offset" />
          </mxGeometry>
        </mxCell>
        <mxCell id="kG0iY3HcZwcLajI_eg3o-65" value="&lt;font style=&quot;font-size: 18px;&quot;&gt;交换机24&lt;/font&gt;&lt;span style=&quot;font-size: 18px; background-color: initial;&quot;&gt;口&lt;/span&gt;" style="text;html=1;align=center;verticalAlign=middle;whiteSpace=wrap;rounded=0;" parent="1" vertex="1">
          <mxGeometry x="920" y="918.37" width="65" height="30" as="geometry" />
        </mxCell>
        <mxCell id="kG0iY3HcZwcLajI_eg3o-66" value="&lt;font style=&quot;font-size: 18px;&quot;&gt;交换机10口&lt;/font&gt;" style="text;html=1;align=center;verticalAlign=middle;whiteSpace=wrap;rounded=0;" parent="1" vertex="1">
          <mxGeometry x="781.5" y="1440" width="65" height="30" as="geometry" />
        </mxCell>
        <mxCell id="kG0iY3HcZwcLajI_eg3o-67" value="" style="rounded=1;whiteSpace=wrap;html=1;fillColor=#d5e8d4;strokeColor=#82b366;" parent="1" vertex="1">
          <mxGeometry x="373" y="880" width="190" height="160" as="geometry" />
        </mxCell>
        <mxCell id="kG0iY3HcZwcLajI_eg3o-68" value="" style="image;points=[];aspect=fixed;html=1;align=center;shadow=0;dashed=0;image=img/lib/allied_telesis/computer_and_terminals/Personal_Computer_with_Server.svg;" parent="1" vertex="1">
          <mxGeometry x="390" y="894" width="62.400000000000006" height="62.400000000000006" as="geometry" />
        </mxCell>
        <mxCell id="kG0iY3HcZwcLajI_eg3o-69" value="" style="image;points=[];aspect=fixed;html=1;align=center;shadow=0;dashed=0;image=img/lib/allied_telesis/computer_and_terminals/Personal_Computer_with_Server.svg;" parent="1" vertex="1">
          <mxGeometry x="479" y="894" width="62.400000000000006" height="62.400000000000006" as="geometry" />
        </mxCell>
        <mxCell id="kG0iY3HcZwcLajI_eg3o-70" value="" style="image;points=[];aspect=fixed;html=1;align=center;shadow=0;dashed=0;image=img/lib/allied_telesis/computer_and_terminals/Personal_Computer_with_Server.svg;" parent="1" vertex="1">
          <mxGeometry x="438" y="974" width="62.400000000000006" height="62.400000000000006" as="geometry" />
        </mxCell>
        <mxCell id="kG0iY3HcZwcLajI_eg3o-71" value="&lt;font style=&quot;font-size: 16px;&quot;&gt;工位 59&lt;/font&gt;" style="text;html=1;align=center;verticalAlign=middle;whiteSpace=wrap;rounded=0;" parent="1" vertex="1">
          <mxGeometry x="435" y="850" width="60" height="30" as="geometry" />
        </mxCell>
        <mxCell id="kG0iY3HcZwcLajI_eg3o-72" value="" style="shape=image;verticalLabelPosition=bottom;labelBackgroundColor=default;verticalAlign=top;aspect=fixed;imageAspect=0;image=data:image/png,iVBORw0KGgoAAAANSUhEUgAAAYkAAACsCAYAAACOy1CMAAABU2lDQ1BJQ0MgUHJvZmlsZQAAGJV1kL1Lw1AUxU+1UvwYgjg6RFBQrCKx0rlWKIJDrBU/tvQ1pkqaPpJUcXN0dnBycBAHJ3Gpbgr+B4qCi+AkCC5Kl1qe97VqWsUL950fh8PjcIE2GJzbYQAFx3fTqWl1eWVVjTyjE71QMIoBg3k8oetzFMG3tk7lDiGpN2Pyr53Mu312uMfM1MXLSVXM/M23TFfO9BjpB+0w464PhAaJ9S2fS6ZFn0uliHclWw0+kJxt8Gk9k0knia+JFZY3csS3xNFsk281ccEusa8Osn2P6SwuSKXtRwYa4piid/6fXKyeS6IIjm24WIeFPHyoSJDDYcMknoUDhnFEiTVM0MbkfX/fLfCKr0B8g+Ap8Iwj4HyTKj8G3hDdVSG+srnhGj/XDFXC3tqk1uDuMtCxL8TbEhAZAWr3QlTLQtSOgfYH4LLyCRfyZEmnMNhiAAAAOGVYSWZNTQAqAAAACAABh2kABAAAAAEAAAAaAAAAAAACoAIABAAAAAEAAAGJoAMABAAAAAEAAACsAAAAAOGT1nQAAEAASURBVHgB7V0FfBRHF3+4JgSSECQhggQJLsVditMCFahA3d2+r0Zd+eqltBQqlLa0FCjuTnALxCDEE0I8RAnyvf+Euexd9pJLchedxy/s7Ozs7Mx/9+bNPJsa15lIkUJAIaAQUAgoBHQQqKmTp7IUAgoBhYBCQCEgEFBMQn0ICgGFgEJAIWAWAcUkzEKjLigEFAIKAYWAYhLqG1AIKAQUAgoBswiUiknExMQQ/iRduHBBJikuLs6QvnjxokhnZWVRfHy8SGdmZlJCQoIhPykpyZBOSUkR6ezsbMIfKDU11ZBOS0ujnJwcka9Np6en0+XLl0U+0teuXTOkRYL/QxskmUvLZ6KcuTLm8mW7cK9e+urVq4Z8pGV7URbnIOTJdG5urqEfSEuqbGm8C9lmpGW/TfGQmGnLa8tocbI0LZ+L96pNSyzlM3Gufa/m8vHtStKWxzcnSS8fNiKyDPonywAL+c2hfTIfaVkeZWQa+bJtyJN9Qlriqs3Hb0SSNi1/Z7imzbckjd+jJG1aW6c2nZycLIuT/K0jQ6aBjSwDLGQ+sJD5qE9ij+syjXFEplFGYoOxRpsvcdWWl+MR2qJNyzEL+ebS2vLa8U47DmrT2nr0yuM9yjER70Did+nSJTH+oS24jnNQbGys4b1hHJbvDfmyDNoo09qxWlRg4X/FZhLbt283VB0YGEjnzp0znAcFBRnSAQEBhrS/v79I40M4deqUSGdkZJAsj46EhoaK/MjISIqOjhbpsLAwCg8PN+TL9NmzZwVAuIDnSPCPHz9uAHPfvn1Uo0YNce+ePXvEEf/t3LnTkN6xY4chre3X1q1bDfnbtm0zpLds2WJIb968WTe9YcMGQ/7GjRsNaXkvXvKhQ4dEPvALDg4WabRd9nvXrl2GAWHdunUkDdCQlrR27VqZpDVr1hQrvX79ekN5bZ3atLZ+c2ntc7V1mkvL+jEISIwxmKG/IKR3794t0viw5XsLCQkh+Q3hKL+5o0ePGiYje/fuNbx7vGN8XyC8Yzlo4Dly0JDPRxlt2tx3oM3Xfjfa70O2Vz4XR5DMB2NAO0Fo38GDB0Uag6z8JjD4nThxQuTjd+Hn5yfSGDDQX1BUVBThNwACFjgHHTt2zNBv+Rzk79+/HwdBvr6+Mml4PjK0+QcOHDCUMZc+cuSIoczhw4d107J/uKgtI/uBfHz3IPxWZT4GO/m7wHggBzcc5W8EY4McpIGFZFQYU+Q7Rh1ygAROchBFWn4fZ86cEc/Hf9q0/N6Qr02fPn0aWYK0+ebu1ebj9y5Jm5bjIJiYHOPQPplGP+UYh/FD9jsxMdHAVJCHcxDSsoy2vLbtcjyS7SnsWIMHoCJNYPGi3NzcRD14uLOzc2F1qmsKAYWAQkAhUIERAMO0t7cXLcTkadiwYWZba9FKAlxNcnPFIMxiqS4oBBQCCoFKgYBkEGhs586dC21zoUxCLlk6duxIrVq1KrQidVEhoBBQCCgEKh8CmPhDH7J69WqDTkvbi0LFTZCNguN4eXlp71FphYBCQCGgEKgmCBTKJKoJBqqbCgGFgEJAIXADAVjI1a1b14CHWXETVhHSSsBQWiUUAgoBhYBCoMoiAAs5WERpyexKIiIigpycnKhhw4ba8iqtEFAIKAQUAtUIAbNMohphoLqqEFAIKAQUAowA/Ergq+Pu7m7AQ1fcBC9B6eRiKKkSCgGFgEJAIVClEYBDn9ZLHJ3VZRIoKL33qjQiqnMKAYWAQkAhYIQAIh9oSVfchCUHmISHh4e2rEorBBQCCgGFQDVDQJdJVDMMVHcVAgoBhYBCwAwCuuImhOCQQcnM3KeyFQIKAYWAQqCKIYDotNogqOie7kpCRk60s7OrYhCo7igEFAIKAYVAcRDQZRLFqUCVVQgoBBQCCoGqi4CuuAmbVsi4/lW366pnCgGFgEJAIaBFAN7WpmO/WkloEVJphYBCQCGgEDBCQHclYVRCnSgEFAIKAYVAtUVAl0nAukluKVltkVEdVwgoBBQC1QwBi62bqhkuqrsKAYWAQkAhYAYB3ZWEmbIqWyGgEFAIKASqGQK6TEKJm6rZV6C6qxBQCCgEGAElblKfgUJAIaAQUAgUCwHdlUSxalCFFQIKAYWAQqDKIqDLJOBMt3fv3irbadUxhYBCQCGgECiIQHx8fIG4fcqZriBOKkchoBBQCCgEbiCgu5JQ6CgEFAIKAYVA9UMgNzeXrl69atRxXSYB6yYlbjLCSZ0oBBQCCoEqjwA2mzPdJkKJm6r8a1cdVAgoBBQCJUdAdyVR8urUnQoBhYBCQCFQWRHA/tame1zrMgklbqqsr1i1WyGgEFAIlBwBMIijR48aVaDETUZwqBOFgEJAIaAQ0CKgu5LQFlBphYBCQCGgEKgeCGDramw8pCVdJhEZGUn79+/XllNphYBCQCGgEKjiCEDcFBwcbNRLJW4ygkOdKAQUAgoBhYAWAd2VhLaASisEFAIKAYVA9UAA4iYYLmlJl0lERETQvn37tOVUWiGgEFAIKASqOAIQNyF2n5aUuEmLhkorBBQCCgGFgBECuisJoxLqRCGgEFAIKASqBQJpaWl0/vx5o77qMgnIpA4cOGBUUJ0oBBQCCgGFQNVGIDMzk/CnJSVu0qKh0goBhYBCQCFghIDuSsKohDpRCCgEFAIKgWqBAKybwsLCjPqqyyQgblLOdEY4qROFgEJAIVDlEbh27VqB/SSUuKnKv3bVQYWAQkAhUHIEdFcSJa9O3akQUAgoBBQClRWB5ORky6ybVOymyvqKVbsVAgoBhUDJEahVqxbhT0tK3KRFQ6UVAgoBhYBCwAgBJW4ygkOdKAQUAgqB6osAwoSfOXPGCABdJqHETUYYqROFgEJAIVAtEKhbty41a9bMqK9K3GQEhzpRCCgEFAIKAS0CuisJbQGVVggoBBQCCoHqgUB8fDydPn3aqLO1jc5unCBUOEROgwYN0rts0zw8GwGmYIpVo0YNmz5LVn7hwgVq0aKFPLXqMTo6mlq3bi3qTE1NpSZNmli1fr3KkpKSCiwZ9coVladtu7asuXxtmdKkrVE/vp+mTZuKZlijPm1/SlPf4cOHaeDAgdS8eXPy8fGhBg0aaKtWaYVAuSJgb29PderUMWpDhRA3wbv777//Jr/TfpSVlUVNmjpQvXr1qGbNslnoZGVnUYP6tvmxoj9yILh8+TJB5mdryrmcQ/Xq1iv1Y7K57fV1BjFb4oVGI8BYw4YNS9V+LQbWbm9p2hfL0QycmztTRnompfGkwc3VTUzGnn766TL73ksFrLq52iFQ7kziueefo8OHj9CA4QNp7KSbqWvPrtXuJagOV08EruTk0sb1m2jH+q0UGxVD9829j2bPnl09wVC9rhAIREVFidhNgwcPNrRHl0mEh4cTCtta3IQfRJ2GdenVD98gLHMUKQSqKwIbVq+nJd8sottm3EaPP/54dYVB9bucEUCAv+vXrxuNx7pMoizaiRVEUloyffTtp2XxOPUMhUCFR+DIgcP07stv04cffEDDhg2r8O1VDaweCJSN0N8ES+ggIGLCCkKRQkAhkIdAn/59adKMSfTdwu8UJAqBckEABkv79u0zerYuk0BBX19fo4LWPIGSGjoIJWKyJqqqrqqAwANPPkyxbG0HKyhFCoGyRqBVq1bUr18/o8fqMgk3NzcaMGCAUUFrnsCKCUpqRQoBhUBBBLy7eNPWrVsLXlA5CgEbI4DgfqYmsLp+Eunp6cIcr7RmiHr9gR8EzEJtZcUUw1YiB/bsp8ysbLrrvrv0mlCp8q5fu06/LvqFctmsdezEceTm6V6p2q8aW3wEOnbtTKcPniz+jdX8Dmv5WJXEDyY2NpZatmxJJblXvraS3hscHEzdu3cXz+/WrZusrkRHSJHwB18eSbpMIjExkbA7nS1WE3CUgx+EtSk1JZUCTgfQVx99TlAA5l65QuEh5+nV9yqv3iP8fCh9PO8j2r5pG2VkZNDqv1fTMy8/SyPHj7Y2fDarD5YSa/75l67zjldTZ95is+eURcVpqWlk38T2VngeXp60c/32suhSpX+GLXyssrIy2bepeH46mZkZ7NvTiLLZ56p+CX2uSnrvpbQ02uu7l9IvpVNOzmXy8vSkUSNH0Zw5c4r9fiFFwp+WdJmEu7s74c8WBE9YOMpZi65evcrMwZ+W/vALbV63iWrXqUuO7M2aEHeRNq/dQjNn304dOntb63FlUk/CxQRa9PVCWvnnKjZHI2aqjoRtBYPOBNJvS5ZSGy93aufdvkzaUpqHhJ8Po4/fYia3cStl5+RQwKkz9Mo7r5WmynK5NykxiQL8/Gn50j8pJzubXnrzP+TV3stmbXF0akpwZFRUOAJaH6uX333VZtKJwltRsa4mchTXTf9uotVrV9Pqf1fTiy+8aLQqKElrdZlESkoKc8Rsm4SqQKgNa3lSh/JKYfOajfTLD7/SpbRLPMtzoMT4OKpbrz7dNGgoJcTH0qrl/9BL8/5TKDZP3fc4Xb1ylb75pXytSiCGW7tiDS36aiHFxcVT7Vq12TM3XWwCMmDICGrU2I4C/U/Sz9//RO/Mf6/QPj1x76MED+/vf/+x0HK2uJiYkCj68M8fK4nfNjVxaEbXkhJp9V+radCIoTRk5FBbPNbqdeaAsfkF0JlTp+mHL7+nyPAIys3NFcz60+8+o9439bH6M1EhJga1ahtv/GKTB1XiSqWP1eKVPysDGM17dHRyoln3zRZ/P379A7340ov05htv0tixYzWlzCchsoPYSytF0mUSiDEEkZOt4hmZb6JlVy7ExFLgmQD69O1P6FzwOXJycuHBqAaHOUihfgOHUp/+ed6Cu7ZuoMP7D9P+Xfto4DD9OFR3Tb1TiHPw5IiwCFqze71ljbByqZPHTrJo6QM6fvg4NWpkx+KZ65Sdm00ebdvRwKEjyYFXE6CIsPN0LvAcHfE9RH0GGFshyCZp+zR56IQy6xPCVSxl/cmK3/4STK5xY3tm1HEiBpd3py78TV2kP35exu3uawhVItusPT4593Exk/7hj8Xa7DJNnw08S0H+AfTTd0uEGBMM2rm5C6WkJFFaWrqYfHTp7sOihfpm24XJR072ZVq47AezZcxduMLiUkX6CGAFASdc5WOlj4/Mvf+JB6mRXWP65NNPxGqicePG8pLZY5s2bQh/WtJlErYUN2kfXtx0ZkYmHTt0lD54/T0KDw2nBo0akx0PRMnJCeTu2Y5unnQL1dDEe+rAA9PeXVtZ5PEB/fzPbzyjLRhcb/qdMyj8fBQ1bNSIRowbWdwmlbp8aEgoffb+fNq1ZRfVZMuCRg0bUxbkmzwoDR99M7m5exo9o0u3HsxIfGn5b8vJp0c3jq1UcJAqjz4Fsj5o3stvEJgdmAOYXFJiPHl45TG5ps2c2KBgB4WeC6OVf/xDs+bqh5/IZ3A1qSwZnAQ5NjqG0JdVy1fRzs07RHZjuyaUxswB7+SRp19indde8jt+hvZs30NjJoyRtxodtf2IKUNGbdSIKngifaywglBUNAJ33HsnnT5+it5//33xV/QdBUvoMgmIm9JYGWLKUQreXnY5WDn8xTJhDDBYjjdgJVE6rxwaMqO4896HmAHkRfzUtqhl6zbk0qI1K3PSae/OvTRx2kTt5fw0Kixjgs5k6eKl9PtPy9hy6QoPQI0oNTmFrtWtw+KYsdS5aw/dFrV282CxRxidDwrhQWo3jZloZhlZRn2Kjoim9159m/bv8aX69RpQ44Z2lJWRTvYsYho0fBS1cc+X3Xfo7MN6o5UsUvuXhrDYyc3DWEGGDpcHg8NzkzlyLhhcIIuXFn+3WLwLZ+cWlJqaxO/nMt1yx93UslVeezt08uHvaQst5jAa0E20bd8WVRhRefXDqBFV8ET5WBX/pc66/y6a99zrFt0IcRMstW666SZDeV0mgfgdMIOtCBQZHkm7t+2i77/4jhITkjj8czMWWySIgXUsrxzadehUaDN79O5Hu7dvpq3rN1P3Xt3JtY1roeVtffHKlVxuyxZ65z9v5+lR7B2YIV/i1UMmde/Tj3r3G8AijMItKzp26cqD1Fbaxgphnx5dqWXrlrZudoH6MZH48sPPaOOaTZTBVhUNeSmbwgNt3Tr1mAGMo8684jGlZo7O5N25G12IiaBtm7bSnIfnmhbJOy8jBoeHwSDAn5XSviySXLbkN4qNuSAi0NrbN6FL6anUm0WXvfsa+wxhVeTi0oqio8Jo99adukxCdKQM+5EHXNX/Hz5WUFIrshyBzl27kF0TO9qwYQONHz++0BstFjeZmkAVWquNLsKiBMv++e9+yj/iM4QBpg5bLiUlJVC3Hr15ljraoifDlK0xiwmiI6Io4WJ8uTKJIP8g+vDN9+jQvkNkZ+cgFNIpqck8Q3WlQcNGUXMXywZ7DGxwekmMT6TLrFwtS4KCf+uGzfTVx18KHU59xjc39wqLY1KoW8++gslhlWeOfLr3ovgLsbSHGf9NA/tRJ/6Ay4sg6sMKdfG3P5I/W17VY4MHiCSxim7bzpvG8STEHPXo25/FnIliNTdg6EDq2KXwyYq5elS+5QjY2sfK8pZUvpJt2L/q1KlTRTIJvZ7priTKU9x0me18YdK6iDXzmKXV40GoSZOmLA5IJJeWrWjStJnCekmvM6Z50ZFhQjRTq05NVpTWM+ufUYdFPLakC7EX6NVnXqFjB4+xDqGhsMKCkr0Ry+6HjxlJXjwgWUKZmekUGRZKcReiqZmTAzm7OFFjezvdW9GnXMYyOSlZ93pJMmEG+sEb79HRg0eFmK927dqUyf4bzs1b0NBRYy1icmD0LXgTpsiIEAoKCDbLJDLTM1hXFFaSZhZ5TzyL+gLYnHjL2k207p81gsk149VBSkoyK/rsaM6D94j+FVZRXd6vA3qw0JAAOnLwiGIShYFlpWu28rGyUvMqdDUtWrWgCxfiimwjIoBjE7YixU0wf8VfWdO5oHO0mk1Wly/9i8UA13kAhEnrRWEOeNtdc8nRqblFTUpMuEgR4aF0MTaGavH4P27SOJp86ySWgbtbdL+1CmHGv2TBj/Qrm+hik5navOEQmF3NmrWExVL3Xn0tehQc0sJDz1FUZLjAo4lDIzZxu4cmTDWjY7lRa516dalps4K6GoseqikUFxtHX33yOa3/Zz3V4BUMTI1T2N+lMQ+oo0aOK1LkJ6uCQj6CmVwqD8awCnJo2oQgfqtd25hJg8HVwSDs5SFvtcoxKzNLrEpPn/CjhTfEl07Ozek6MzqYH48YM57ad7RsZQMrs0RWzF/jd4ON47Giq2vi/2PryYdVQKlElVjbx6oSdb3UTbXjHTGjzkUWWY+e0ZLuSgKmr+Vh/nrq2An6gVcQMDe8xk5y+OFBidutp2X26BkZl8RM+2JcLIuW4oT55cNPP0KPPfd4keDYwi4d/iCfvvMJNWaT1itXr9BV/uvUpQf1HTCI7FjmbQldiI2m0LPBLAJJ4RVEDA+oNemtT95kcVuemW9hdZS2T7Am++On3+iXRXlMDkYCCcyAc3hQHzh0BPXona/cKqwdYHIRYSG8eghjr9AU8mzrTuMm3ylWUebug3UUfBKsRUEsVgrk1cNXn3xJ0ZExzKCasgjTUZhNd2UR2AA2M7aE8G0F+fvxfcnMxNrQqJtvZbPrmwowCEvqUmWKh4A1fayK9+QqUJp3gr52/VqJOqLLJMCxobwuS+smDEg5bEUCSmeZcCefbvwDnGxRpzBjDzt/lmKiInmWmiRWEc1dmtMTLz7JPhOFz9ZhUpuefonql3K7TL2GprC1kk8PHzZB82MdQh2aeMsM1okYm7Tq3Yc8mI+Gngvm95DGit5oce7TzYfumHMnm8WWjfI9JiqaPpz3Ia8YYNJ6jW3+s1is0o36sjIXqwlLCKIxiMiS+b1E8bFzt87ssfwyQUZaGNWuW7tAoLHCyhd2DWKrj7gfh32PiO1YoaNK4RVdG4+2NGvOw4XdargGJo1+wO8jipldI7uGdNcDd7OSfoihjF6itIxar06VpxCwFQIQN5mGZNJlEvA0xZ8tCN58iFFiSg0bNRTL9taurekiy4wxCCHkBhS0hdGFmCjWO7BoKf4CXWSFaBYzG/gWxMfF0LBRw6mjT+EKxV79etO+nb6FPaLE16AEvePuO+jzqFhWuKeIwb6Vq3uhHuc5OVnMHJjhRUfylpbM9NJS2fO6FnXv3Y/zA2kgryBatmpZ4jZZeiMYbyQ7F9Zl0U8Wi2Oat2gpVg9ovyWUzAYG0ZERPKheFCug1OQkGjZ6GHtcDy6UQURFRIoVpLWYNlYxF9hiad/OfWyW60BXeHXSgCcEs+Y+bHBQLKw/ubmXWdQXwu8ighXVyeLo3aWjEGEWxiCs3Y/C2qiuKQSshUCFEDe1ZqWluQBYmSy3z8nOFfLoU8ePiMG+BVv+6FEKW5ZgZgcv3ks8y4vmyIWdOXpmVkYWtXT1pBas5Eb4ig++/Ejv9jLLCw9lOWCNWqw4r0/ok0fb9uTk7KL7/MiIUIpiH4hLl5KF3L5O3Vo0fsrNdNY/mGCzf5UHuJcefYFuvfNWo/uhH4D4RBIUqbEcoNGJY1iFnguV2cU6QlTm6OzMK7rOLKYJEkYDzi4tiqwDE4AoZtpBAafFYB/LqyB7lofWrFmDV4ajadrt5i2GULlrGzchuslgxTXMn0tLEFE0Yd2Hs4sziyATxDc1fup0YSlXVN3RUeH8jYWJ1SkmIqC6rFeaMXsmO9GZ8U+5Uansx41TdVAIVFoEdFcSSWzvDjNADw+PMu1YDR5IGvEsr36DBpSUkECnjh1mKx5n/mHWM7QjOztTMIcLsVE8mNTmlUI76tmnJ1uauLO8O4N89+ynXVv3ClHV6r9+o4/e/ICth7w48F9eVxF/x809z+0cKxaE4sCA6tmuneEZ1kw0b+lCDdmiCYzxYlwcHT9ykD2px/Egld+nBF4FQaGbnp7GimY7GjJqvNA5YGBFoLdtG7Zx0K4tdPPUW9n57gc6f+68MNeU7UQIB1gaSbp8OZcVy0lC4e/ZzjLxlrxXe2zq2JQV7lliQA04fYr9MdwKVVJDDAPmkMEisvM8+27u7ESt3Vqx1ZOrsBZaw050t9xhzOC0z9OmG7FzoZt7QWc7bRlL0x5tPcXqC5MQ6HgiWens1b6j2duhd4jg9sOTPzz0PNVkRoOVrmsbD6Ev27NtN905Z5bZ+0t7ISI0wmYr+dK2Td1ftREI40lRHI9TRVo3YRZprSB8ppBC3JTBVi561Inl1c14YElh0Yw9m72Gs7Izhpf5Hl7tRfGI8PNipn2drvAs14GVn+M4/PQ0ERsI4hG0OY3jTm1iBy+/40epFXtcL16wmAeIVob+5ORkGwbYPMVoDWGpg1UJ0Qi9ZpU4D7NYOPCtdWzGs9E0nu03o/PBgeTNHrttPLyE8jMEegdeCTVsWI+ZnQ9NuGUSK4SNHdGOHDhCderVYtPgU2w+6soRbuPYe/w2Q7ukr4TWumbfzm0cqCuC4tj8tqSUzL4qiImFVQpwPXH0ELVydeO2GseAgZweM+1Ll1L5vTQhrw5udPs9M7itLen0ydO0ftUGGjF2Eu3dsZkemf0gv7eb2TEyUTTL0cmRAxHmCrEWMras28yitihydfdgzFJL2nSj+zDoZmZkCxFmGjOwo4cP8GrTjVd3jYzKZbKnOJj1hRisYK5wX12oW68u5NO9K4WxT8WmNZupS7fetGfHJmHSDH0XxEpYcWGlqKUdW3aIfni176DNtijdxrONVSMlW/RQVUghwAhgYYA/LeVPPzW5Diy7xZ8tCOKmRmacrWDLO3TMEFq3YiMP6jli8Dh1jJWNbC4ZzfL5jIw0tkhpwtZBfWjS9CksUsoXf0im1m9wf/5hd+PwD5tZRNOc2rX35hDCvcVMHoMomAnk0khLs8X9u3cIubkt+uvq4UrDxw6jNX+v4/5kU2ZmNnsp/0Mjx02kWNY7wNqnrbcXTZkx1awIY/KtU+nA3gO0c8sGdvZyEH1Y+ddSqsVMEYQVWC0WacGCCgRfk1R2bsMqzEWDkbhYjP+cmjvzCsuTGdt5jlfuwPqFC5wOYmV8b1FLOjMFhAiJvxgrmFz33p1ZOT9ZrOygCwCTxP4LW9dvY+X9UeFst27VX2wddJZNX/Pail2wJINHpXDMQ9tr144Sjm3FaK7Zok1Z3OTJq4mQ4BD+rtgJkS20zrPFWJduPcU9eD6sr2BiXKPGNWrt7iJEY3gn6AcmE3s5BMr61etFP7r26EMrfl/BgSMPiGvQm5nqzmQ/wHSsPfkw29FiXIBjlekGNciDI21TjegSVQYGBhK2tdRuN4wIw0eOHCkQhhpYme5sZq5ZMI6xYzNqRRUbAV0mAQ13fHw89eljmemptbrYhGXXkFmH8KDkx+awMIPFaqIOW7o4t3Dm0MzdeQY9iQd987svQakL+3QeN4XZaM7lLNq51cSJ5Dq3mK8jFPclDj9yiWfJiP1Umlm3OQzwg5t5920s4ohkUUygsKqB09bZQD9W4LahCdPG0IxZM806xaHe1m1a0+z77qIBQwZw2o29sweyWKqZuUdyfKsV7BH9dakttjDLHzFuBIteoqj21WsMWU06cmg/rxS8WWwTQxHnQ6h2vZo8qLZg3ckEocyVjQKDAPXq25u9sHuK8B1xbFjgxJFUO/v04H64CyYty2uZ9p4dW9nwIFZeKvURCutBowYzI4gi0Qse1A/77qG23A+I5cDosrMz2HDCXkQLnjxzimGgRD+w/0lPNnDofVNvDhGzR4TrgCd/O+/O1Nq1DYsy6xgmHmisnHzsxWqO9RoIGljRaMaMGYQdzWAcglg9rq6utGDBAkII7sGDBxs194MPPqCHHnqIBg0aZMi/ePEivfbaa7R9+3ZDHoLvIe/333+nAwcO0Ndff21kfCJjAv34448ijD3CV//nP/8hTBzffvttQz1IAPPly5cb5akT2yMQGsrOuiyp6N+/v+FhukwCg3UjjopaHuTSwoVe++A1VrjyrnJP/5fOBZ1le3Q33jzoNhp58yiLmvTpgv/R/xZ+zgNACotKCl8RaQfU0sy6C2tYMxY3/ff9Vzk0SDSLbVLEjBT43nLHdKEvKexeeQ2KUjk7l3lFHbFiwn4UJaV69eux/8AA1g35cQRXX3ZMrC2srX5dtIBNWbuxmMWedSeDRD/M7dgGj3BEqs3m3b4u5+bwiqMRHTqwm2odriVWGlgFsXBTrIIwG4fDG1YScP6JjowuadON7kM/BnE//E+eEf3gHRsolcVOPy/8mjp1684MugH15wnRpFunUIdO+uIhvENYq8FKK4NNphGQEdF4A/yOG1Zw8qE1a9WkbF4x5vXDQfRTXivtEVaHGECDgoLE94Dw7L169SpxtdA9gjHs2rXLqA440xYWBt2o8I0TbHl5zz330OTJk2nbtm00depUevXVvDhLUPgjrMZHH+UZkuD8t99+ozvuuIM++eQT+t///kd33XUXffbZZywBcNYNHwFRdWaWvqharz0qr/gIeHp6Ev60pMskbCVq0j7YXBpiIzy/Z59etH7fRtrBW3fC7LM4u9lJ0VNRDMJcG6ydj9komIIcgESI70L2ITD3fDk7N3fdNB8z3EYWxJA3vU973rJ1K95N7hU6cfgYGwX40l+//smriDg2ye1CCEPctn07bXHd9Fufvkv4Q1iPTmyBVhhpmXZrt9aFFS3WNVc2Vnhx3ku0nY0A9u/ZR1vXbqYE3jOlZWsnuo3NlAdb4Jz45odv0XOvviD0LL369hLMz1wjtP1oYUWTZQRoi4qKEh7i8tlbtmyhjh3NK+JlORwT2CAEYiLQxo0bxd7I4oT/AwP65Zdf6K233hIDxRdffEGIuoo9j1EW3x+CxA0ZMoQ6d9Z/j3PmzKGhQ4eK7XZffPFFIUrEPQ3YGGXkyJH0+uuvixULnunl5UWbNm0Sv3fUjf0OkNecrfL0CCuOhiZ6JL1yKs+6COgyCYibsDTULjms+1jLaxsxzrLVg+U1ln/J4s7QyrPF+PHiB95vYH+6afAAuu+xB2jT2o10Ow+sxaWiGATqgyIYg5W1/CRkGzFxgEz95injaTLrs17m3QpXL19Jcx65z2DUIMuaO2LVgxXTQA7oVxQhZhb2WTdWZxd1V9HXP/30UwoICKBXXnmFjh49yhtuOVncftQOX48dO3YIJoPZPqI9IyZSv379xG8eqwqsCA4dOmQQRSFkCeK54Q8rF6lPArOaNWuWMAv+6aefxGoEqwWsBDAbhUgKKwSIXNux9eCYMWNo0qRJopO4D6KNcePG0bx580Se+q/8EbBY3KTnUFH+zVctKE8EpOcwVmclYRCWth3+BVg1QqlZUh+Pwp4lN2mC+AgMz1aEmFl1NGbJ1noOREsQBUGHYDrjhh5g1apVdPvtt1PPnnlKedPntm/fXoh8Vq5cSR9++CHdfTfvk9GyJa1bt47eeOMNISrCPceOHRMz+5deeonOnDkjxELQSYCxSHLksCbQQciVOxgOGAdWHx9//DEdPnyYHn74YbEdJpTZyMeul6AlS5bQnj17CO1YuHAhffXVV+IaVhu33HKLYDzFFa/KdqljyRHQEzflmceUvM5Kf2dwYDDPqjLFHteVvjMmHUBY78pKsHopjY9HUf3GCqmyEoxKIJbR0unTp2nmzJliNYCBHyKjogg6oG+++UasFDH7B2GV4OfnZ5F1I1aYEDtJUdfEiRPp3nvvNTwW+c8++6wwgJk2bZpI4x4QJgLQS4DASPBMlAcTeuedd4TVE1YwisofgQovbrI1RB06duAfSeGb/Ni6Dar+fATyxE3Zwus+P7fypWzZD4h0OnQwVrCvWbNGmLT+/PPPQkGMWT9EO71755kr6yGIGD0ZHHJFSzCD3bx5cwEREMyEIYYuDmFlAQsqKMcRfhppcySZtjxCNIj7GhYSUy0qPIqeffgpjr8121y1Ij+aY5Ah3E9R5MfRgbvyJl5FEd4tVrzFIYSCgaizohNEjxATalUNukyiuombctmZC6GpqxJV1j7liZusLckv+zdrq37ADwG6CMj5V69eLToGayIwDgzwEN9gdo8ZOwZmU8IqBEpozNJhTSStjVDOw8NDKJ2ffPJJeuqpp4TPBJTOGNyhQ4DZrBQtmdYrz8F04EMBgugC9UB0CPEYIjmYEvQcWH2AuWkJK6V9+/aJZ8NMVo82rd3ADpp7eN/7ExyEshE5OjrpFWMdV74DrW6BG5nYG2Xn5l2FFRHXLK1PVnSZn59zOUdEIMae6DCUaOXaSl4uk2MsM0pYexZFwN10larLJIqqqDTXhRkbK78UKQT0EIiOjBKzW4dKzrTTUtMoi3UH1px8SEWvFMNAbwAdxc033ywG/enTpwvrIcj9IdsfMWJEAYjDOOxCSEiI0EHAmQ6DdCJbeeGel19+WZTHoA7/B4h9wHhgxgqLJtwHxTmYBhgBVgrQg4A6deokFN0wgQWDgikrrJywApkwYYLQb0C38c8/2KM+z9ESM9bdu3eL54hKNP+NGjVK+Fu4uOjHOUNR6JU6dfFhjOtzZIZwDvAZx/uBdGK/nIEcr8u8H5HmMWWaROy2dSs30C/f/yy2HZ7CBhQz7sqPnGDLxiD0fklJl0noabhL+gDT+4QZWyFLSNPy6rx6IdDazZX3yc6TVVfmnsMKqjZ7d1uTMDOHiSoGYYTxN/WMhlUSfA7gIGfOgq5v376EP0kwN4dlE8RTWk9prDLgLzV//nxZlJYuXSpMuTHY46979+4ExzjQ008/Tf/++69QmiO9ePFi4QyHFQLaA8IqCH8wjcXqAQrzP/74w8hJTxTk/8BYIPZC28zRpbR0rvsKK7rzBtqjB/fRSY7Q4O93glxatWZHzgFsot3R3O1lno99cfCHGG0njx7mlcVX9DnvE9+DY8/d8+C91G/QTTZrU6s2rpQcV3AlZ/pAiJuw4tM6UusyCT0Nt2llVeqcTRvPBvpzTKHRVadbVbFPVeftlLgnWlmxthIo+rFKwECvHey1ZcylMaBbQjBnLYy8vb2FOAp6hfvvv1/8FVZe68GNcr/++qswn0Uauojvv/8eSQOZbjNgZ9+Yw6HkD2G9bxrEXvGDOHJCNG3btJZNtVeJ3RO7dO0h8g0VlXOiMW9bjD3tQQF+JzmiQRg9ef8Twpx5zMTyEUdJSCqEuEk2pqIcw0PDhRc0PGgRcbUqkOgT9muurH1im7sqwbRLyKjhYyF9ESz9HqFHlKIfS++xdrniMifT5xe1GyakENptBqBAlsEttXW5tGxt2EwKcdKOHNwv/lpxFOOhvNNlRRJFderanR1Mu4vmQxz1799ry0UcpcXPNJ3PhjVXbCluEhYVZqLAappQZsln/vMc4a8qUWXuUx6D46i4lZXB3fiQSjP5gI+FNvS7Jd8mHNV+Yoe26kQwDtBGPtbr+82TbxXZJ3nbgQN7dtCvPy7g8PVtRNytrjcCVerdVx55xuKoQwZx1ECO1TZs9AgOnpnniGjLtkHvBHGTViSpyyRsKW5CNElzUWBt2XlVd+VAoDIzOC3CZd0P6AfgSV2dKDs7RyjGLelz9159OWx/XxF3a8Ufv9Ce7Zs59tYBEqKo/oMsqaLMyuSJo/JE3xG898nJo0doM4eRmffSm7yvSQPhQzJ6wmie3D5v9Ta1bduW8KclXSahLaDSCgGFQOVAQDrEVY7Wlr6V9TlwY1EmuaZPacT7m9/zwOMie8v61XTk8H4OOLlXnGNzKX26ETZa/2J+Lu5nyy38I6rB//KosLtNr8nza1xHTUMNefUgJAoswpgzst4lziZM4kaTjQ66TMKW4iajp6sThYBCQCFgIQJiwzKN8x90Erk3fDIsrMKo2JgJU8X5wq8+4b1ZatH0O+8xui5PoKvEbplFkSwnI/XqlZdltNekSbA2D9sAa/Uv2mvBAWcoKTFOm2W1dIUQN1mtN6oihYBCoFohAMW1dguDmhxW5BrP3EtLCF9/hTe7atpM3xmvtPVb+/46HM5EOixau24lbrI2oqo+hYANEUCwPohTEGMJR/zBuQ3B+2BmCuU2jvIajjjXlod4AnpA7TXtdZmPo8yHM10z3tQKeTIf3cR1PBN5FYFacRj74mwhYK7NuewNfeVK2cQ5CzxzindGjBdOf81dWtGp44eFHwmU6TgP8vcTOye28+4kzs+cPE5Xr12lFvwOcT2fSs8c8+vKT8GnBQ6QWks1s+ImuPQPGDAg/24rpeCleeVKrpVqU9UoBKouAnA0gygCP1ocQRjAfX19jfLlNRxN/zDjlJZSptdMz1E/8uCsB/m3PNeWk3lgRpKQhvMenoW0vKY9Io0BHc50sow8oh7TsvKaZEg4R0gReIbfP/NewaiKsmyS7SvqWK9efapZy/ZjEnwi4L9Rp15dDokfRt14G9y9O7eKATk4oKk437Z5ndjvHbsl4vru7ZvEdTvePvj2u+8XXbG3b8JlbBNGCPG5yt2ZDhuL1K5dp6j3pq5XIQSw53Zd/mFUdsIsC7PpsiIwiYpKYFxy1ok0QoUgqivy5B/yZTkwGmxeBC9rmYcj8mU9CPcBcYf2PpnG8c8//6Tgc2dpLod4x/naf/4tlU5CYosw+HnKZt7yODVZtEcresLgLgn7yGPbY0mY5adfSmPv9KYiC+2SjE2W0R6dm7egZhxxN+FiXlwtR8fmVJcV8GkcHgXk7OwittXFfuugZo7OonxifL4OIi0tlWNBZYvr1v6vyjvTBfkHie0pM9kP49Fn8ywYrA1iWdaXmpIqdnPz3bNf7KH8whsvG2ZcZdmOkj4rjWd9/n4BtHX9JjY9zKD3P/+IsHFPZSMMZAF+Z2jH5h1ihv0iv4fqThgItYMhVh9FkZtb4ZFTEUuqMMIMNy7hIg0eMUQUS4znXfZ8jxV2S7GuQdRzMe6CYAJ16tXhsB4DKeiMH8/+15Bz85aiLmZ7bHWUL27D+VWWjNSpnTezB7PJt2vKe/zV61eZCSTTsJE3iwx7uyaUzgO9JLc2HhRVI48pyDztsSnHocKWuZLkqkueW/MISQ8Ik3lJ+SxR5vAR1k22EjdpHmO1ZFREFAWcDqCvP/mSzvA+xrm8l/Le7Xto6b+/V6pBVQKCmZX/qTPkf9qfPn//f8LcDSK6w76HafnGFbJYhT1e4/YfO3SUQkNCacHn31LYuXAWMV7muDqnaPFfP1GLli0qbNtNGxZ+PowCzgTQNxxnJ+B0oPi2jh48Ql/8+DVhP3ZF5YtAUmKCEF+XRjqBfVew2o2Pi6UhI8aKDh1hs9jI8PMiDQZx+z15op6S9DaFGcSq5UtZVIbdCi8TVi41mMlGR0dQZnYGM4w0ysnKXxlgb3RYQWXnZPGq5ooQ0Wn3hrGzs6d6HNSwOBQVHmlRFNi4uLjyd6YrTseKKpvCWzEG8Ez12/lf06ljJ6lBw8Zis5S0tBT+QfvT7z/9RrPm3lVUNRXq+vlz5ymQB6WfvltCiG/fxN6Bmjg0IYQxjomMId/d+2lAEdtnPnHvo/xhXaGFy34o876h/UH+gfTDl99TIB8xa3Jo5kAZLEuPv3CR1q9cW+SOcA/cMZdnqbXo+2WLyrz98oEJFxMEc1j6w8+0b+c+9gBvTM1bulAiK4JDAs/R1g1baHYR39aTcx8XG1ot+mOJrFYdS4GAaeym4WNH0orfV9CyJd9RS1d3jv46QIhnivsIDNq1rvD6oFa+GLwGi5RymXFkZfOGZNeuFLdKo/LQ18BUtx4fa9aoyb4OF8Tvwbujj/iesjmUOLa6BRPBZFAYEHA5iLFgdRXPqxv8fiRBL2UrcVOVsW4CkP6n/GnL+s30589/8naOWbx/cVNKTIpnJtGUbp48nWey++nA3gO80ccEEVJYAmx6fJoDa2HvhW9/XWh6qUzP4zjMcSCvhtb8s4a2rttMCO3ryPJIzJSau7SkcZNupRNHD9Dfy5ZT5+5dRIROvQbeNfVO2r5pm7gUMzSa1uxer1fM6nnxcRfpkO8hWvXHSsHI8KE3amTHG8ekclsd6LZH76PtG9fyjGol9Rvcn3y6+ei2Qdv+yUMnlFn7ZWMgW8d7wD7eK5b+xT/Gyxwkrgn3I5knIY3o3oeeZKaxlbZt2Ep9b+pLHTp7y1uNjuXdD6PGVJGT1q2NYzchfMnS1cvoxJHj9OM3i2j138t4ldpKiIb69B9sca8vIzotD9J169Zh8dUeMdPP5IG4XfsOYhaPwXr3tk2iPij0tRshZWSk83eeL5pBoeTkRI7Q62h4/lWuW/g91GvADKA2bzvbQsScuswSD4iinJybi+uN2dGvJjOsxhysMSUliQP+ufDEMJL3nnBjU99rhvoQzLG4KwlXdzdKvZhsqMNcAiI9EKzbJJkVN2HZYS7ipLy5PI6QDZ8NPEtffPQ5WwhEsaKnBW8qkkMZmek0YPBw6tmnv2jWpUu8mjgVQKv+/MfszDX/h1yTl5aRZT4goaHYd+Dk0ZMUHBBIC7/4jqCHQJ8u3VBOjZs0jbza5Q1EsTGRFOgXRNvWb6Fb75yhC/90zg8/H8Xu+41oxLiRumWsmQldw5EDh+j82VBa+PkC/oEk3zBLrEHXeKmsbX/HLt0oKNCPNvBqwhyTKOv2a7EI4hUcVm/ffPo1xUTHUDMnZ7rMM7ks1nFBDOHTvZco3q5jZ14lnaRlvFKd9/Hb2ioM6dL0AzNFiBwVWYYAQm1/teQbFsteoI/mfciTQ1+KjgqjDt4+HDyvR5GV1K1Th2f4NagX70MRHRkmxhNP/s01cWjG33J9Oh8SxCv5PFk9Zv08gzPUmc1bH5tq2XJ4HxFZHgWh3O7StadB3CRvzmKGo33PYCBafYdcWcjy8igU12iHDQi/XzCKIpmELWM3QdchzeuK08cL/AH4HT9FH7/5IUXxxjSwJoApWApzbe/OXWn4mPFG1XXkvLMB/vQPL0cHDR/CZQrO+ErzQzZ6WAlPAlkkdpL79N3/vqXYmFheBTXjuCz2bOaYSj363kR9OOyxltCnbZERtG7VOurdvw+5e3poL+enWdFaFgS9QwRH0X3/9fcEs0P78U5gCundyYeGcMRNLbXv2IX7GUmHDxzl2fhefi9mZntl1H7ZtmiebJw4doK+ZyZ9lkVJ6AP+oGxEbJ8hI8fJouLYrkMnLneG9rMYavf23RxZdKjRdcNJCfuBQcuWyklD+6pYwoV1Xf9b+Lno1ZcffcYRVf+lM37HyMOrAxW2soBIB+IgKOLd3L2MUKnPWxtPnJa3X4XRhRKcwEoqLTWFVz4HyQ5iZB7D0tm44/iRQ+J7Q5WJifF06Vgq2TVuIq6DURw77Mvp/Jk9vk0wL1tQhRA3IRywdrlWVEfTWasPvcPypcs5yNUmIauGGAPLMYT+vefBJ3SraMhlMPOLiggR1jV6TELcWMIfsu5DLcyMDAtneXcg/frDL3T80DFhOtjU0ZEZXjJ/0O1owhT9VQLEHh28O1NE+DnauHoDPfzMoxY+0brFIsN4ReMfQIu/+ZFn3qeEHX4j1gfhg/Zo295s+9EKMAooBSF26t6rOzW2t7Nu44pRG7ZzPLDHl9bwYLJnx25WJtYiexaNYeLR2s3d7LeFR3TlzWNOHjtIG1atZVl4bxGWvRiPLrSokF3zgKWo5Ag89fKzhL9lS36j3/lv2c/f8RaqntR/yFD+vRlbYtWuwwIV0+VAyR9t9k6EBIeEAOKonjwJhHNcRsYlHsuSeTOi3uIc18Eoet80wHCO7xGTxrIgrCIgmYGpsiSz4qaKYN3kf+o0bWb5/NJFv7K2P5sVoI6UnJRAtXmmNXPWHGreQuuBKLuUf+zCTOLihRjm3CdZR3GEl5N98i+WQyopMUmYtG5leTbEYJdZF4IZgZBXsnhoDjO8hibyTdNmdvTpziupMPbUPEWnT55mRqgv2ze9zxrnSbzN5WkWx2xZn9d+6E3wTvBR2zWuR3MfflIYDxT2rJat3MiFfxxQwh9kndEo3vO3rEnotHjisWXdJvrr1+WsIEwnBzYzTGT9D+LlzLr3QWrK+qDCyNXNg2KjIinsfAQzmD2sB8szbyzsHnWt7BGYNXc2G6/MFns0wNjg959+YBm/O3X06UZubTzLvEH9BhmvOk1XOKbXTc9t3WCImyDuLJJJ2FLcZEknIcKASetnH8xncUYEi2DgYXhdiGG69+pHA4aMsKQalu8nCYZygUU5MJGDvbveMj6RPTkhx7QVgTNjNXSGmR4ssWA549wc5pPpPHslsUsVYslbQtG8ly8cdlKSUlghn+fAY3pfHVbAWZMgPjrDDOnIgcP03ecLxKAKq6UrLDfHVoxjJ0wliGAsoWh2EoJpX2oyY8AmpJDJah3UoJOBLwUsS7D5jrUp5GwI274H0mfvzaco3hzekeP11OKZJFZBg4aOpO69+1n0yCRmjHgPsVExLDqw0zXDtPZ7sKhhqpAuAvc8dC/hz++kH330+vu0e+sGcnB0EuJE3RuqaSbETaaku5IwLWTNcww4sKPXo8SERDHTnv/uJ0I2bGdvz8qjpkKO59W2A42ddIvebQXyctjaKSjgNIsNknimXovaeHkLsYYeg8APGeaN/QcPKFCPNTKgZA/096dFX/1Awf7BPPNuxgpRJx6UUqhLtx7MIEZb9Jj4i7FsdXNKmOO1dG3By1MfFnEYW1VYVFExC50LOscmudz+r/Pa34gtK/BOYJLr4dmOt3y17J0kshNUZHgoJfHRqXkzGjpqILVs3cKIQaBpMPdFGAkEMYP1irUIoZVFP75axPsIHCM73r8ZlnDJ/I1AbDllxp0WPSqLDSSCeatbxN9pbNeABo0YxIYGTiqKgEXolX+hrt27Cv+p6IhoWrzgB9q4ZhNP2i6y+Wst+vn7L3UbWKNWTbp+NV9ZrVuIM2vyd3uNLZlq8REWTbrECnKerRpdkvdpM/Xy5HVMOtt2aCdPrXqEuAmhU1xc8n2AdJmELZ3p4LqPF2JKcB7767c/2YxtjQjbi4Eb4o3mLi3ogcefs/hHGBkRSpFhYRTDM242FqAnXnyKps6cVmAwMn2+tc+xatm/e5/QO+zftV/YSDdmpXQy98nN3dOwvWJRz4WnZURYKMWx2Cya++bq3poee+5RlmnmWdqYux+236UlzLq++fhL7ocvr+Tq8crFiRJ4kMcy/e77H7OoeshcI2+0/0JMFDNIB5r76FwaOMxYKW9aGSYTWAFag84xo16y8EfWH2wUP2BsX5lwMY79HlrSI0+/ZNEj8D4jwkJY1BdOF6KjmFlfprsfeM6slZncEMca78GiBlaDQhk8MSnutq7mYGndpjW9/sE88ffN/K/o3gfnmCsqzKDr8bhVFMFcGuXkUa+83jVL8/Tqs3YejIqAc5FMojzETQipsWzxMqE4vMKcDCKIybfexhY8lnFMiDHOhwQL++MLMdHMrK9yaI5H6dY7pheJoy1+yNh79+TRExzKYbsQl6FPiEk/+76HWf6db0NtrnEQw8CCJjoqQphgxvLAhBXEf999rUgGYa7O4uRDbh/GjnE7tuxgywqHPK9PNuWbPdey9kMUE86DKt5LSlKi6Icb22o/+ORDhTKIzMwsXmleo4Z2jTnyZb7yrDhtNy0bxbbmf/z8B+9t3FSEN+HICTTtttnk2sbDtKjuOUR8IcGBQqEXGx3JDL+OcKQzZ4aMSkqyIY7uw1WmAQGECZfBCg2ZVkg8/vyThdZi6XpdlpNHvUr1rlmap1eftfNcXV0LVKm7kihQyooZ8JqEw5Ip1WtQX/ywYCLmw3vPDh9tmSIwnc1FMdMGYwg/f054uDo6O/JgOo8tVFqbPsboHDbx4Jz1GzY0yrfGCcQlsOTCRw1nnJsGD2WTVjMmnyYPhJlo+PnzlBB/gVdEkWyWfY0823vSK2/9l1q3KfgSTW63yil0OBhU4biDyJud2TJj5NiJFtUdw+EGAlg0Bj+JKDbZvcyhmBvw+/3vO6+SZ1tjE0PTChs2bMArTeta9tThVZBDUwcOf3CJras6s++GZSIy6CkiOUQNVk9YRaSzQq9R44b04ZefWdWayRQDda4QKC8EIG7CSkIbZ0uXSdhS3ASvSb1gYM7NnaiFayuKDo/imXM6WzPx4M02yuYIM11sbn6J454ksxIRgbkw+76JrQeCg84Im+fuvQt3pOnaoyvt3LxLiB4O7z9k7lElyof+o6lzM/amdKZ4lnkmJSSIwbKwEL8XOXbMuaAAoaC/eCFWyP1Rz+DhY9je+yjl8J6+ZRkvyN2zjdChZPOqCCsZGALAwcgcwVQv8LQfm/QlCuaWy++oFmvme/cdQInxF9nC7Bj7HBhbd5irC+819FyoucvFynf3cGfTYk+C2CmJreOgbMc+wuboMjsqBfmf4fAJsSK2P94dArf16tef32O8WCE+/kLhs09zdat8hUBFRgBiXlORni6TKA9xU1R4NF3OyiUoRqMiwnkmHULeXbrq4omZalR4GF2IjWLz0UwWIVxmE8RxvJqIE2KRHr1uok/f+Vh4Anfh8A9ZbD4LRaujk6PwqAVzAB3hQG2xMTHk2a4d9R1omVWLboN0MjG4+5/wZ7FZHXaUcaDw0BAKPRus2ycwRKyGQs4GsqwbESVrkqtbKxo+djgdPXiccq9eZiuM3vThG++zhZQfi0ncCDGSvNp5MVaR4lw2YQubDMfwgO7FIQVKS6dPMLPlf4hCmcwzjNMnj7OCf3gB/Q4MBcRqjt/H9etXWBxTi7r36c7WQhxFk5X1oSFR1JO9WZcs+JFNZOuzZVe+eSl8Q2CCij6BtO33bGcdE8WQcyHsGHdJvIdkZnQn2HkJFnJaqyqJVRR0WvxtZWVd4m8mjVdSDWnMhNspjr+tyPBYFvUNEEp84IFv6zTrbXxYGQpnyJYa8Zj225J1q2PpEIAUoiSOuKV7avW6G9IPU9JlEqaFyuLc3dNNbE1Yp05d9mv7KLyHAAAXB0lEQVSpyZ7Ih8nN05Md7/IldvCRiGALmVSeqdo7NKZJ0ydQv4H9WXbdQogSNvy7nlYsW0Ejxk7iJtemv3/7m+MF7RQybrjGY7cluMJj9QBCEDxYQEWEnuczy8xqxY0W/Acfgs7dOtH6VQ140GfzW/534tghauPpJWIAySogxoiMCOPTq9TKzYUZwwj2AZnBNvtJbCFxVZjwLvl2ibDsCg48zQPtTyw6acry8WzhYyGPsj74XiCK5LnAQLbeycdOXi/OsZOPN68kmlKNFFaCX68hds3y7uzDq6N8y4cIjpQJhn2drpCjcxMW5Yyl8dMmCr8WmLJuY5+K/bs/Fvd4d+4mQl44crgLSZi1QJwG8RwI7wTtt+Y78WzrwX4PzSi1Rio7TdUQuh6IzxCrX1ICx+vHt5XOwSGbNrOnoaMH0IgxI8jJxZmyWU+COGGnji9m090kFln5sH/FX7Tdeaf4nnZs2iW8zGGUIcnwbbHY0NrflnxGdTtCClEcR9zqhk9h/b3I1n0IAVQUYWMniJs8PDwMRXWZBHYniuEZti12pjM82SThxLNLL++2PLidE6adsWwJ43/qBHseDhKiJ8xUL8ZF88BYm+OxdGBX+YksWsqL0ySrSrgYz6uHoywPP8limVZ0lpWNU6bfKRTGUCRjJyscQXJXq907tlACi6qsTRgg3bzcWQbvwbP+MIJHcizrTWCaC1+PeI4ECZNQWP80c7RnZteXmd4UgzgJWzOCXN1cyZ3rOXn0kHBUg5XTsNHjBcOTfYLOA5ZT8nzXts1Cn9FnQN9SdQvex95dOvBq5oSIBZWQEMcB0PbS6PGThdfoed4kJic3i+O8NKE+A3rT5OlTBcPGQ+W2km07tKWOXbzFu2zZ2pXbeJl69OlvCEMgG4j3Ifuxe/sWxsc6lk2oH3sYd+/Vjfbt8hX9gDhs385tHPzxVm5PtlgFxbP+p2HDutw2H5pwyySOAdZTNk0ch44ext7ZB8W35dW+owhcOHwsgkc68rvgPYc135X2PVyMixGrWKPK1EmlRwCRmtt37CBWowgx04WdWqH30iOsNtu2b8e/X2NPb72ytsqDGAkT5aIIq2vTFbYuk3B3dyf82YKyOfiVNqiVfAYGxcnTJ9LXny4QHA+RGX337hQOL3Gx0VzsKntYN+Mf9s006dYp8jaj48Bhg2klezIjtlEDVkY345e2/t+/hPJYbJrOOgvsKoWIirC+wYCFWSsCudmC2rAIZdLMSexA9x1lJSOYVy7t3bFVvAS45jdqXJ9jynSnibdMNus5PWbSOF6NrKO1K9eIAQmz1bUr/xB1yD5hFo7YMxBxQW9hrT45sZ7otrtnMjOLppCgYLGyCeJ4WDAhRVz8enVrsr9GZ5p62y187KYLYTcOvdHMqRlFRG5nfUA8v5f6HO9oo1gF1eA7hN6CzXVh0YQAZ9j05BLPeJo4OHCI5Iu6dRY3E/2YcMtEZlQBQiyE54bwDmfwvvXqwD901pO7tnGh8VMn0NiJ43Sr92rXllevdsxQzrOYM1oo9ffu3MLfFu8NwLjjh4VvCqay+MYgFhHvgVcrsGpTVLER+IoDhm5eu1m3kWv2rDfKxyTggdvm0spt/7Lo8XuWXvwtvh37JvYs5m1L02fPNCr/5Qef03OvPc9e3p3pmQeeZGOISHG9qaMDLVr+k1FZW51YGgUWgf20wf3QHl0mYauGol7EVjflVMivzU5t/XhlMJE3qNm/e68YUCCr9jt+iDl2e5aF30RT2N8BegVzVI+3AZz76P080x5OmWxBNYkH38Icsj54/V1as2KtCOp4gs1VrU2YHUNRmxCXyEr24/wRbqQUHgCjIs5Tlx6dOcbRxCIjtULJ/+x/n6O7HriHB54sGjZqGMv865lt6so/VtBXH39tNYst7y6d6PEXHqNdW3ZyHJylwgs6KTmO5fHc/qkTadTNo822RV54+c1X6JFnHmevbT8Wm91c6IxKth/fQ8NG5g0XZN2WHjv5dOJYVw9y0Lc1LDbzZ5PWEF6Zcj96dKExE8fSVF7FFRVH6qmXnqFpt9/KHtsBzBinCaZt7vmyH7Cc0+7gZq68yi9fBJ546Wl69PmCu1kO7z6kQMO2b9ou9FAfvPEenTlxmj7/8SvhH/fm86/Sk1xPZgaHE+dvF8zkUuoloSdN5ggJiJgMBvHJwvksCnagGWMss7Ir0AAbZiAcE8JytG/f3vAUXSYBcVNsbGyZhwqHt+1DTz9EE6ZNoBSWDe/dtputS5Lo1ttvYRFTF0OjC0vAyawoRzN5f0ceALes2yYG1B5FWELJe4p7hG33XQ/cRRMSJvBs4gXWkWxj+f11mjFrpmCYltSHgdrbsu5bUl2xymDl0pfFVh06d+Af0WO0k5nFVV7ljeaB1VL5MMJv4K+ddzuLnw0TXGt6lNdnE9yhPHnoxMwNOq94ZhC///w73fvwHCEKsKRhru6u7MzoSgOL2PTJkrpUmYqFABj/vBffKNAoxIzTEqQgP7EBBr4l6NvgXb2UA3VCpNSSpSGb1mzkSdoXtP34btq1dRct+XYRbwMQTB+x0cmUmVNFVfYsGi5qQqJ9ZlmmMSnFylhLukzCluIm7cPNpcWPkVypfYf2Btm2ubKVJR8iF9Ad996pu5Kq6P1owmEsQOOnjK/UM2Pn5s1FPxxYj/L2p++KtPqveiOAeF4w+Pjve68XAOK+GfeKXS9xAaLTP3higVA1s++7myd/d9Oh/QeFuPW/T71Mcx6Zy8YbTvTCI8+KerBCbePpTrMn3U7T77qNPfTvoXX/rCvwjIqUgd+5/K3LdukyCXmxvI9S+Vne7bDm8/VEbdas39Z12Vp0kudxfdXW3WBdgnWDINq8weoBNkNgJ4uPQoLPGSZv8M/JYtFuZ151Qk/1LW9C1bJ1S8Ekdm3eQcPGDBdt6ejTkXZt20nYLhj6iDDe0x1/4yaPN7T1+y8WiPRy9vh3YyMU7FltOlM3FK4AifNsjZfGPko9euT7mLHKriBB3HTgwIGCF1ROpUFAu3F6pWk0N1SEs2AlcGVtv8Qa/iu57L9T2fsh+1OVj/c+Mod3VgwR+rV3PnufJk6fzIxgGCHt7uXBhjSp9NqHbwoIPlv0pbBAhIECgl4e8T1M9z/xoLgGcVMkNrA6fFxEBUZwT2xo1bNfL3qeRc3nmBHBDLUJr2IrKkFX0vzGalu2UXclYUtxkwjLwZYfFYEiwyNEPB6EbVBUMRCQKxVEorzEYTQqK8E5EKaxiio+AlhVzl/4BT3/8NPkz7tFLlu8VPj5YHvktJQ0+uHPJYZVRqPGjUSHsBqYMfs2dsocwP5Yf7EByih6/7V3hWHNR9/OFyvVdbxf/SPPPCY2PmrBEY+HsBk16sbzYJIKArM5ceQE61GNTa7FxXL4z9SyCU3QXUnYsm0iLIcNYiWVpM1u7m2qjM5D2/9clq9WZkL74fiIfRoqM1X291CZsS9u2xHkEz4v/qf86c45s2g6O7RiYyz4+egRBvcF879hC7l4euqVZ8XqAeVe+3AeffrWR8IceuZdt9NwzT7zwf6BvOGRcTw5iJ/eerGgLkTvmWWRh5BMplIkXSYBcZOvr29ZtKncn6F+yOX+ClQDFALlisCqP/6hWRNvo9G8S+LXP3/LvlnNxL4mi5YvEbqJyUPG07/LVxVo40PPPCI2R1u74l/6YvHXQi8xYGh/cmnlQit+W87BOI0ZArYrHs/+OqCa7GyL1URYSDg7wlacyRDETd7e3kZ9LXNxk9HT1YlCQCGgECgGAgjhYm1KY7HmL6uWCfPmV554kQ7tO0hP8+oAZtNvfPwWzfS7TeyDPoWmGR6NlQR8hx577jFhpv/0fU/QoOGDhSjp+ddf4qCh8YaySKC833E/evX9PDNbiJyGc9iXlx97ge6ca9mGV0YVFvMEuNXkPdyLoqYc8seUdJkEvKJBcHxTVAkR4FnKWd49bdzk0ZWw8dxkXt+eDQyovO2XqIt+VOL3IPtRQY6Ql2fYQJ+JbU0lPf/aiyLp3CLPVBon8NHS+mk99vwTIqbaVPbfAiHKwfe/LyJH9uwHteJo1viThFVG3Xp1afmmFUaOpO9+/oEsYvMjtgW2s2AnS4ib4tiHqH///JBHuuImFDp27JjNGt6WXdcrDIkBNaDCNKe0DQnn/cGxJwc8PrN19u0obf22vj+v/anc/gaVsv0SH9EPDvnSkBWdJXkPffv1lVWp4w0E2rdvL6yDbAkImIOWQeg9C45wWGVIQgQEySBknvaImE0wfS/P2E2xUbHUqlU+49K2T5tGmV69emmz9MNy2NK6CZvwBAcGGzWivE7yB9TKPSBp8XvmP88R/iorVfb2S9xL0w8oM48eOSqrUscbCLTk7WbtG9sJs9PSBq+sbqCGnw+j228xjimlh4Geb5quuCmFZ0CQoenJp/QqLk6eI1sQYG+HikCl+SFXhParNlRNBBDWuTEPhooKIgAnr81rN3HUYbXSKoiOfs6RA4fpClsMjho1Sr+AJjcsLEyEZNJGANcVNyHAU1BQkOZW6yW7dOkigsRZr0ZVk0KgaiFwlsM+tHDJ37OjavWudL2ZNWsWHdp7kPcwiSpdRdXo7j9/WkYjho+wqMceHh4FtojQZRLY31SruLCodgsL2dvb8w5erTg41hYL71DFFALVC4FAP3/q2rVr9eq0hb3t1q0bjeYZ8cfzyk7pa2HTKmSxH75cSIkchfq1114rcft0mQQ2vkcUWFtR/3430bYNiknYCl9Vb+VFIDY6hrCSmDYt39yy8vbGNi1/5513qEkje3rynkfZCu6sbR5SBWr937uf0naOVPv2W29b3Bu9kEw1WPdw3bSGyMhIwjZ2plpu03IlPU/i/YGn8o/guTeeJ2wUpEghoBDIQ2DeC69Rw9oNaf78+QqSIhB46623aP2G9dSDQ1oM4X1WBo8cQgh1XZ3p1LGTHKJ8Jx3c7csiyxY078151LZt6axJdZlEWYC8YMECWvXvanr383epjZdnWTxSPUMhUKERWPTV97R7005asWIFK65Ltz95he6oFRsHReuvv/5Kx08cF9IP+CPAvwuxlQpOf80/GLsKXuPtPeHkZo4wnxZOaWzOao5QR80aLKAx2ZMB5cV8nOuoUbOgAAf1muZf5gCRdU3if2E/C9NI0tgFsS5v0oVNjeztmwiP6Qnjx9N4/rMG6TIJiJtg4WSrLUxlw999913avnM73cZ7LNxyx60yWx0VAtUKAWw8/9l78ymIt1d97933qG9fZblT0g8gODiYd7VMKjCQFlUfJCcwzy/MohNlQM7OzmarK6wMrmGvBmzkZUoQ78PEV0sBAQHUqVMnbRbp5Z0+fVp8M66urmLHO6MbinkCKRL+Bg4caLhTl0mgEBiFj4+PoaCtEn/99Rf99PNPzEVrUNfe3ak77xDXvmM7dk5xFkGySvtcxEfReymlqddcnebyi3pWSe8rql55vbD6EW0VwfRKSoXVXdI6Te/Te4Zenul9xTm3dn3mng28QTER0RxM7oyIAHrm5Gnq0b07vTXvrUIHIHN1qnyFgC0R0GUStnygubpXrVpFe/fupfO80XxyUrLYFxZRQFPYnbw0VJvjlVzhJaA1CeGssTw1JQy2chAwvVae54W3Cyop4+0Ki9NWW+Br+vxa/A6vmrzDuoz15RsDrmn5inx+iTd0adq0GW/92kDE7ffp4kNTpkwpMGOsyH1QbateCOgyCawikpOTCTazihQCCgGFgEKgeiAQERFB2PNH60yn63Gdk5Nj2BSjekCjeqkQUAgoBBQCbdq0IfxpSXcloS2g0goBhYBCQCFQfREoaIvFWGAjbJiWKVIIKAQUAgqB6oNATEwM7du3z6jDuuImYQ9cHCNjoyrViUJAIaAQUAhURgQQKtw0pLgSN1XGN6narBBQCCgEyggBXXETnFHOnlUxUcroHajHKAQUAgqBCoHAhQsXaP/+/UZt0RU3wfMQf4oUAgoBhYBCoPog0KJFC8KflpS4SYuGSisEFAIKAYWAEQK64ibsce3v729UUJ0oBBQCCgGFQNVGAOKmXbt2GXVSdyWBnekSEhLI01NFZzVCS50oBBQCCoFqhoAuk6hmGKjuKgQUAgoBhYAZBHTFTQhbe/LkSTO3qGyFgEJAIaAQqIoIQNVgKm7SZRLwuEaMckUKAYWAQkAhUH0QgCN1VlaWUYd1xU1lFVvfqCXqRCGgEFAIKAQqHAK6TKLCtVI1SCGgEFAIKATKBQFdcRNacvjwYQoNDS2XRqmHKgQUAgoBhUDZIwDXhzNnzhg92OxKAnKpBg0aGBVWJwoBhYBCQCFQvRAwu5KQDAKWTooUAgoBhYBCoGojEB8fr9tBs0wCpeF9p6ycdHFTmQoBhYBCoEohACdqvcCuZsVNpr2H/ayLi4tptjpXCCgEFAIKgUqMwLVr16hmTfPrBfNXNJ1OSUmhgwcPanJUUiGgEFAIKAQqMwLwiQBBYnTs2DGzXbGISTg4ONCUKVNEJSdOnKDg4GCRjoqKEjGecBISEiLy8J+8bpoOCgoylNGmAwMDDfl6aXC6gIAAUQZyMxl8EKsbuc0q0rIN6LRsA9La/IiICFEPtunDNRCuyzTqTk5OFvnoqyQtiEePHpXZpE0fOXJENx+WYpKKk87MzCRfX19xK3xX9NI5OTmGfCwXZRtSU1Pp1KlT4t7w8HADfugrzkEQJWICAMKWhagLtHv3bsKzZVo61yAf7ZD5IsH/IV+SNr1nzx6ZbeTFuXPnTkN+cdPbt28X9+bm5pJMI87Y8ePHRX5kZCTJ94bvU6bRbxlFAN+G/J7wvclvBe9YfgeIqQ+nUpB8DtKbN2/GQZC59JYtW2QR0qa3bdumm2+uHnP5sh78LmT9eI8Se1glyu9Siwfeu8RDiwG+eYkBvk/gBsK7wTcFwjOvXr0q0nhmdna2IT89Pb1AGu9efjfAD+8LZO59y7ajjNbjd+/evcgSpC0jvy18pzIfabkXAtok78V7lGnslSMnvPidS0seYCPHFWAmxxVgiXMQfk8SG3xvEhuJNcqYS0vcUUablr9R5GvTWjG/bCPKyDYiLb9hpOW4Cczlu8TvQoqP0G/0SXvPxo0bcavYia5Xr14irfdfsTeN6NGjh6EeNKJp06bk5OREaETbtm3FNfnjwokEEmn5MSGdkZGBgyD5MeFEm5YfYo0aNQwfGbjflStXxH3abVaRxo8GhPL4k2mR4P+wpJL52C9DpnGUyy3k16pVS9xSv359eSs1btzYkG7UqJEhrc23t7c35GvTzZo1M+Rr046OjoZ8YCjJ2dlZJNEuGdsd6ZYtW4p8tE9uMYj81q1bi/w6depQ8+bNRRptl+JBMHlcA+H5sn+4Lvvo7u4uruO/du3aGbBEWpI23b59e5ktyssTbb63t7fMJnPpjh07Gsp06tRJN925c2dDfteuXQukgbX89oBjkyZNRBngK98DsJOMz9XV1fA9AUeJDdou91FBW6TxhvYH1KdPH8PzzaV79+6tW8ZcPX379jWUtyStV0+9evVIYoNvRmKAbwnvH4R3L785Nzc3w+8IGOB+EHCU/e7WrZsBj549exp+L9oxAGXkbwdpSV26dDHc6+PjYyhj7h2b+z6035M2Ld83nie/S3zX2qCkXl5eojkYG+T3rf3toM/ydwe8ZD/s7OwM2AAL+RtBvvzto7z8ViS+eJj83pDWjg0SU+RLrJGW3x7Ssj6ktSSZM/Lk2Ie0nNQhLcdN9FWOsxgPZRrjLb5/7bg7cuRI3FokWayTKLImVUAhoBBQCCgEqhwCNatcj1SHFAIKAYWAQsBqCCgmYTUoVUUKAYWAQqDqIaCYRNV7p6pHCgGFgELAaggoJmE1KFVFCgGFgEKg6iHwf8K711yMIxgNAAAAAElFTkSuQmCC;" parent="1" vertex="1">
          <mxGeometry x="1140" y="1410.53" width="393" height="172" as="geometry" />
        </mxCell>
        <mxCell id="kG0iY3HcZwcLajI_eg3o-73" value="" style="endArrow=classic;html=1;rounded=0;entryX=0;entryY=0.5;entryDx=0;entryDy=0;" parent="1" source="kG0iY3HcZwcLajI_eg3o-55" target="kG0iY3HcZwcLajI_eg3o-72" edge="1">
          <mxGeometry width="50" height="50" relative="1" as="geometry">
            <mxPoint x="1053" y="1100" as="sourcePoint" />
            <mxPoint x="1103" y="1050" as="targetPoint" />
          </mxGeometry>
        </mxCell>
        <mxCell id="kG0iY3HcZwcLajI_eg3o-74" value="&lt;font style=&quot;font-size: 14px;&quot;&gt;1-8口接入摄像头&lt;br&gt;9口接入录像机&lt;/font&gt;" style="edgeLabel;html=1;align=center;verticalAlign=middle;resizable=0;points=[];" parent="kG0iY3HcZwcLajI_eg3o-73" vertex="1" connectable="0">
          <mxGeometry x="-0.1396" y="-3" relative="1" as="geometry">
            <mxPoint as="offset" />
          </mxGeometry>
        </mxCell>
        <mxCell id="kG0iY3HcZwcLajI_eg3o-75" value="" style="endArrow=classic;html=1;rounded=0;exitX=0.228;exitY=0.738;exitDx=0;exitDy=0;exitPerimeter=0;entryX=1;entryY=0.5;entryDx=0;entryDy=0;" parent="1" source="kG0iY3HcZwcLajI_eg3o-54" target="kG0iY3HcZwcLajI_eg3o-67" edge="1">
          <mxGeometry width="50" height="50" relative="1" as="geometry">
            <mxPoint x="1053" y="1100" as="sourcePoint" />
            <mxPoint x="1103" y="1050" as="targetPoint" />
            <Array as="points" />
          </mxGeometry>
        </mxCell>
        <mxCell id="kG0iY3HcZwcLajI_eg3o-76" value="&lt;font style=&quot;font-size: 14px;&quot;&gt;1-23口全部接入&lt;/font&gt;" style="edgeLabel;html=1;align=center;verticalAlign=middle;resizable=0;points=[];" parent="kG0iY3HcZwcLajI_eg3o-75" vertex="1" connectable="0">
          <mxGeometry x="0.0082" y="3" relative="1" as="geometry">
            <mxPoint y="1" as="offset" />
          </mxGeometry>
        </mxCell>
        <mxCell id="kG0iY3HcZwcLajI_eg3o-77" value="" style="curved=1;endArrow=classic;html=1;rounded=0;exitX=0.054;exitY=0.298;exitDx=0;exitDy=0;exitPerimeter=0;entryX=0.985;entryY=0.581;entryDx=0;entryDy=0;entryPerimeter=0;" parent="1" source="kG0iY3HcZwcLajI_eg3o-53" target="kG0iY3HcZwcLajI_eg3o-67" edge="1">
          <mxGeometry width="50" height="50" relative="1" as="geometry">
            <mxPoint x="1093" y="1000" as="sourcePoint" />
            <mxPoint x="1143" y="950" as="targetPoint" />
            <Array as="points">
              <mxPoint x="670" y="1080" />
            </Array>
          </mxGeometry>
        </mxCell>
        <mxCell id="kG0iY3HcZwcLajI_eg3o-78" value="&lt;font style=&quot;font-size: 14px;&quot;&gt;1-36口接入工位&lt;/font&gt;" style="edgeLabel;html=1;align=center;verticalAlign=middle;resizable=0;points=[];" parent="kG0iY3HcZwcLajI_eg3o-77" vertex="1" connectable="0">
          <mxGeometry x="0.1649" y="-10" relative="1" as="geometry">
            <mxPoint as="offset" />
          </mxGeometry>
        </mxCell>
        <mxCell id="kG0iY3HcZwcLajI_eg3o-79" value="&lt;font style=&quot;font-size: 16px;&quot;&gt;8个摄像头，1个录像机&lt;/font&gt;" style="text;html=1;align=center;verticalAlign=middle;whiteSpace=wrap;rounded=0;" parent="1" vertex="1">
          <mxGeometry x="1220.3" y="1371" width="216" height="30" as="geometry" />
        </mxCell>
        <mxCell id="kG0iY3HcZwcLajI_eg3o-80" value="" style="shape=image;verticalLabelPosition=bottom;labelBackgroundColor=default;verticalAlign=top;aspect=fixed;imageAspect=0;image=data:image/png,iVBORw0KGgoAAAANSUhEUgAAAE8AAABbCAYAAAAyc9gLAAABU2lDQ1BJQ0MgUHJvZmlsZQAAGJV1kL1Lw1AUxU+1UvwYgjg6RFBQrCKx0rlWKIJDrBU/tvQ1pkqaPpJUcXN0dnBycBAHJ3Gpbgr+B4qCi+AkCC5Kl1qe97VqWsUL950fh8PjcIE2GJzbYQAFx3fTqWl1eWVVjTyjE71QMIoBg3k8oetzFMG3tk7lDiGpN2Pyr53Mu312uMfM1MXLSVXM/M23TFfO9BjpB+0w464PhAaJ9S2fS6ZFn0uliHclWw0+kJxt8Gk9k0knia+JFZY3csS3xNFsk281ccEusa8Osn2P6SwuSKXtRwYa4piid/6fXKyeS6IIjm24WIeFPHyoSJDDYcMknoUDhnFEiTVM0MbkfX/fLfCKr0B8g+Ap8Iwj4HyTKj8G3hDdVSG+srnhGj/XDFXC3tqk1uDuMtCxL8TbEhAZAWr3QlTLQtSOgfYH4LLyCRfyZEmnMNhiAAAAOGVYSWZNTQAqAAAACAABh2kABAAAAAEAAAAaAAAAAAACoAIABAAAAAEAAABPoAMABAAAAAEAAABbAAAAALQr9cwAACktSURBVHgB7Z0JlFbFlcdv700DyhLZN6MoIBrcUDSKBuIYBdEYs7kFNYo6SdTgmNG4RFE0mOgYk5BJopERHQVE4pagEk3UKAgYRZaIrLIvzdr0/s3/d+ur16+b7ta4nINnrD50v+999erd+tfd675HTkbNPmsfCoHcD3XVZxc5Ap+B9xEY4TPwPgJ4+e93bW1trW3dutXatm3rXV999VVbuHCh9enTx44++mir1c/ypctt3bp1tmPHDmvVqpWfpzN9FyxYYH379k3O+fnXdH5+/fP/+Mc/bNeuXYYKbtGihQ0YMCC5H2Nwv0GDBvk5H6ORsbnfqtWrrGuXrvXvl+3br18/O+qoo3yM12bNtCWL37Wamhrbf//9fX69evWyoqKi5B7vd9AseHfffbctWrTI2rRrY2PG3Gp5Obk25bEptmXrFnvnnXfsyKOOtF2ZCqsWgFOnTrWy8jIbftppfs+K2kp7dear9vZbb9v8BfNtwMBDrTg3EPbo5Em2rXSrbdq0yQYcdajlWiCDsWsztXbu2edqxIyV15bbY1Mfs21bt9n8RQvs8KOPsMKcAqvMVNrkqVOsdONm27ptqx0y8Asau9hKS0vtz9On29577+3gVdRWmOXkOG0bN2208uoKG3jUQKdv+64d9vyM5y0/L99em/WaVZRX2HXXXmede3Txe2zbts322muv5vHD2jbVHn744cyceXMzu2rKvUtFTWVmR01ZpkY/mmRmp44rdY62q7a8rl9tpb7blamppWeNXxP7cb5c39P4y2dadW11g7Hr+nF/xqdBA/fl/vzsqErR4GNXhH6Zqmy/jNOwvWan34Mvy2q15PqeVl5b4Z85hgb6lW4tzQwfPjxz7bXXcrrJhpjUa/91z38ln7VyycDczMHSDWhMmu9pgYAwucpa+u3MwpsFWOdou9Q/AcGBK/PzAAzRXBv6lfuYHJfXVPi9OK7O9mOStDLA0ve09NiV6umLzOLVigaBlYztC5EFWPQwJxo0+Px0LW3u/Dczl15+Webpp5/2z439yuFk5M0rr7zS9c1tt91mFRINEWstEDX1QDzzJWBF+lyu4xz9FOUUSoSqvF9xbqEPUyZRa5FTJBHPM44RdfoxnjhF4xWbCNUYlWFsXSUO1Nh5Vphb4GNrRV0MK3Qf8bgVazwaNBTqPgXqi0jnJGNXqV+1qwWmw9ioiDzRq8XSb+iGhioNXeNjV+lvRU2FleQXa+Qc0brLxRW1IGawnNwc27WlzFq2aaX7Na7dEmuLbkNZ/uQnP7EqaRytnhXUFviNd+kmEOzAaWDgBhCRLOCqE4C5KUQCnDhB12YBFjgABnAAGEFgUuhGAAY4dFlGP+gvXaHPNVag++Tq+wqdYWIOnPox4UgDwDE2iwxwAOzAxUUGON2n1gFm8WoduBZ5RT4/6AagCBw0FFmhgNsre13CX6xh0upxHmexns49IgYCWJH8XHGFfuAeblyi72rUj1XlGBAkQJabCSsMMZqbc0yliAZkn5yIAtSCnDpCpc8FQlGWgwMIEB9ogHvEZQKBhSiE02WeHKycYoN7+K6laMiBBmhNjc043LeqtsppiAYrcJng0SIDdg5gpWgoFnQZ0VWuJUOKxv9qvB100EE2ePDgBDgOEs6LZxEh5x595UTDFfqp0qoF7ilygLFkcCLAMVGI5zq4hwVA1OhfUVPlYDF5wHfxFAfBCTrlRAMC48NxmoeLDWM7cBobTgc4rqkWEIzNPYCkGM7UDwsJx0drHIFjkQG8SPeEBhYWzgQ41EJGzABw0IAKggZEFlrhRsbeWLrJHpn0SIQo+evgbdmyxaZMmZIlINcvArhadI8GZqAwMLonx3aKUFa4ToTgsgBw0JMST6Hgukc6xcVBYyB+CcA5KYB1L3SrT06rDQhBr2lyuiPfOffUBr0GDYAABXAxxzli4TodHMZ2FSFaAT6qkjxdW6grWeQazc85UwvHZ7gsAMz8xDRZ/Tfs9OHWuWPnBLTkAIMxadKkzNnnnt3A1QjugLjHLZeUK13dwkXXRUT7Z87Tr0l3QI5BdEkSd0eW0F0N3J2slcWFkOgxnCx5pVt6ejkNKZeEsbCutIY0JK4UVtZdl+gW1bk7lVmXhHGhIfTLWm2/Jlrj4Bb5jRr55ZzXrVs369q5q1g2iFoQIcl9doVdmYrV0Vc65f3QY7p5ECGtIN/B/qywi7uURlhhmZ+UnqxA1OAyrSyiVgCXiXvgbtisWLpMI8sQVbnS1u2CqOWJy7DGug8Gxjnd9V+04EFXw2WIGlwfLH1QEXCZqxLEWN8V6T7eD3HXEVzLNTjV0RBJUTmtqACnL2G5cODgtW/f3i666CIHo9ytWiCgQkYgXwRjCdFxKPcW2cnx2RWwzskrcwAAAj2CkkJnIeosBMRAABNn0hC7EwOTi2hk9SS6R9egy3whpHsCwFkxFsDoLsbxySU6StfoWiaHmEEDixeMQHClqlzcC12VsGDcs0AL4O6OqEGV4MaIx+sBDK1wC9dcfsnlRqiabu7A9O7d24mik+syCNBEIR7uAajaHOkHAVdZK+UOwHCPfrCy+eoP4bPmzLJly5eJsAKtWa27Ma4ZhTpAAhqcCaDvvbfK9u3e0/vBwXCfJEPwVNvaVeusR7futmrdauvQoYN/hy4FWO4DF2EsCnVN2Y4yK2oZaGFs+gEw43HFq4qjTxx8oh3Ut5916NHRgUp0tehKOFj3Rf+FhQhGJXAwOMh0CQviYBY8Ngdv9tw5AqXKDjvsMK2quEyrCKElOS1EokDQP6l9H1iqVeKD6wLAOKo5dufYO23Gs9Mto8Hbtmotbs31CeBI01D64cg/+uey8nJrWVzcaL+d2e/KK+XsFgbnG0Dqxqs7rtI9C/LywsB+r7rvuGbNxk22eM4/bL2MYpduXe1bZ59jw756mr6RuIsZgrtT6e4O/eFapA2AwYEFxWB1797d8lL34YYOXlVFpT2uwH7Q4Ue5O1ArS1iSK+DEIQzAigSfD/2Q9fnkNgDKZeddZNXbt9tPvvktO0a+0J7c7vvzn+3en//clq5cZlf94CrBh7ujBZJ4BimSitBRtMZwIXOHg0dfN9olMT0/B69SK1xdXe3ugCyRtcpv4VxWJVHDWDCgGwGtPfoBX5Ab3zX2Zw7chNGj02PusccX/Nu/2cG9etkPfvMbG3LiUOvdr7e4TIpF/1BTyEiRwELFVDtwQZ+imoqERD3xUW8X4EKJxvARp7lCLlHIgnhgedBlQZkGLsNAuEOr9UKvvfDcczbqK1/ZY8FqjLAjDzzQjpeEPPjgBKWjmF+wxkQUrvOcG/EnCxMc0LNvzH5jN4Ph4JHUHHTcoMBlAozwRU62WyUsHCGZ6zwNjDUtka6Y98abVltTvceLamMADjn0UFu8YKFbbU8+aF5RpxMARHcHA5rnHkGB3XjjjW4w0uMlpgPzH7MacB7+FoE5sSkc57GeWBtOxKotXrbYjUN6sIbHGIXX//nPhqeb/LytrMzmLF5c7/u3ly2zNUqafpytf8+etn3bdjeGIfkQRNIjIs3PjYXk0KMWaUDEWLlJy82vM0zQ4zqP9PXcuXPtglEXStdlPNj3cCgnmG9CFrgRY4EODPohx61qc5PaobT6yJ/+1B65/norr6qyn0+aVK97O2Vq77n8cmWgy+2lt9+2JWvW2GN/+5uN/vrXrcc++9iqjRvtfin5vprs0UrD99PfzvJJaaVK+RdK7FoqZf+vNgxdu7ZtBIqkKGsM0emEbswPI4m08R1Gk8zRuJ+NM3lr9fSeg8cewczXZ9p5me/4BcSlFXJdiqT/MBawL74O3AlwGAv8qObaZq3sG0uW2C0jR9oNDzxgD1x9td103nnJJdVyMc66+Wb/DMgvzZtnT/7977ZR+yUztJDH9u9vj7/0kv31zTf9X6ks+j5t2jh4gD1ERqpXp07WrnVrO+/LX7bjDzkkGbtKxu+WiRPtGO1ZnHzkkcn59ME6LQwJjzg/pA0nPcyPtFhw2N3bUOR0yEF148dxHAE2aNhnwJ9hEFI7hcrtB289sK87k1oBzDY6j72DChHZVHtv4waboP2EB//zP+2kww+3Evl0+3ftmnRnggX5YQE6aHNpH+07tNXmEW3e0qV27tChtk57EoDSXY7y4tWrbf8uXfz7B5591kEeIr+0dUmJnTN2rE275RY7VBs5j77wgt05ebKtlah3yXKpX9TIL4+IsLLS74RucBmMgWpyHGRlMRaoKSIQfOB0SwzGuJ+OE4/hksTUjrhMGQ5SNh4TSv8Fn4+YV45j6xIryk4+PWBjxwDXXJsrPfeiOOz2737X+vboYTeLW+/705/sglNOceAGiYOOEydOkHWnPSKALhk+3MZdfLHdcM45draARrzfXbXKrr//fjvzi1+0PhqnuQY4bgwBSxIFaMwvuGaAReSk0FT/OD92zK2NW9t4E9dlsgwMhpL0lBTsKwAZgPMATHqzbMdOw7v/OBoc8/NRo+xl6T24cI525rpJ523WDhYe/oLly+2EL3zBLjz5ZFssgJaICy9KuUiH7refbZFY7yfOXviHP9g13/ymK/vC91lccoO4J+Qi0XlwnCcfdIwXlzjLAnb1ytW7WVuXmyopcxzfgsI8t7LEmoCHwkxCFilS9BwhGXpz57ad7lh/HOAxRlFBgbWT2PKP1l66jNYvy0H4ZIj5/BUrrGfHjtYxu49Mn0Xvvef6kGMsJA292L6JrcN1CtWKigrFDCE/6S6J5haMIT5tCMk8QSp3rERBA4FEo+HZ7NmzfW/zjjvucC7DZKM84TKyxDHwJ0EAcKxW565drFgEfBxt+fr1drHCpubaxBkz7Mozz3THdr10IRwJUFhd9Ny93/tevcuJj1s1oS46yvBUKCQl2Ec14U14TO+RU42YpoXrdjaIwj5Hjo2//zeNh2erJAps8iL3ZVklGTIPMt84ifrx/J2gw3BgjZetXGblIuDjaN0/9zmbLCcU8dxVUWGHHXCAjbrrLrtAYtqpXTvbISBwU4rFnVjjXeKCe6dNs7OOP96+98tf2vES6cH6l247ZcHh1uYaaipwWXBJyCOShmd+cGMh3oaMBcwU+Ln+aG4wukpXjBgxIoiuxDMqSVaXXSSAq9BuO6uDouWmRfnK0en7D9s2S0fFRppnptylUapQQDRay3dj0VrJkmrf1S7V+SdeecXFFj/vCnHguEcesYHyEXcJ2FvO/04cKvkLwM0ZKkDLkGYTWFFNBZ3e+D7H5rWbdzMYrvMIzwK6IdHoHrWMBDl9H1gmgv1NzzxoRfCNyDw3R1wyi0YOHn/5ZbeKXz7iCP8W0btpwgSbeO211kepn+/IsX5BtSs3nX++fb5zZ3tizBgbOW6cGxFcl6u+9jUbJporpasP6tUr0XPpW718zz3W9X1cFXbJnMswFporXEYi1vcvxERKD2j+IWg4Qx6ANsDTt1CPbMOykPwkr4c1Re5pOMtwYnBjyNCGzErpti1W2Yyfh8uBBW2snTZokJ2qgpvo5+HfzbjzzuTz2Asv9MhhL3EeravE+gn5cYUS29gO0NZBc627rHVzjXnAeW4oNT98vl3V5TKyGc2XdBxJX3bngmtWXBI4FBxi8yPCs4cmPuQhCWjHXSTknlUIVjYYi5BZqbaWrVtac64AwOB2NNYQ0whc/D79GdGMwMXvi5T5iZY0nvuofwEuT0YnGgttO0uMs8ZC3CgvzxkKN+YyqQg4M90cvPdk6v+mmFJ1H+qu/B2rkHKWEWN0RDAWtS7ic2bO/tgD9jRhn+Txtp07bbtUBQ1xdTWFscgaQ9fpOvYISwwEt5005Mv1UvBc6+Cxe9a6Delz+VLKb7mzLPOCAsVYEJRxTGMVuMmJJ5xobZrwo7zjHvwrR5zfvl1b92MJyZC2Iv2gtkhRkV1C2sqqd2kWIWhobDoOHkV/N1x3g3vYRBIoUQYjjo2roDHcfHtmRQP37nuAbZC/9Wlss1Sc2UGOdgzJUFNYdxgDnw9nmdAtJ0+pOfm7AHzXPXe55U/P18GjiI9/dMK6kiCQH+KrwMVYV4xIUpUkXdG5e2frLt/rtw0sUHrwPfV4urI2Rw06JoSc2WAA4PC8EGNwSJd1INZvvfGWkr/1w1EHj0kCWkgGYl2CeOZrBZJdpFr5RNmB4Uis0LfPPccefPEFe+mtt/ZUnHaj66fyD7fJS/juv18slqC0JGyz4rPGso7ympAA5mIkDxGmbLhheOZVUljbyVMm2x3j7tBQGAu5JEIQrmN3nb3QsJtGzBt2mzAqhG6/H/87m3j/A3asRP+Egw/2xOVuFDdxgmjhc0pFNdW2SLHT2rRs2VQXW6HQrodSVk01VAv+6CxltGcoc7NT3HPj7WOsX/+DXHfDMGGXLLgk+HkYTXQ/82OeWGOYq6G1dT+PZOiO7TscOJAmtnZZx1jgLHvIEsoUPGWDNfaBc+x7l/27fWnIl2zigxNtwiuv2FaJ8V5772Wlmzb7fGIMoiGdoznJMY3998j6zfXju3hNw+PcPO0R16ClQ2vYr1RhZ8cO+2jzvKMdp0zMSGXLQ5otGEOvEhCTsNuLh8H8QmYlW5gk4DAoiHKJ5p1uDh7J0BXKVlDC5bGekp2IplcOaWAcSlYE9sVhBrio/9gU79m7l425ZYyPG9mcvvTDgmGp0Ruks+FgFDUbLYi+O6fuFmlsV9RKgSsk87BJ/RiD7E6ggbKOYAmxiuioIB2hrINraFwDndCALgNZ+jE/7s2xGwvNCR0XavuyCRBxnGrCHGDG88yK4Itj+w3iL8m6N03Oq4VUj+GF2F4jnK3P9drfWJWUrhHOVhtVq+KJRk1vrBHmGqqeaD62jsX62aokVUZlx04Xa1MtFWuEBXQoBNc1NMZSVseP+cv4tFjxlKahXkVXLARXpRZzUo4yRUOogS5TnXJ5LFpPFZmrtCSzTddIbWXOP/98FUQEWvzG+hWlRjIU8vaAih7wxKAEmXJWRCJyT8g8hJgX3UjqitRO4LLsPq9WGNH3oiAMkT4jDjlKtNIvTxyRGCI4IWuI4E6O0UEeY7pClwuhayDCi4IULpIshz64J1Q8BRrYpAqFSSrcEd00xoNmOMi9CA0U4ldoYLMnqCnmgWgyOv2goVJBg8e8mBbtnFGrkm4OHgbj9ddeVxc2uxvsIkmEfBfJCdBmsLO5KidFnCtWAexJBaGF88zNa1SuoVSjyAylWaR5ECGuCRtJ1B8j8IhnDIeChXNHVaMwMSYUVEnIITI5XCb2WLGUqIjg0AaLydjQ5CCo8sHFUyCQh0SMMYb4sSw2nwGewN8BVj/3NjQCKgJaqYHxClJdP1DPnDS0tg5eudI6KnB04LgwEB30CDvnUT8ADpNTaaHiZw2s77iJV5izwlkuox+cB5eFohkcUHGCEyqAxT1MMBLN5ChnwJ9k8bD0cBabLixEHZdJ9+g+0BAsYeQeFiKEj4zNwtRlwal8kP4TqICNr+aRExyc5Ua4jPs6DVoAOJ17OKfD5yJo1HdHNR6eFcuU5+RT2ZS1spoYQRm7ZKyw71+4eGZXWNIOqBDp1QTiLCdAQDrAWRAAw42AgHMLp35uiDQ2XOErrO/c35KiJqsR9008q6HxI6c7l8E9TM6vCQF9oAFDRBJTXCbOhKucbqkL/vI5GouSfOUIs/2CsagrLfE6RBZZK+95TIHLYtCvseac11GhyiWXjlKnAicA4lgd5zJ0lH6ijoItmDhcBuGAhXhyTX5GnICF0wqzEs7BWlHcHcYLukyWUFwAsEH/sRDyJwVoyGqEsdFFMbvDeGwFuOjrPmEhQj/nYF0PcMFHi1Y2ZH/DIks89YPF9EWG03WNp+Hd0gePwAscNU6QCHYLQxyPOpvw8ITdkqEO3r777msH7Lu/Jhx0HjcMK4wyTesHMg9wT43xbAYEsLIhtUOxNisc9kEhlBVGueOEsBAADBfgR3k/VIRAJfkQyzpY4cDpgQbEk4YIMRkWzUHQuGG8oP+4xvdacDUSgAMNjA8nwemIp9Og5eOYOUMD1+NKwWWogMhA4ID/N/3p6Y0bDKdOv3zPVlOt0w+sgiYHl2kXCQ6By3yFRSTcCAG5sLn3Q9xDNhpxZuKsYqGCbucy/XUREqH083BIYwMklpkVdl3mnB44mBweYEFDwsFZGuDEkDbSIusn0hB0mYATDdy3UDTkKWPk1rgeBwcpQoLgYOhxo6lrmFtaijapSLKhwUjCs+dfnGE/vHq0ANIqSFfAXb6LBAE1qk/TZgiEMjm4zfsJOHk4AQT1nzV7pq1bsdbDAYhBLBB5h1TGAmKWr1xhnbt19mMWzfvRS32pB1z13mptvBRYh84dBBHXSJXoWqw4ZbQb1m+wtvu0FVR6VlL0ABRVnnWlvDWuFtTBx54za7aX1fY6cF/r2bOXMwPZ8uCS4FRnmQGJ0PjMj5q9qKtZABavvFIcmy9dKgaIzSMMwrOl7yxxQNzVEBBBPAWcWLZI+xeoYFg5ZF6jsQj5/TG3jvFaPYUG1kYpddI7MUziRhii+DmWzIbzdSWwfKbxPX1bFAeDwjlAhLNo6VJbPqfHTveL51erJmXh7Lm2QXu1XZW3POvb37STRwyzlvkxcorF6IHTASe6O3C6GyL9rcmXMOMGpJqDR3jGA8jRCET2LZM4AQPAoW/kVAvgrAiJExDjkeeea1WforLaX911t7h7lV3xgyuCihC3BVUSsuUtpB3TOGCIYBoK3RsmBpJnz1CS6AQUpsebAg4uc1/HlWlYBQb2xw20PuPG3mHzZ860//mUlNXCNLP0gCJltb/47XjrfwiZFUUWkrQqqapETSFt0uGu88Q0cP0Vl/3Afqk94rTYJgJMrVoIuvHCsbLBwrmxkP7CcPgqKNdV6C5JnlfAX5qqGUlx9B57GMtqH5n4UABOc4uWngLGsI8T3R2scTCASF2j4RkzRcfFXaQkZBFcAAk34mpgzvOUAsLVeHX2LE8F7ekV8I2tYiirXeTWOLg7wakm9MvX/HCW3d2RNLqaEmdmtCVJ+ivd/BOx7TXXXONOLwYjOr6Y+SjGHrLIKsLmuCorVixL6unSA3LMKlGs+K80NrnTjVJa6vQ+iUZZLeUlHpK5msJYhGdKmC8eAFYc39CjFs3317/6tbs7aXoSa8sLDNzXwd8Sl7mVlduSRBaSezgTcDOKN9EHPKzSWAO8Ox991EvBvqZ6kotVd9Kw/Uwb4lQ6UflJye1F2vT+nXRnJ53bom1Bys2oRx6p8n/2calVoVEUSQY6ltc2HPeDfMZmUlaLBFEbimuGnnL9J9Dw+3BPgt8pO5ANBhqOnVjbTXqmFI6LIUuwsmEXCfTdUZV/VC74eDgY5wPXoLH2v3/5i92tTeLh111npx1zTL1yWvpfplKIMhX00P4+f769nOXSqSrDQKTeWrLE7ldxI42F+PoJJyTgsRBL1671UorhgwbZmccdl2ygU201/oknbNHKlba3UvejzzrLyzF8oAa/QllteHSUh3Zi+gw1FcPCED6G0HT5yuXWvWv33Q0GtSqjrxrtppiLQ8gS0kFhFykE3VU5YWMYJ5lQJvpeDeiysQ8/bL0UL792773u91FOm/5Xknp3CTozlucu1yZLB+1prBdnDRMwJ6mWpVT7GAfvu6/fggrS5+fMcY49UgXet06cmOze4cedpLpngKeUg88jxc1NNWgPyYeQZYERGoZkXIvVhRMvvvgSMWfwNeOY9eTOUzZaafw3Txtlc2JC0/UcgZubb+mAD9LerxCoQpVM16uS83c//KG1UDnF76+6yuZJVFsK3FMGDvTNoRvlR97y4IN+u0dffNELvel/xVe/amP1pOYfVPdMK9Y1A/QA4u8l+hfKA7hd31GXvF2lZg0bxY24HOg8pA1mgMtw0ZgfhhGhQtqItGAUytV4SirdEoPx/It/ceUIcIgpj1ER6IeB8fliYpDMcsa2l26zCumqj9KoP/mTirGfVXHlYL3B5yn5jEyKyk+MBSu9VZz333rrBuJLtfw3JMKUoNEoxwUgGuce+fGPk4rRV+X0syAsRMNGcSNuSVBT2fhcMw0+LeXEiukFHDhgHHlJxNjbxu4W2zp4O0XgND24FwJ/kpi6gGp4gcfqoAe5UQjdgv5rq3KFwgJXmQ1p+5c+81QjhueLEl+eqyjR571VHUUle1+Vm5HNpQgIIwGQaddooTatqF1u2KZrMW5WyRqF4WmntmE/uIy5ormZewWpXYkoohqlDWMBRx54cJ/dxvLZt5RybVHUwrnMA2PnMqWNPEscxDjspmGFQn5/45bNqo+rz8YNifsgn78xZoxb1+b6EhVcfOqp3gUQO4hzaOOfesooV0u38U8+abdJF14vcYdLm2roPM8hCjo3FuKyam05sH0Ax7uxqMWnDan7xoyjg9dFzzdcTpWlVoGnYKKSJBTzzW4NWq4fgmTEmDretlLsFGF/1Ib+wjWh6gAjcd8zz7glvuTUYfbXt940nrWA++BQxPm2hx5yMb5dO/+rNmyw/5F/SntaIk+p7TwZjN4yUFyD6PfPGps0nTx7Szo+VsOTXOXRAbiPLFCQNm1mqfo17HPU2I9HX2d3ygClOdnFtocKETt276jxFYpoAPy94CwHLgvPpDJwUKzcjED5wzQeNd8kBzU2rOK3b73VqA5Ab6EHAYrXc/xabgdgkS+k8QQRRTp9JI7ov3u///3kYWaAe1elcmfp3ScDpAsn//Wvdsq119ox6kPlabrBuTmKFgCLRqzOPkcATsZCDQbCaMbcIG9YaxieJQiEF8rgBIealchlwdcR+0qUSVoyqWL9kOdqjJX9zk38WiZX5Ouq8OThl26q9qSNVpD+Q/ljpx97rLs4k2RRr9azZ1SLTtPjVVeNH2936bUlPFsBF/79F/faQuUEj1DRd7pSdMoNN7jYRWPC2IC2Ur5fY+UaiG20svz1/Qs5ywQAUYzZD8Hno2+LViWWJ7rTLUmG8gq3sbePVWTB+0rC/quHLFLmhCnoh4TNBdukqZNt6u8n2MM/+lF6PD8mtGoqAsA9gbtiSz9GxWRxB3jGLN0a5vDS332Y47nvvms/0vNw0557RlwNl9VlVogyaOCA9YVpyLADdTAkdXd0KEmG8mIa36uUOJLfwudTet/3SDEWsDDcKNwSgOuGqX/UFHD0SgPH53Q5bXz2jPPpFt8zkD73UY5xVcgMow0AznfTNF84jobO830OBy4bNChUbdhc55EM7dS1k7NxkhhU1jSGLACJqwL7MjCcOVvp7Y/7OdiGxH1Sn0NZ7U7NiWBAxhDgxBi4ZIhqvZ06cQu6cf2G9Y3vnhGe3XTDTc6W+DnpXSTfB5W/F3aRQmKQTehjj/+iymrDI06f1CQ/qXEpq91HD8egsysFF/ouGkMYxJ1lSRreBpyJs3yuXJ+aBml45zyI5KIQ69XfReJVVHE3jZuxClhiymo3lm75pOb3iY4by2rdJcnOj5DMnWVJmDOQZslcSZDAme0/p4ekqymKq2sOHvm8l155yX2aGOv5FqA7y2EwgKOCACvL7tP+PT9v3T7FZbWHHX2kMwwA8awJ8+IYLsNVY2M1WmMKk4Z+aWjj4VmZnu1/VPk3whXEE6RxBt3X0UCJGOsGOJPoRQY+65xv2US5Fp+2stqt1VV22fcvDzrPfdpQ+eA6XSUfbiw8NKXqIOQxR16we6jn1rZEsSThWWIsxGUNd5Ews1QG5EsHuM8nNh922qm2YfU6u/q++z5QWS2OcGM+VxSE5spoG177fp/jmA3Lando8/7G22+V8xVKSxDRdPFQvqIK1BSuGQkCPAx0H2IdxDjRdKo8UaMqlMZrbnlpFRdwIU9AojABC2cZX6duUzw7sNj8zQVv2pSHp9iieW/L5Sm1NgrdNqusFh1CC/GBezlNHtOP/uzYscnd8JpchVvRw+c73CguiP3Y+kY/ZU/ry/BdLKvt1LGTHXHM0fadSy7w+bERj/tF8gOw8OuwBy7GOkaMYxUrKuzyCy61+++7v1545pxHeOZbikLXA38BErYXyd/hJNYVzaAPyHFh5tGDiHj/Pv3t0JsH6Jh9gCDuoWgmJBqZCMRxDRP0qEUEk/JibBOhcT+47iWoeuBY4yEN/OOYMI0xgkcQihVJVfFGNBY8WkxXOeItuIXwqqVqADGG/vys9BoQo4rYbojGENQBzucneghTY0qK+7co1hhKwaVfQu08uGbNGntKATkmGl1GTh8rm+wiZScXMyvxaRlAoE+SQBQFrieJRkQcE4U7wg4VuwVKKqBPdRTfpBNzZ1W6R93DwfQL1aRBlQTdw3iEjywMho3G2F6YxNgshAD2iEhcBXAuRYKBAL9IVQLRCLgUaTwy5wSaiC7AAThzgFaOieFXL1/lxiINnN8csaWdccYZme3bt4d3D2freGONMC+LpuaXml5xqPf3+uOk3reqrv5Ydcrx7Ylifa9z1mL4NQIuVUsc6o8Fno/J2BW6lqbsjt7IGN67zF/erBj77agt8xph+qXfk1yefY8z5wW81zZDK9dBq+JyvgrvU07qmaucVuZGP+iGRpo4PaEVGqhbpk+6JdqPR6ie+8tznsuKsR7igTiR3/L9W7Gycyb6QUf0Y3V801jHsDkrDCfQDzFGNAL31JWHIfaMzQq7hROX4XjXvQSVjWY4QXpJ/+BS5zL1Qzqcg0UDjesYq0acRpQQXA1FCd4rcHrIggcxToosEWPR6qUlml9QJUFyCFNlDHw83DIkjjkFjeq39V9JuQXveu+2X3e/AP2HjoLlnc2lU/jLZBEnf/ecvvN9DokoE/XtSgqq1cdfoSvx1N1cdLk9fREN9GR8FB9QIRpDwb1wvqPBQoQAJQbn26v1kkFlt/mM6GMwoqhxXSLG+g7gKPmlH82NAPZTqXd8VQCOqsR1uqIMJVO0ENqTVskwg/tuoWhYuXaVrVy8zAYfN9jHSv9KOI+3N3IBk4ty79yTcFlYYdUL6SaBAMw5CpeY0FfOkwphH5Rx0FFpbgRMiKasI3IjBgbgeKcTupYV5tpKvSI4vkXSdWsWOABlTICLIBSoPhpaods5XWNwHKtY6RdefZktMheQbixkDMu0KJJGBw4aMgKOBWKPg3vdeM2PbcHbC9KYJccJePHMs88/a09PeyplBOAeDaafaASEga8qwIV9DogJziRcAJuzEDyMEixmFOOwH+JlHSIslHVobBFN2T6JCF8wuEfpb/rB6bRgiESDRmdRAJjwCrCdBl3DtcGoUI8qUctGRGTIWXA3AuJvOBPwAZgnG6GV/7EA1eTb4FpQvI03Zs+xDvt0sNOy/9OCE5L6lYhtPPemdvDHKwHZtUc3u/I/rspyYwCBm0AAgMBtTAjuq5Fv6GCJYCYECAAM0bzYz90BndeyarLh5X6sKhyHbPNcayyeRE+m3Z346nIsYhibfBu6TC8GE6fHhah753uwmLgnDjAL4RLBQqhEV4sMwNw/ZIlZCNwi3g0f1MLa0nXWRmkrXwi5JwVNbDfsBp7G0TtHKvxlBCNOH+HG4vGnptk7C/5pB/Y+0FbrJajV1TV2/LHHWd+D+wq6Wnvuyek2Tzv/+/XZz752+pkBYAHyzJNP2/o1661j5472lRGnOKhT//i4rVi10np26W5Dhwy13JZ5zgnP/PEZvbD1dTtUFQNnnv5V13/Pz3jOtm/erpxfgXXq1dUOH6D9DI0+5Y+P2cL5i6y/XqJ68vCvOJexeI9Pe9zeXjjf+vXpZ2eMON0XefpTf7bNGzbZ3u3b2HEnDNament3d6Y+/pjeobfY+mvXbuiwkyxXOm/c2HG2SA/4nTzsZDvnG2cDRbOtfl452xV/Rq5L3YXVGdu2ZZv/ByKbNytyEAfRKD/N1+GSJUts7erVXkEFZ9Ly9N3SxUv9Pwzp1LmT+16c365x1qxYZVU7K2zIl4YIuJB8xWCtUxnF0sVL6OYLgO//7uJ3vTqpx+d7OHB8t+zdpVqUtfaOQD0ld5iHWpx/55/v6E23a6zdXuHdBkQrcP5SbQS13tTahp4whG66Y64tlxFYI5qJhrDGRRproDbaD9dLw07RO6w+SGuU8z7IhZ/1qXti8zMsPgQCu1nbDzHG/9tLPgPvIyz9/wHvfzhSZS3TkgAAAABJRU5ErkJggg==;" parent="1" vertex="1">
          <mxGeometry x="1365.1" y="1200" width="79" height="91" as="geometry" />
        </mxCell>
        <mxCell id="kG0iY3HcZwcLajI_eg3o-82" value="" style="endArrow=classic;html=1;rounded=0;exitX=0.103;exitY=0.532;exitDx=0;exitDy=0;exitPerimeter=0;" parent="1" source="kG0iY3HcZwcLajI_eg3o-53" target="kG0iY3HcZwcLajI_eg3o-81" edge="1">
          <mxGeometry width="50" height="50" relative="1" as="geometry">
            <mxPoint x="363" y="1180" as="sourcePoint" />
            <mxPoint x="413" y="1130" as="targetPoint" />
          </mxGeometry>
        </mxCell>
        <mxCell id="kG0iY3HcZwcLajI_eg3o-83" value="&lt;font style=&quot;font-size: 14px;&quot;&gt;第43口接入AC&lt;/font&gt;" style="edgeLabel;html=1;align=center;verticalAlign=middle;resizable=0;points=[];" parent="kG0iY3HcZwcLajI_eg3o-82" vertex="1" connectable="0">
          <mxGeometry x="0.1427" y="-4" relative="1" as="geometry">
            <mxPoint as="offset" />
          </mxGeometry>
        </mxCell>
        <mxCell id="kG0iY3HcZwcLajI_eg3o-84" value="" style="endArrow=classic;html=1;rounded=0;exitX=0.653;exitY=0.921;exitDx=0;exitDy=0;exitPerimeter=0;entryX=0.5;entryY=0;entryDx=0;entryDy=0;" parent="1" source="kG0iY3HcZwcLajI_eg3o-53" target="kG0iY3HcZwcLajI_eg3o-80" edge="1">
          <mxGeometry width="50" height="50" relative="1" as="geometry">
            <mxPoint x="446" y="1238" as="sourcePoint" />
            <mxPoint x="305" y="1282" as="targetPoint" />
          </mxGeometry>
        </mxCell>
        <mxCell id="kG0iY3HcZwcLajI_eg3o-85" value="&lt;font style=&quot;font-size: 14px;&quot;&gt;第44，45口接入&lt;/font&gt;" style="edgeLabel;html=1;align=center;verticalAlign=middle;resizable=0;points=[];" parent="kG0iY3HcZwcLajI_eg3o-84" vertex="1" connectable="0">
          <mxGeometry x="0.1427" y="-4" relative="1" as="geometry">
            <mxPoint as="offset" />
          </mxGeometry>
        </mxCell>
        <mxCell id="kG0iY3HcZwcLajI_eg3o-86" value="&lt;font style=&quot;font-size: 16px;&quot;&gt;192.168.120.0/24&lt;/font&gt;" style="text;html=1;align=center;verticalAlign=middle;whiteSpace=wrap;rounded=0;" parent="1" vertex="1">
          <mxGeometry x="398" y="1055.6000000000001" width="140" height="30" as="geometry" />
        </mxCell>
        <mxCell id="kG0iY3HcZwcLajI_eg3o-87" value="&lt;font style=&quot;font-size: 16px;&quot;&gt;192.168.121.0/24&lt;/font&gt;" style="text;html=1;align=center;verticalAlign=middle;whiteSpace=wrap;rounded=0;" parent="1" vertex="1">
          <mxGeometry x="290" y="1220" width="140" height="30" as="geometry" />
        </mxCell>
        <mxCell id="kG0iY3HcZwcLajI_eg3o-88" value="&lt;font style=&quot;font-size: 16px;&quot;&gt;192.168.121.0/24&lt;/font&gt;" style="text;html=1;align=center;verticalAlign=middle;whiteSpace=wrap;rounded=0;" parent="1" vertex="1">
          <mxGeometry x="1334.6" y="1291" width="140" height="30" as="geometry" />
        </mxCell>
        <mxCell id="kG0iY3HcZwcLajI_eg3o-89" value="&lt;font style=&quot;font-size: 16px;&quot;&gt;192.168.123.0/24&lt;/font&gt;" style="text;html=1;align=center;verticalAlign=middle;whiteSpace=wrap;rounded=0;" parent="1" vertex="1">
          <mxGeometry x="1258.3" y="1592" width="140" height="30" as="geometry" />
        </mxCell>
        <mxCell id="kG0iY3HcZwcLajI_eg3o-94" value="&lt;font style=&quot;font-size: 16px;&quot;&gt;192.168.120.1&lt;/font&gt;" style="text;html=1;align=center;verticalAlign=middle;whiteSpace=wrap;rounded=0;" parent="1" vertex="1">
          <mxGeometry x="1325.6" y="868.37" width="140" height="30" as="geometry" />
        </mxCell>
        <mxCell id="kG0iY3HcZwcLajI_eg3o-95" value="" style="verticalLabelPosition=bottom;html=1;verticalAlign=top;align=center;strokeColor=none;fillColor=#00BEF2;shape=mxgraph.azure.mysql_database;" parent="1" vertex="1">
          <mxGeometry x="1861.5" y="1395.03" width="32.4" height="45.5" as="geometry" />
        </mxCell>
        <mxCell id="kG0iY3HcZwcLajI_eg3o-96" value="&lt;font style=&quot;font-size: 11px;&quot;&gt;MySQL&lt;/font&gt;&lt;div style=&quot;font-size: 11px;&quot;&gt;&lt;font style=&quot;font-size: 11px;&quot;&gt;192.168.100.101&lt;/font&gt;&lt;/div&gt;" style="text;html=1;align=center;verticalAlign=middle;whiteSpace=wrap;rounded=0;" parent="1" vertex="1">
          <mxGeometry x="1824" y="1453.3" width="110" height="30" as="geometry" />
        </mxCell>
        <mxCell id="kG0iY3HcZwcLajI_eg3o-97" value="" style="image;sketch=0;aspect=fixed;html=1;points=[];align=center;fontSize=12;image=img/lib/mscae/Cache_Redis_Product.svg;" parent="1" vertex="1">
          <mxGeometry x="1853.38" y="1529.5" width="47.62" height="40" as="geometry" />
        </mxCell>
        <mxCell id="kG0iY3HcZwcLajI_eg3o-98" value="&lt;span style=&quot;font-size: 11px;&quot;&gt;Redis&lt;/span&gt;&lt;br&gt;&lt;div style=&quot;font-size: 11px;&quot;&gt;&lt;font style=&quot;font-size: 11px;&quot;&gt;192.168.100.102&lt;/font&gt;&lt;/div&gt;" style="text;html=1;align=center;verticalAlign=middle;whiteSpace=wrap;rounded=0;" parent="1" vertex="1">
          <mxGeometry x="1824" y="1577" width="110" height="30" as="geometry" />
        </mxCell>
        <mxCell id="kG0iY3HcZwcLajI_eg3o-99" value="" style="image;points=[];aspect=fixed;html=1;align=center;shadow=0;dashed=0;image=img/lib/allied_telesis/computer_and_terminals/Server_Desktop.svg;" parent="1" vertex="1">
          <mxGeometry x="1974.3" y="1397.02" width="42.599999999999994" height="54" as="geometry" />
        </mxCell>
        <mxCell id="kG0iY3HcZwcLajI_eg3o-100" value="&lt;span style=&quot;font-size: 11px;&quot;&gt;MongoDB&lt;/span&gt;&lt;br&gt;&lt;div style=&quot;font-size: 11px;&quot;&gt;&lt;font style=&quot;font-size: 11px;&quot;&gt;192.168.100.103&lt;/font&gt;&lt;/div&gt;" style="text;html=1;align=center;verticalAlign=middle;whiteSpace=wrap;rounded=0;" parent="1" vertex="1">
          <mxGeometry x="1940.6" y="1451.02" width="110" height="30" as="geometry" />
        </mxCell>
        <mxCell id="kG0iY3HcZwcLajI_eg3o-101" value="" style="image;points=[];aspect=fixed;html=1;align=center;shadow=0;dashed=0;image=img/lib/allied_telesis/computer_and_terminals/Server_Desktop.svg;" parent="1" vertex="1">
          <mxGeometry x="1969.3999999999999" y="1522.5" width="42.599999999999994" height="54" as="geometry" />
        </mxCell>
        <mxCell id="kG0iY3HcZwcLajI_eg3o-102" value="&lt;span style=&quot;font-size: 11px;&quot;&gt;EmQX&lt;/span&gt;&lt;br&gt;&lt;div style=&quot;font-size: 11px;&quot;&gt;&lt;font style=&quot;font-size: 11px;&quot;&gt;192.168.100.104&lt;/font&gt;&lt;/div&gt;" style="text;html=1;align=center;verticalAlign=middle;whiteSpace=wrap;rounded=0;" parent="1" vertex="1">
          <mxGeometry x="1934.3999999999999" y="1577" width="110" height="30" as="geometry" />
        </mxCell>
        <mxCell id="kG0iY3HcZwcLajI_eg3o-103" value="" style="image;points=[];aspect=fixed;html=1;align=center;shadow=0;dashed=0;image=img/lib/allied_telesis/computer_and_terminals/Server_Desktop.svg;" parent="1" vertex="1">
          <mxGeometry x="2089.3" y="1522.5" width="42.599999999999994" height="54" as="geometry" />
        </mxCell>
        <mxCell id="kG0iY3HcZwcLajI_eg3o-104" value="&lt;span style=&quot;font-size: 11px;&quot;&gt;Tdengine&lt;/span&gt;&lt;br&gt;&lt;div style=&quot;font-size: 11px;&quot;&gt;&lt;font style=&quot;font-size: 11px;&quot;&gt;192.168.100.105&lt;/font&gt;&lt;/div&gt;" style="text;html=1;align=center;verticalAlign=middle;whiteSpace=wrap;rounded=0;" parent="1" vertex="1">
          <mxGeometry x="2054.3" y="1577" width="110" height="30" as="geometry" />
        </mxCell>
        <mxCell id="kG0iY3HcZwcLajI_eg3o-105" value="" style="sketch=0;points=[[0,0,0],[0.25,0,0],[0.5,0,0],[0.75,0,0],[1,0,0],[0,1,0],[0.25,1,0],[0.5,1,0],[0.75,1,0],[1,1,0],[0,0.25,0],[0,0.5,0],[0,0.75,0],[1,0.25,0],[1,0.5,0],[1,0.75,0]];outlineConnect=0;fontColor=#232F3E;fillColor=#E7157B;strokeColor=#ffffff;dashed=0;verticalLabelPosition=bottom;verticalAlign=top;align=center;html=1;fontSize=12;fontStyle=0;aspect=fixed;shape=mxgraph.aws4.resourceIcon;resIcon=mxgraph.aws4.mq;" parent="1" vertex="1">
          <mxGeometry x="2094" y="1397.02" width="48" height="48" as="geometry" />
        </mxCell>
        <mxCell id="kG0iY3HcZwcLajI_eg3o-106" value="&lt;span style=&quot;font-size: 11px;&quot;&gt;RabbitMQ&lt;/span&gt;&lt;br&gt;&lt;div style=&quot;font-size: 11px;&quot;&gt;&lt;font style=&quot;font-size: 11px;&quot;&gt;192.168.100.106&lt;/font&gt;&lt;/div&gt;" style="text;html=1;align=center;verticalAlign=middle;whiteSpace=wrap;rounded=0;" parent="1" vertex="1">
          <mxGeometry x="2063" y="1446.02" width="110" height="30" as="geometry" />
        </mxCell>
        <mxCell id="kG0iY3HcZwcLajI_eg3o-107" value="Dev 环境" style="text;html=1;align=center;verticalAlign=middle;whiteSpace=wrap;rounded=1;fillColor=#fff2cc;strokeColor=#d6b656;gradientColor=none;sketch=1;curveFitting=1;jiggle=2;glass=0;" parent="1" vertex="1">
          <mxGeometry x="1973.8999999999999" y="1296.8" width="60" height="30" as="geometry" />
        </mxCell>
        <mxCell id="kG0iY3HcZwcLajI_eg3o-108" value="" style="rounded=1;whiteSpace=wrap;html=1;fillColor=#d0cee2;strokeColor=#56517e;" parent="1" vertex="1">
          <mxGeometry x="2270.6" y="1270" width="470" height="360" as="geometry" />
        </mxCell>
        <mxCell id="kG0iY3HcZwcLajI_eg3o-109" value="" style="verticalLabelPosition=bottom;html=1;verticalAlign=top;align=center;strokeColor=none;fillColor=#00BEF2;shape=mxgraph.azure.mysql_database;" parent="1" vertex="1">
          <mxGeometry x="2363" y="1394.5" width="32.4" height="45.5" as="geometry" />
        </mxCell>
        <mxCell id="kG0iY3HcZwcLajI_eg3o-110" value="&lt;font style=&quot;font-size: 11px;&quot;&gt;MySQL&lt;/font&gt;&lt;div style=&quot;font-size: 11px;&quot;&gt;&lt;font style=&quot;font-size: 11px;&quot;&gt;192.168.100.111&lt;/font&gt;&lt;/div&gt;" style="text;html=1;align=center;verticalAlign=middle;whiteSpace=wrap;rounded=0;" parent="1" vertex="1">
          <mxGeometry x="2326.2" y="1446.02" width="110" height="30" as="geometry" />
        </mxCell>
        <mxCell id="kG0iY3HcZwcLajI_eg3o-111" value="" style="image;sketch=0;aspect=fixed;html=1;points=[];align=center;fontSize=12;image=img/lib/mscae/Cache_Redis_Product.svg;" parent="1" vertex="1">
          <mxGeometry x="2357.38" y="1522.5" width="47.62" height="40" as="geometry" />
        </mxCell>
        <mxCell id="kG0iY3HcZwcLajI_eg3o-112" value="&lt;span style=&quot;font-size: 11px;&quot;&gt;Redis&lt;/span&gt;&lt;br&gt;&lt;div style=&quot;font-size: 11px;&quot;&gt;&lt;font style=&quot;font-size: 11px;&quot;&gt;192.168.100.112&lt;/font&gt;&lt;/div&gt;" style="text;html=1;align=center;verticalAlign=middle;whiteSpace=wrap;rounded=0;" parent="1" vertex="1">
          <mxGeometry x="2328" y="1570" width="110" height="30" as="geometry" />
        </mxCell>
        <mxCell id="kG0iY3HcZwcLajI_eg3o-113" value="" style="image;points=[];aspect=fixed;html=1;align=center;shadow=0;dashed=0;image=img/lib/allied_telesis/computer_and_terminals/Server_Desktop.svg;" parent="1" vertex="1">
          <mxGeometry x="2486.7" y="1392.02" width="42.599999999999994" height="54" as="geometry" />
        </mxCell>
        <mxCell id="kG0iY3HcZwcLajI_eg3o-114" value="&lt;span style=&quot;font-size: 11px;&quot;&gt;MongoDB&lt;/span&gt;&lt;br&gt;&lt;div style=&quot;font-size: 11px;&quot;&gt;&lt;font style=&quot;font-size: 11px;&quot;&gt;192.168.100.113&lt;/font&gt;&lt;/div&gt;" style="text;html=1;align=center;verticalAlign=middle;whiteSpace=wrap;rounded=0;" parent="1" vertex="1">
          <mxGeometry x="2453" y="1446.02" width="110" height="30" as="geometry" />
        </mxCell>
        <mxCell id="kG0iY3HcZwcLajI_eg3o-115" value="" style="image;points=[];aspect=fixed;html=1;align=center;shadow=0;dashed=0;image=img/lib/allied_telesis/computer_and_terminals/Server_Desktop.svg;" parent="1" vertex="1">
          <mxGeometry x="2491.2" y="1515.5" width="42.599999999999994" height="54" as="geometry" />
        </mxCell>
        <mxCell id="kG0iY3HcZwcLajI_eg3o-116" value="&lt;span style=&quot;font-size: 11px;&quot;&gt;EmQX&lt;/span&gt;&lt;br&gt;&lt;div style=&quot;font-size: 11px;&quot;&gt;&lt;font style=&quot;font-size: 11px;&quot;&gt;192.168.100.114&lt;/font&gt;&lt;/div&gt;" style="text;html=1;align=center;verticalAlign=middle;whiteSpace=wrap;rounded=0;" parent="1" vertex="1">
          <mxGeometry x="2456.2" y="1570" width="110" height="30" as="geometry" />
        </mxCell>
        <mxCell id="kG0iY3HcZwcLajI_eg3o-117" value="" style="image;points=[];aspect=fixed;html=1;align=center;shadow=0;dashed=0;image=img/lib/allied_telesis/computer_and_terminals/Server_Desktop.svg;" parent="1" vertex="1">
          <mxGeometry x="2613" y="1515.5" width="42.599999999999994" height="54" as="geometry" />
        </mxCell>
        <mxCell id="kG0iY3HcZwcLajI_eg3o-118" value="&lt;span style=&quot;font-size: 11px;&quot;&gt;Tdengine&lt;/span&gt;&lt;br&gt;&lt;div style=&quot;font-size: 11px;&quot;&gt;&lt;font style=&quot;font-size: 11px;&quot;&gt;192.168.100.115&lt;/font&gt;&lt;/div&gt;" style="text;html=1;align=center;verticalAlign=middle;whiteSpace=wrap;rounded=0;" parent="1" vertex="1">
          <mxGeometry x="2578" y="1570" width="110" height="30" as="geometry" />
        </mxCell>
        <mxCell id="kG0iY3HcZwcLajI_eg3o-119" value="" style="sketch=0;points=[[0,0,0],[0.25,0,0],[0.5,0,0],[0.75,0,0],[1,0,0],[0,1,0],[0.25,1,0],[0.5,1,0],[0.75,1,0],[1,1,0],[0,0.25,0],[0,0.5,0],[0,0.75,0],[1,0.25,0],[1,0.5,0],[1,0.75,0]];outlineConnect=0;fontColor=#232F3E;fillColor=#E7157B;strokeColor=#ffffff;dashed=0;verticalLabelPosition=bottom;verticalAlign=top;align=center;html=1;fontSize=12;fontStyle=0;aspect=fixed;shape=mxgraph.aws4.resourceIcon;resIcon=mxgraph.aws4.mq;" parent="1" vertex="1">
          <mxGeometry x="2609" y="1397.02" width="48" height="48" as="geometry" />
        </mxCell>
        <mxCell id="kG0iY3HcZwcLajI_eg3o-120" value="&lt;span style=&quot;font-size: 11px;&quot;&gt;RabbitMQ&lt;/span&gt;&lt;br&gt;&lt;div style=&quot;font-size: 11px;&quot;&gt;&lt;font style=&quot;font-size: 11px;&quot;&gt;192.168.100.116&lt;/font&gt;&lt;/div&gt;" style="text;html=1;align=center;verticalAlign=middle;whiteSpace=wrap;rounded=0;" parent="1" vertex="1">
          <mxGeometry x="2578" y="1446.02" width="110" height="30" as="geometry" />
        </mxCell>
        <mxCell id="kG0iY3HcZwcLajI_eg3o-121" value="Test 环境" style="text;html=1;align=center;verticalAlign=middle;whiteSpace=wrap;rounded=1;fillColor=#b1ddf0;strokeColor=#10739e;sketch=1;curveFitting=1;jiggle=2;glass=0;" parent="1" vertex="1">
          <mxGeometry x="2469.15" y="1310" width="60" height="30" as="geometry" />
        </mxCell>
        <mxCell id="kG0iY3HcZwcLajI_eg3o-122" value="" style="shape=image;verticalLabelPosition=bottom;labelBackgroundColor=default;verticalAlign=top;aspect=fixed;imageAspect=0;image=data:image/png,iVBORw0KGgoAAAANSUhEUgAAAEIAAAA9CAYAAAAZIL/8AAABVGlDQ1BJQ0MgUHJvZmlsZQAAGJV1kD1Lw1AYhU+0Uj9BsODikEFBsYqkLZ1rBREcYq34saVpTJU0vSRR8R/4Czo5FhcXB6FOfoCzi0XBRXByEBWELFriexs1reKFc89zD4fLywu0QWHMCAEomo6VmZ0WV1bXxPAjujCAPnRCUFSbpWR5nir49tbj3kDgfj3B/zocl2qx08Tg2ctV+em48vq333K685qtkn+QRlVmOYAwTCzvOIwzCRGLhiLe46z7vM855/NRo5PNpIkvifvVgpInrhFHc0253sRFY0v9moFP36uZS4vcSUPIQkISCboX/unFG700SmDYhYUN6CjAgYgUJQwGNOI5mFAxiSixhClSnO/3996CrPQMJDcJHoJMqQAn2zTyfZCNzNCb+MJgiqX8bFNwQ/Z6TPK5pwp0lD3vbRkIjwH1W897r3pe/QBovwPO3U8GOWOwobQjFgAAADhlWElmTU0AKgAAAAgAAYdpAAQAAAABAAAAGgAAAAAAAqACAAQAAAABAAAAQqADAAQAAAABAAAAPQAAAACw59QzAAASoElEQVRoBe1bXYxdV3X+zr3n/s+fZzx2bAJOHELSNgqFQksQQSVCQjxAEUKqEFLpQxHhpQ99K63Uqi99yUMeKrUVqA+oL6gCCZ5aNS2VKAibAqEOkCbYmTiOx/+e6zv33nPPb79v7bNnzr0ej+2Jm1jFe3zuPvtv7bW+vfbaa+99HAzGeYF7ASEQIAiAgnD8KseB0wgiASnGbOxVZTbfp///lAebkXThXgiLeziYFoSBDMO9gJrXCBcXNJpupvyqpe/ZiHI2mI24k8umvJI4zTGaFEilXUWAZgNohwHajdotLdMx2w1JI+FKlrN9qwZ0yGQ75AtJ3kl+xaLo3VGNSLIcz78S49ipCU6ci3BuwF7qIQ6tZHjP/XU88UAHj93XRU097xAE4onBBP95NcIPGZ9OUsS1Gt7eruO3usATix28f66LJvPudCAQ6t77BXuPh1GCb/5giH/9eYjLcYa0DuS1JoGoIQ8njFMcXozxe4+28alHFxDW1Nd2f2me4dvnY3zj3ARrCdvT1aMy2IOwjlqtjpVmgk/O5fiD1X3okm61valKhd7tpk0jttm53eaufp7n+Kfv9vHNH4fYRE4G6yhaGQ7td9NjfdhADAfIAoX5/GMNfPrXFwkGpwpryzB/48wG/uFsgM0sQFZPkNdHONypoU7teY1t42YbqDXQCzL8Ya/A51fZnmVq/0b5V3vhbsT4vuf4hVcn+M7P6xhnDdqBCB96NMXnPtjDgfnQbMIrVyL87Y9G+K/zOQZpgK+/VLBsiA+/o8c+A3zn/Ca+djrFtaKJoBnjAxT0S0dW8dBc24Q8Hyf4yqWL+Oe4gUGjg2/R/jw+nuB93ZbY3jPfAlFBMfWLew3rbm9xnBZ4fm2Mc5sxdSHBU49kePp3BULDUeaoPbTSwZ8+uYiPPtCmlnO61Ar0KVxGDo5dGuOrJ2NsJC0yE+GpReDLDy/jnXMdpjVWAe5rNvEnBw/iE3PKSbCepTg2jJFI+VwvbzguNcIpl0bHaYiP1ZFyfHo2BsZxjv8+kyILGphrTfDZDy2i0+IywVbbiAdY7tTxpfd10WsPsJ8j/tSRRRy/MsbfvBzj9UkTRS3Fx/bX8fSDi7QFZGumfbdexx8tLeG59T42ghA/jnIMixxLhGs3/m7Gvy/nokbhTL4bxay6SzkNO9Yu5wSC6nqkjZU5gjBVf7v9SpdgvGcBAfXwxasJ/u7FFGejOo1phieXOB2OLmG/QLhB+/2NEB9odvEvowyn8ph2R1VvxLfP3+5/mu50eWjjtj10bMVwG2mpN6crAjK5wulwM3otQh8RvedOjrC+KdASLHQKfOxwG8sNGll1vkv/+wMuR8gwyQPQRqOo717/VuXhIsY/zuO9xrLc+ziKNRrKVy9GN6WzPohxKSrwmUe6ePdCTrtSx8Ykx9fXIrzMspvxsZZmXFGAOS6fdcf9G+Lf90ez5RDdayyv8ehqQCAK/OL1BKcIhiN5Pd1XuXo8c/wavvrTEeqc83/8WAu/RjA4rHhhEODZnyV4hY7UjdqvjRP8dJxRiwocaYXgGsOq1/dzo/a75dPJc3Nlr3GX/u9vPthAg8ylRQd//+8jbIxTGyXyuRWfHaT46x+M8fyVNr53oY5vnYxwsNfAnz0+h4c7VHP6BydGOf7qhRhnRte336AmPLMeYSA7ihRP0K3oUTP2yvdsu/qX//wv/pL8CizxfduxcGxyD/DieoL+JMCVayFePN/H6kLApZIOEpfJE+eGePb4EC8NuO5TEw72Inz2nXUcWQw5rYCH5+lab2S4wt4vceL/5OoQq+0cXe5NRnR8Xx6N8Mzrl/GTtI2MhvVdfD5Hd/s+epx75Xu2XTCcaNvxxkJGZv/txBBf+26Cq3GT7nGGoD7Gvl6OCVeIyxmHrkFF5pw+PJ/j6XfX8JF30E8Qigxi4D/Oj/Hs2gRncrk2nGq0Hsv0TpuNFi7ROA5bnM30QVaCFE8vh/jkfM+8TiNwB36CofYaYshvw24xLsicU/3CVvKY3s33/yfCPx4b4vRgnm4yjUdI/4KqnNGyB0GM3zgQ4wvvXcT7D7XM0FX5z9jvDy9P8JXTffwo6tIg0iutJQhada5I3Lc0UhwNcnxxKcSHF9vceMk+8NGGhAbXPPs9yOHlNo0Qqapa7JYOaAvMRJEp7grYkt6eMcMtc5bh8maG75+K8NxLE5zaYB2O6LvoKH38kRp++4EuVrpcYUpNqAKhd+05rnDD9j36GN++EOEXwzGKMMRDS8BH+Xxkbh4HOB0adKgU6L2Y/+Imtbb4BIS87Ma/2u1UPqMRrGWTh1VNMyppQc7NEJcZPhwl6YFVMz/XhHBbKJZzMyVj5B91fqvBTsYKTg+NN2mIDa0MXDQdb4xzuvVTtE0TmM/BKbhLzbm+8nVbYisnIY/ADukpjdiqZ2z4dmRDKkqrXieDQQmCPAB3nOdEFGO0jVsgqEx5CrP1XIsb//r6vn1OWvSfTA61Crhxy4oMBQ2rGzeB7sAH87M6uROffDR1dpbLy+diAnHj84hC6k8QND6BODFr4Dw6y2NWjSsGWbDOSrnFqwUvUDUtbbmd4AG12VdCodGWluRkPeNhkIASEHVpIonbIHHgxHIh74uAqMW06NPpgEdqyrkumBYIBGmBLDk5UcUJj9BqXAJ1SqTlUT2r87ckkCfOEgMiFyB06uRt1ujGSzM0VbUH0luQ0+LuEtxeY7ZCjctfLUZdaNIi22LG4d6MYjRorFp81Ndbh0DJMIWUgsluFXwZ85QrmiTo1WiQpQhUiQafgquXTaItMAQUG1VG0O0+q0BQpQICwfE2SQNqhDZWm1GERqOBTjsE0ZsiUm3+Zr8bCLaS8YC4KenJK13xLrf9OuulNKhrDa8RCptTGlyGmXns9hrMN59dFdjAgCKSWhZlQaIJyXEOdgmC2x9yTqrNzrNKVN7UID71F1KaDg96xWvEjZzZCBOGOq2VSGBQNxS8vD62/ZukMnPHigoBPcEaicu7S+kbaNvc4mGLN4qqY0oxg6ry38pAxeDKRTC4G5aDl0qVTSYOnMDiI1m35PVyM3YawfpbyPBdoAiIgidAKY2jpA6lZxZYepcBILaCUjsFhk7IJW/CkxsmLUiT6wJDBcw0ednGxQTCmpTIMGEElCfl1xNz11fWKkmK0t0UNJUlrn5NLNvTiHfTCM0PBdMIgiEk7J9+JKlLc5gNHtWkvBSaSa3DOStpF6GbppTHcRYE910VHD9UXGevKJO4L8inNoLyL7Q6SFvcwFJbNPutmcpU38Wc9sREBCQ47QFvhZlwtc1bpM8w0YkzCVs/anvXBPLMgVKQ8MYh5ZCjNaaxDLmGasS1t1GpnDmB5uWtxixhFcmuH3knakqrK/uguMkzgZgaMeShiarI7qrWXRXKOS2hpcHDMTWCbnjD7JqTyfOb8irAy2urHhNKT2lEqvNAthBBqUxOB0WHyu1mDesXr9mSJBTuJs2Q1rplXKNOHyIBzl7aRJNnQDwLNs2XpAGXBU2VNNe+SUJqwPlisYAQIsxXLONSaAqYulGlqEpyWVeXeOPE8pO8lovpU1h9tXlLg+NCrGrwdJ6xyelw6rUBBa5hebFlWwBptdxPTRsNbJZTI8S35NaLYkZ2ZukAUkXePicTEpV1ZFMhxinSbuZ48O2LnHc8djt5AX2eKapz1RERGWZvnC37//zHTVDbdmuyUtb+OMfPXrmKiJfRD75tDh36zJoxZhcYZ7R/CddT3dMyabI5hXD6z02XVIBFRGY0uGIiNHnF1mq5e0UDowRlnAQ4dWaAwTDD4dUODi63zK0l4AaIenhTFhaiL03Q2Oqm7cKVGGd5f7rQbeKhIwugcylVp0jlcFG2JEm4+sk+FGj1eMrD2BDRSGp6jPVVRhnGm1cNMVW2fUWn47TCyp2GyHCev8xruotD5hY4uNLFgX0d9HiLZTbLUxPstxN2aWe8lrT07vY+Kc7zeuD85aE5f4dWezi03EGLO2LbUxgQjqhA0KOggW11ecE6E4JRLDvrlpfx4OoWaqoX8pis2+1a7NsJJP1JOy7wSG3t9T4ScrZvqYP7VwVKG1xobE/i9MQxU0jrbAhKSmaHKjlWzdVVNRUr5cbUtcn4ycDl/hhrPBXf6Cfm7T5w/xxPzFvoNjUVZAlIkyOiqaBpEMexvYuCQBD/nbl9JoOXW/GURmz2L1lFEVBQrIsYgeGniggpmI3m9VtM43COh64nT1/D1f6QU6WF/QTj4H4+1BRdfst4Cwd3Vuk0Swz7IIpGldJrtJUQCzLLsvSXroxw5uKIwE9owwqsLDZxlDbr0DJv1ym0fB85gzaN2ZFA0DOZTGxgZSf0KHggLFH52dYIEhtvbpAADSG5UAPFImjqRJvR4VSRlggcM0Ksoz8NH51X9Ll2XdwY8+FFzIhzktoYkIEWwWjzIqjNjVubV2MNqgyPNLaCZNeKJSGjSconoRPHqwBtnNKY7etY6BFgnl6vUP3neLPDM26bEg5QDZzeHM8eAN+B+DeQmCG+m50Fk0+Do76v04jxsE/mnWWtAiGCAkXEZDva7fYWKKonQi4QEL7qI7Ixl1l5dxE/6pjQsGhbHDEe8zo/5eqk5S6lnVawEWO7Bi+SW3x0riDfRbdoeto80u/wik87S0rAFq6dehVPOplK6AOlRD4hcAmZkAI0BIA6KIP1Q2+z0Z7zWVsxp4a4UXUSiyNMxkPTgioQ/l1g6FGQZgiQ+fl5e/eoqy65KxlwbEhf5ArLR0m11rGOllsnjpGzH81tm0YscdcGRmq7QvlmffBdccQDIxlCp5miXcPxFzZw8EAbR99GY1/pRUDUwybCZket+Ti5FdNvJNNiioyGnN/xZKxFt+xyO/KCSsScy5LUT0z0+31oufVaIo3R1FF9BcVOYApHi97Quk8BlC/GFJR2ws1C48pURwOgOor9Uqhpa3lFyHx+xtgUHCGOHb+Ixx9bxdHD/BSvup6zz5D3LGLN9iiGg5OfQLjRUiwhG/xoKyvXWzHgg2OUdDlq7kTblShfoMg6DwYDA0FAeEDqsik0CE4tQ9eeTcWM+nNw+V6cwEp5wSWs3v2jMvW5BTTPJ196eYSz65t48oMH7JtOt2ZNU1b9uiw3YzYXFf4zJAyUKY0Qc41GG2mDX6NMeL0/E8SAHjGloHcFz5TSclr0CBgrE3Acebm6emrUCqXdvtCqWHu1FR1P09qKIQZPf/bdCklp7bUJfvnLIX7nvQX3RtsaWK1f4xVkyPtXg59kpREi7+MpjbBMMt7pLZiwScxvFSphJ0arjKtqlWml3d6FAHLTw2Nxm3WB1LzUhtn6aqOgfGlRtdy/+7isqdqkx7p8pA0hryFCna04HAk8NbRFu6B9B2vatJiJK1/nl63EIJmYm1/CcJOrSEYPshx5Ce21QUxUGfIjqnyFapkY0qZNh8jKdz2RIdZTO28rZtt5mrOx6vmgWwuxp/MIHSbpy7zf//TD/GhN/bBPTp1Wp1fhZ1tOR8Oly/+voYTYqsQk2u3RFSWK4yE/Iy2ng2dAsRj0wQRkGx+mmBddZxd9scVTYE2VuIRo6KkCdV01bhAP7G9iFDU5rSk6NW95iVOPnxZpKvjp4HityDcjbxAlFWmu68UJm5gh3ODSOrL5L6ICRrEXZhYIkfLlNYKp8VdcI4PVNqpXTTuGXV51alTp+/oaPJ0zRJMWV5Icc10BTteO9qDd6Zpf4gZXvewezI8QYWPalMkJV02LhKz3mF+ubA76tsTqOEyMKHjGfOzzJHjGMwAJ5EfV11FcfTdCO9CqtrtRfWf8nZ0QCL05NxX8AKhdVZ6d0jfVCM+gCGk1ECAT+g9RNLKVRS65GcRyVnhmfTul7Y9GWEIZQyUIvq6P1cbqs9y/q76WY5+uxm4yky4/KpFBDM2HCW3prtK0xjf5mdYIj5yPZzREtPQxiB15ERRNGR12CAz5HnovqAHVUBVMQHgGq/k+T+307gHzaQ+evtBX33UJbtOMizBphiE/d2Y7ebtq69s7c1nRcC+Xjyvy3bJGVIUTY/o2QdqRMTZ7IZvBShn9fXmcrEBfYkIG3Sz1woiOGFXwAPhY+aLl06InoUVEIJjAjFVPdBUrX3HVmzXit/lDIMq9BoUz6p7AVtopIHX6unKV6BRI9kLAaLQksK0wvj7LdRUggJQlu+LLZUCVtnNFvjmhOA0oZSijSiF9uSwAM1jkbIsmjwyvA4XA+v6Yb2ErrT5Yeyu9c7lphIiW1afisonITOX79Gy5OhMYPjbNKdMmtACTIKRG8U0oo8E6vn+BsPWNFd8V7NfnV2IrLMt9+2p8O+U7aERJSgIYI3tPq+UWhKWw1fRO9J3sFL3Sv2lMJT09wnvnr9r//wJnkFczfiK54gAAAABJRU5ErkJggg==;" parent="1" vertex="1">
          <mxGeometry x="2840.5" y="1486.9699999999998" width="66" height="61" as="geometry" />
        </mxCell>
        <mxCell id="kG0iY3HcZwcLajI_eg3o-123" value="Dev-Nacos&lt;br&gt;192.168.100.48" style="text;html=1;align=center;verticalAlign=middle;whiteSpace=wrap;rounded=0;" parent="1" vertex="1">
          <mxGeometry x="2826" y="1556.9699999999998" width="95" height="30" as="geometry" />
        </mxCell>
        <mxCell id="kG0iY3HcZwcLajI_eg3o-124" value="" style="image;points=[];aspect=fixed;html=1;align=center;shadow=0;dashed=0;image=img/lib/allied_telesis/computer_and_terminals/Personal_Computer_with_Server.svg;" parent="1" vertex="1">
          <mxGeometry x="2846.6" y="1346.4199999999998" width="62.400000000000006" height="62.400000000000006" as="geometry" />
        </mxCell>
        <mxCell id="kG0iY3HcZwcLajI_eg3o-125" value="前端部署192.168.100.49" style="text;html=1;align=center;verticalAlign=middle;whiteSpace=wrap;rounded=0;" parent="1" vertex="1">
          <mxGeometry x="2833.9" y="1416.02" width="89" height="30" as="geometry" />
        </mxCell>
        <mxCell id="kG0iY3HcZwcLajI_eg3o-126" value="" style="image;points=[];aspect=fixed;html=1;align=center;shadow=0;dashed=0;image=img/lib/allied_telesis/computer_and_terminals/Personal_Computer_with_Server.svg;" parent="1" vertex="1">
          <mxGeometry x="2973.7000000000003" y="1345.42" width="62.400000000000006" height="62.400000000000006" as="geometry" />
        </mxCell>
        <mxCell id="kG0iY3HcZwcLajI_eg3o-127" value="Dev-ERP&lt;br&gt;192.168.100.200" style="text;html=1;align=center;verticalAlign=middle;whiteSpace=wrap;rounded=0;" parent="1" vertex="1">
          <mxGeometry x="2961.0000000000005" y="1415.02" width="89" height="30" as="geometry" />
        </mxCell>
        <mxCell id="kG0iY3HcZwcLajI_eg3o-128" value="" style="shape=mxgraph.signs.sports.ranger_station_1;html=1;pointerEvents=1;fillColor=#000000;strokeColor=none;verticalLabelPosition=bottom;verticalAlign=top;align=center;" parent="1" vertex="1">
          <mxGeometry x="1844.88" y="957.4" width="46.02" height="48" as="geometry" />
        </mxCell>
        <mxCell id="kG0iY3HcZwcLajI_eg3o-129" value="&lt;font style=&quot;font-size: 14px;&quot;&gt;公网：112.47.143.54&lt;/font&gt;" style="text;html=1;align=center;verticalAlign=middle;whiteSpace=wrap;rounded=0;" parent="1" vertex="1">
          <mxGeometry x="2130.6" y="713.61" width="137.2" height="30" as="geometry" />
        </mxCell>
        <mxCell id="kG0iY3HcZwcLajI_eg3o-130" value="" style="shape=mxgraph.signs.sports.ranger_station_1;html=1;pointerEvents=1;fillColor=#000000;strokeColor=none;verticalLabelPosition=bottom;verticalAlign=top;align=center;" parent="1" vertex="1">
          <mxGeometry x="1943.8899999999999" y="961" width="46.02" height="48" as="geometry" />
        </mxCell>
        <mxCell id="kG0iY3HcZwcLajI_eg3o-131" value="Rancher-Master&lt;br&gt;192.168.100.50" style="text;html=1;align=center;verticalAlign=middle;whiteSpace=wrap;rounded=0;" parent="1" vertex="1">
          <mxGeometry x="1814.5" y="1015.4000000000001" width="110" height="30" as="geometry" />
        </mxCell>
        <mxCell id="kG0iY3HcZwcLajI_eg3o-132" value="Rancher-Node&lt;br&gt;192.168.100.51" style="text;html=1;align=center;verticalAlign=middle;whiteSpace=wrap;rounded=0;" parent="1" vertex="1">
          <mxGeometry x="1917.8999999999999" y="1015.4000000000001" width="110" height="30" as="geometry" />
        </mxCell>
        <mxCell id="kG0iY3HcZwcLajI_eg3o-133" value="" style="aspect=fixed;sketch=0;html=1;dashed=0;whitespace=wrap;verticalLabelPosition=bottom;verticalAlign=top;fillColor=#2875E2;strokeColor=#ffffff;points=[[0.005,0.63,0],[0.1,0.2,0],[0.9,0.2,0],[0.5,0,0],[0.995,0.63,0],[0.72,0.99,0],[0.5,1,0],[0.28,0.99,0]];shape=mxgraph.kubernetes.icon2;kubernetesLabel=1;prIcon=node" parent="1" vertex="1">
          <mxGeometry x="1814.3" y="1124.4" width="50" height="48" as="geometry" />
        </mxCell>
        <mxCell id="kG0iY3HcZwcLajI_eg3o-134" value="" style="aspect=fixed;sketch=0;html=1;dashed=0;whitespace=wrap;verticalLabelPosition=bottom;verticalAlign=top;fillColor=#2875E2;strokeColor=#ffffff;points=[[0.005,0.63,0],[0.1,0.2,0],[0.9,0.2,0],[0.5,0,0],[0.995,0.63,0],[0.72,0.99,0],[0.5,1,0],[0.28,0.99,0]];shape=mxgraph.kubernetes.icon2;prIcon=node" parent="1" vertex="1">
          <mxGeometry x="1893.8999999999999" y="1054.4" width="50" height="48" as="geometry" />
        </mxCell>
        <mxCell id="kG0iY3HcZwcLajI_eg3o-135" value="K8s-Master&lt;br&gt;192.168.100.60" style="text;html=1;align=center;verticalAlign=middle;whiteSpace=wrap;rounded=0;" parent="1" vertex="1">
          <mxGeometry x="1863.9" y="1102.4" width="110" height="30" as="geometry" />
        </mxCell>
        <mxCell id="kG0iY3HcZwcLajI_eg3o-136" value="k8s-node&lt;br&gt;192.168.100.61" style="text;html=1;align=center;verticalAlign=middle;whiteSpace=wrap;rounded=0;" parent="1" vertex="1">
          <mxGeometry x="1783.8999999999999" y="1175.43" width="110" height="30" as="geometry" />
        </mxCell>
        <mxCell id="kG0iY3HcZwcLajI_eg3o-137" value="" style="aspect=fixed;sketch=0;html=1;dashed=0;whitespace=wrap;verticalLabelPosition=bottom;verticalAlign=top;fillColor=#2875E2;strokeColor=#ffffff;points=[[0.005,0.63,0],[0.1,0.2,0],[0.9,0.2,0],[0.5,0,0],[0.995,0.63,0],[0.72,0.99,0],[0.5,1,0],[0.28,0.99,0]];shape=mxgraph.kubernetes.icon2;kubernetesLabel=1;prIcon=node" parent="1" vertex="1">
          <mxGeometry x="1964.4" y="1124.4" width="50" height="48" as="geometry" />
        </mxCell>
        <mxCell id="kG0iY3HcZwcLajI_eg3o-138" value="k8s-node&lt;br&gt;192.168.100.62" style="text;html=1;align=center;verticalAlign=middle;whiteSpace=wrap;rounded=0;" parent="1" vertex="1">
          <mxGeometry x="1934" y="1175.43" width="110" height="30" as="geometry" />
        </mxCell>
        <mxCell id="kG0iY3HcZwcLajI_eg3o-139" value="K8S 集群" style="text;html=1;align=center;verticalAlign=middle;whiteSpace=wrap;rounded=0;" parent="1" vertex="1">
          <mxGeometry x="1884" y="904.4" width="60" height="30" as="geometry" />
        </mxCell>
        <mxCell id="kG0iY3HcZwcLajI_eg3o-141" value="&lt;font style=&quot;font-size: 18px;&quot;&gt;明泰工厂&lt;/font&gt;" style="text;html=1;align=center;verticalAlign=middle;whiteSpace=wrap;rounded=0;" parent="1" vertex="1">
          <mxGeometry x="2438" y="720" width="140" height="30" as="geometry" />
        </mxCell>
        <mxCell id="kG0iY3HcZwcLajI_eg3o-142" value="" style="image;html=1;image=img/lib/clip_art/computers/Server_Tower_128x128.png;imageBackground=none;imageBorder=none;" parent="1" vertex="1">
          <mxGeometry x="2326.2" y="985.6" width="80" height="80" as="geometry" />
        </mxCell>
        <mxCell id="kG0iY3HcZwcLajI_eg3o-143" value="" style="image;sketch=0;aspect=fixed;html=1;points=[];align=center;fontSize=12;image=img/lib/mscae/Docker.svg;" parent="1" vertex="1">
          <mxGeometry x="3108.97" y="1483.3" width="71.93" height="58.98" as="geometry" />
        </mxCell>
        <mxCell id="kG0iY3HcZwcLajI_eg3o-144" value="Harbor&lt;br&gt;192.168.100.80" style="text;html=1;align=center;verticalAlign=middle;whiteSpace=wrap;rounded=0;" parent="1" vertex="1">
          <mxGeometry x="3091.8999999999996" y="1559.2500000000002" width="89" height="30" as="geometry" />
        </mxCell>
        <mxCell id="kG0iY3HcZwcLajI_eg3o-145" value="" style="image;html=1;image=img/lib/clip_art/computers/Server_Tower_128x128.png;imageBackground=none;imageBorder=none;" parent="1" vertex="1">
          <mxGeometry x="2486.2" y="985.6" width="80" height="80" as="geometry" />
        </mxCell>
        <mxCell id="kG0iY3HcZwcLajI_eg3o-146" value="" style="editableCssRules=.*;html=1;shape=image;verticalLabelPosition=bottom;labelBackgroundColor=#ffffff;verticalAlign=top;aspect=fixed;imageAspect=0;image=data:image/svg+xml,PHN2ZyB4bWxucz0iaHR0cDovL3d3dy53My5vcmcvMjAwMC9zdmciIHhtbG5zOnY9Imh0dHBzOi8vdmVjdGEuaW8vbmFubyIgd2lkdGg9IjIwIiBoZWlnaHQ9IjIwIiB2aWV3Qm94PSIwIDAgMjAgMjAiPiYjeGE7CTxzdHlsZSB0eXBlPSJ0ZXh0L2NzcyI+JiN4YTsJLnN0MHtmaWxsOiM0Mjg1ZjQ7fSYjeGE7CTwvc3R5bGU+JiN4YTsJPHBhdGggY2xhc3M9InN0MCIgZD0iTTEzLjMzIDB2Mi4zOGgtMi4xNlYwSDguODN2Mi4zOEg2LjY3VjBINC4yOXYyLjM4YTIgMiAwIDAgMC0xLjkxIDEuOTFIMHYyLjM4aDIuMzh2Mi4xNEgwdjIuMzhoMi4zOHYyLjE0SDB2Mi4zOGgyLjM4YTIgMiAwIDAgMCAxLjkxIDEuOTFWMjBoMi4zOHYtMi4zOGgyLjE2VjIwaDIuMzR2LTIuMzhoMi4xNlYyMGgyLjM4di0yLjM4YTIgMiAwIDAgMCAxLjkxLTEuOTFIMjB2LTIuMzhoLTIuMzh2LTIuMTRIMjBWOC44MWgtMi4zOFY2LjY3SDIwVjQuMjloLTIuMzhhMiAyIDAgMCAwLTEuOTEtMS45MVYwem0xLjUzIDE1LjI0SDUuMTRhLjM4LjM4IDAgMCAxLS4zOC0uMzhWNS4xNGEuMzguMzggMCAwIDEgLjM4LS4zOGg5LjcyYS4zOC4zOCAwIDAgMSAuMzguMzh2OS43MmEuMzguMzggMCAwIDEtLjM4LjM4em0tMi4wNy02LjEybC0zLjUgNC44NnYtMy42M0g3LjIybDMuNjEtNC44MXYzLjU4eiIvPiYjeGE7PC9zdmc+;" parent="1" vertex="1">
          <mxGeometry x="2497.6" y="991.8" width="20" height="20" as="geometry" />
        </mxCell>
        <mxCell id="kG0iY3HcZwcLajI_eg3o-147" value="GPU&lt;br&gt;192.168.100.232" style="text;html=1;align=center;verticalAlign=middle;whiteSpace=wrap;rounded=0;" parent="1" vertex="1">
          <mxGeometry x="2483.8" y="1071.2" width="89" height="30" as="geometry" />
        </mxCell>
        <mxCell id="kG0iY3HcZwcLajI_eg3o-148" value="GPU&lt;br&gt;192.168.100.233" style="text;html=1;align=center;verticalAlign=middle;whiteSpace=wrap;rounded=0;" parent="1" vertex="1">
          <mxGeometry x="2651.6" y="1076.2" width="89" height="30" as="geometry" />
        </mxCell>
        <mxCell id="kG0iY3HcZwcLajI_eg3o-149" value="KVM&lt;br&gt;192.168.100.10" style="text;html=1;align=center;verticalAlign=middle;whiteSpace=wrap;rounded=0;" parent="1" vertex="1">
          <mxGeometry x="2316.6" y="1071.2" width="89" height="30" as="geometry" />
        </mxCell>
        <mxCell id="kG0iY3HcZwcLajI_eg3o-150" value="" style="shape=image;verticalLabelPosition=bottom;labelBackgroundColor=default;verticalAlign=top;aspect=fixed;imageAspect=0;image=data:image/svg+xml,PHN2ZyB4bWxucz0iaHR0cDovL3d3dy53My5vcmcvMjAwMC9zdmciIHhtbDpzcGFjZT0icHJlc2VydmUiIGhlaWdodD0iMzEyIiB3aWR0aD0iMjI2IiB2ZXJzaW9uPSIxLjEiIGlkPSJzdmcyIiB2aWV3Qm94PSIwIDAgMjI2IDMxMiI+PG1ldGFkYXRhIGlkPSJtZXRhZGF0YTgiPmltYWdlL3N2Zyt4bWw8L21ldGFkYXRhPjxkZWZzIGlkPSJkZWZzNiI+PGNsaXBQYXRoIGlkPSJjbGlwUGF0aDE4IiBjbGlwUGF0aFVuaXRzPSJ1c2VyU3BhY2VPblVzZSI+PHBhdGggaWQ9InBhdGgyMCIgZD0iTSAwLDI0OTQuODQgMCwwIGwgMTgwNC4zNCwwIDAsMjQ5NC44NCAtMTgwNC4zNCwwIHoiLz48L2NsaXBQYXRoPjwvZGVmcz48ZyB0cmFuc2Zvcm09Im1hdHJpeCgxLjI1LDAsMCwtMS4yNSwwLDMxMikiIGlkPSJnMTAiPjxnIGlkPSJnMzM5MyI+PHBhdGggaWQ9InBhdGgyMiIgc3R5bGU9ImZpbGw6I2QzMzgzMztmaWxsLW9wYWNpdHk6MTtmaWxsLXJ1bGU6ZXZlbm9kZDtzdHJva2U6bm9uZSIgZD0ibSAxNzcuNzE4LDEyOS4yNjQgYyAwLC00OS40Mjg4IC0zOS4xNzUsLTg5LjQ5OTIgLTg3LjUsLTg5LjQ5OTIgLTQ4LjMyNDIsMCAtODcuNDk5MjUsNDAuMDcwNCAtODcuNDk5MjUsODkuNDk5MiAwLDQ5LjQzIDM5LjE3NTA1LDg5LjUwMSA4Ny40OTkyNSw4OS41MDEgNDguMzI1LDAgODcuNSwtNDAuMDcxIDg3LjUsLTg5LjUwMSIvPjxwYXRoIGlkPSJwYXRoMjQiIHN0eWxlPSJmaWxsOiNlZjNkM2E7ZmlsbC1vcGFjaXR5OjE7ZmlsbC1ydWxlOm5vbnplcm87c3Ryb2tlOm5vbmUiIGQ9Im0gNi4yODQzOCwxMDcuMDk4IGMgMCwwIC02LjMzNDM4LDkzLjMzMyA3OS42NjYwMiw5NiBsIC01Ljk5OTYsMTAgLTQ2LjY2NjQsLTE1LjY2NyAtMTMuMzMzNiwtMTUuMzMzIC0xMS42NjY0MiwtMjIuMzM0IC02LjY2NzE5LC0yNiAyLC0xNy4zMzMiLz48cGF0aCBpZD0icGF0aDI2IiBzdHlsZT0iZmlsbDojMjMxZjIwO2ZpbGwtb3BhY2l0eToxO2ZpbGwtcnVsZTpub256ZXJvO3N0cm9rZTpub25lIiBkPSJNIDMwLjI4ODMsMTkwLjMxOSBDIDE0LjkzNjMsMTc0LjYxMSA1LjQzNjMzLDE1Mi45MjMgNS40MzYzMywxMjguOTMgbCAwLDAgYyAwLC0yMy45ODggOS40OTk5NywtNDUuNjc4OCAyNC44NTE5NywtNjEuMzgzOSBsIDAsMCBDIDQ1LjY0NzcsNTEuODQxIDY2LjgxNTIsNDIuMTUgOTAuMjE2OCw0Mi4xNSBsIDAsMCBjIDIzLjQwMjIsMCA0NC41NzEyLDkuNjkxIDU5LjkyOTIsMjUuMzk2MSBsIDAsMCBjIDE1LjM1MSwxNS43MDUxIDI0Ljg1MywzNy4zOTU5IDI0Ljg1Myw2MS4zODM5IGwgMCwwIGMgMCwyMy45OTMgLTkuNTAyLDQ1LjY4MSAtMjQuODUzLDYxLjM4OSBsIDAsMCBjIC0xNS4zNTgsMTUuNzAyIC0zNi41MjcsMjUuMzkzIC01OS45MjkyLDI1LjM5NSBsIDAsMCBDIDY2LjgxNTIsMjE1LjcxMiA0NS42NDc3LDIwNi4wMjEgMzAuMjg4MywxOTAuMzE5IGwgMCwwIHogTSAyNi40MDIzLDYzLjc0NjkgQyAxMC4wODY3LDgwLjQzMjggMCwxMDMuNDkzIDAsMTI4LjkzIGwgMCwwIGMgMCwyNS40NDEgMTAuMDg2Nyw0OC40OTkgMjYuNDAyMyw2NS4xODYgbCAwLDAgYyAxNi4zMTE4LDE2LjY5IDM4Ljg5MTUsMjcuMDM1IDYzLjgxNDUsMjcuMDMyIGwgMCwwIGMgMjQuOTIzMiwwLjAwMyA0Ny41MDUyLC0xMC4zNDIgNjMuODE0MiwtMjcuMDMyIGwgMCwwIGMgMTYuMzE3LC0xNi42ODcgMjYuNDA1LC0zOS43NDcgMjYuNDAzLC02NS4xODYgbCAwLDAgYyAwLjAwMiwtMjUuNDM3IC0xMC4wODYsLTQ4LjQ5NzIgLTI2LjQwMywtNjUuMTgzMSBsIDAsMCBDIDEzNy43MjIsNDcuMDU3OCAxMTUuMTQsMzYuNzE0MSA5MC4yMTY4LDM2LjcxNDEgbCAwLDAgYyAtMjQuOTIzLDAgLTQ3LjUwMjcsMTAuMzQzNyAtNjMuODE0NSwyNy4wMzI4IGwgMCwwIi8+PHBhdGggaWQ9InBhdGgyOCIgc3R5bGU9ImZpbGw6I2YwZDZiNztmaWxsLW9wYWNpdHk6MTtmaWxsLXJ1bGU6ZXZlbm9kZDtzdHJva2U6bm9uZSIgZD0ibSAxMjcuMDUxLDEyOC43NjggLTEzLjMzNCwtMiAtMTguMDAwMiwtMiAtMTEuNjY3MiwtMC4zMzMgLTExLjMzMjgsMC4zMzMgLTguNjY3MiwyLjY2NyAtNy42NjY4LDguMzMzIC02LDE3IC0xLjMzMzIsMy42NjcgLTgsMi42NjYgLTQuNjY2OCw3LjY2NyAtMy4zMzMyLDExIDMuNjY3Miw5LjY2NyA4LjY2NiwzIDcsLTMuMzM0IDMuMzM0LC03LjMzMyA0LDAuNjY3IDEuMzMyOCwxLjY2NiAtMS4zMzI4LDcuNjY3IC0wLjMzNCw5LjY2NyAyLDEzLjMzMyAtMC4wNzgxLDcuNjE2IDYuMDc4MSw5LjcxNyAxMC42NjY4LDcuNjY3IDE4LjY2NzIsOCAyMC42NjYyLC0zIDE4LC0xMyA4LjMzNCwtMTMuMzMzIDUuMzMzLC05LjY2NyAxLjMzMywtMjQgLTQsLTIwLjY2NyAtNy4zMzMsLTE4LjMzMyAtNywtOS42NjciLz48cGF0aCBpZD0icGF0aDMwIiBzdHlsZT0iZmlsbDojMzM1MDYxO2ZpbGwtb3BhY2l0eToxO2ZpbGwtcnVsZTpldmVub2RkO3N0cm9rZTpub25lIiBkPSJtIDExNS43MTcsNzEuMTAyIC00Ny42Njc0LC0yIDAsLTggNCwtMjggLTIsLTIuMzM0IC0zMy4zMzI4LDExLjMzNCAtMi4zMzQsNCAtMy4zMzMyLDM3LjY2NiAtNy42NjU2LDIyLjY2NyAtMS42NjcyLDUuMzMzIDI2LjY2NiwxOC4zMzMgOC4zMzQsMy4zMzQgNy4zMzI4LC05IDYuMzMzMiwtNS42NjcgNy4zMzQsLTIuMzMzIDMuMzMyOCwtMSA0LC0xNy4zMzMgMywtMy42NjY4IDcuNjY3MiwyLjY2NjggLTUuMzM0LC0xMC4zMzQgMjkuMDAwMiwtMTMuNjY2IC0zLjY2NiwtMiIvPjxwYXRoIGlkPSJwYXRoMzIiIHN0eWxlPSJmaWxsOiM2ZDZiNmQ7ZmlsbC1vcGFjaXR5OjE7ZmlsbC1ydWxlOmV2ZW5vZGQ7c3Ryb2tlOm5vbmUiIGQ9Im0gMzYuNzE2OCwxODcuNDM1IDguNjY2LDMgNywtMy4zMzQgMy4zMzQsLTcuMzMzIDQsMC42NjcgMSw0IC0yLDcuNjY2IDIsMTguMzM0IC0xLjY2NzIsMTAgNiw3IDEzLDEwLjMzMyAtMy42NjY4LDUgLTE4LjMzMzIsLTkgLTcuNjY2OCwtNiAtNC4zMzMyLC05LjMzMyAtNi42NjY4LC05IC0yLC0xMC42NjcgMS4zMzQsLTExLjMzMyIvPjxwYXRoIGlkPSJwYXRoMzQiIHN0eWxlPSJmaWxsOiNkY2Q5ZDg7ZmlsbC1vcGFjaXR5OjE7ZmlsbC1ydWxlOmV2ZW5vZGQ7c3Ryb2tlOm5vbmUiIGQ9Im0gNTAuMzgyOCwyMTguNzY4IGMgMCwwIDUsMTIuMzMzIDI1LDE4LjMzMyAyMCw2IDEsNC4zMzQgMSw0LjMzNCBsIC0yMS42NjYsLTguMzM0IC04LjMzNCwtOC4zMzMgLTMuNjY2LC02LjY2NyA3LjY2NiwwLjY2NyIvPjxwYXRoIGlkPSJwYXRoMzYiIHN0eWxlPSJmaWxsOiNkY2Q5ZDg7ZmlsbC1vcGFjaXR5OjE7ZmlsbC1ydWxlOmV2ZW5vZGQ7c3Ryb2tlOm5vbmUiIGQ9Im0gNDAuMzgyOCwxODkuNzY4IGMgMCwwIC03LDIzLjMzNCAxOS42NjY4LDI2LjY2NyBsIC0xLDQgLTE4LjMzMjgsLTQuMzM0IC01LjMzNCwtMTcuMzMzIDEuMzM0LC0xMS4zMzMgMy42NjYsMi4zMzMiLz48cGF0aCBpZD0icGF0aDM4IiBzdHlsZT0iZmlsbDojZjdlNGNkO2ZpbGwtb3BhY2l0eToxO2ZpbGwtcnVsZTpldmVub2RkO3N0cm9rZTpub25lIiBkPSJtIDUxLjA0OTYsMTU4Ljc2OCA0LjM2NDUsNC4yMjkgYyAwLDAgMS45Njk5LC0wLjIyOSAyLjMwMjcsLTIuNTYyIDAuMzMyOCwtMi4zMzQgMS4zMzI4LC0yMy4zMzQgMTUuNjY2LC0zNC42NjggMS4zMDc0LC0xLjAzNCAtMTAuNjY2LDEuNjY4IC0xMC42NjYsMS42NjggbCAtMTAuNjY3MiwxNi42NjYiLz48cGF0aCBpZD0icGF0aDQwIiBzdHlsZT0iZmlsbDojZjdlNGNkO2ZpbGwtb3BhY2l0eToxO2ZpbGwtcnVsZTpldmVub2RkO3N0cm9rZTpub25lIiBkPSJtIDExMi4zODUsMTY1LjEwMSBjIDAsMCAwLjc3NywxMC4xMDQgMy40OTgsOS4zMjcgMi43MjEsLTAuNzc3IDIuNzIxLC0zLjQ5OCAyLjcyMSwtMy40OTggMCwwIC02LjYwOCwtNC4yNzUgLTYuMjE5LC01LjgyOSIvPjxwYXRoIGlkPSJwYXRoNDIiIHN0eWxlPSJmaWxsOiNmN2U0Y2Q7ZmlsbC1vcGFjaXR5OjE7ZmlsbC1ydWxlOm5vbnplcm87c3Ryb2tlOm5vbmUiIGQ9Im0gMTQwLjA1LDIwMi4xMDEgYyAwLDAgLTUuNDk0LC0xLjE2IC02LC02IC0wLjUwNiwtNC44NDEgNiwtMSA3LC0wLjY2NyIvPjxwYXRoIGlkPSJwYXRoNDQiIHN0eWxlPSJmaWxsOiNmN2U0Y2Q7ZmlsbC1vcGFjaXR5OjE7ZmlsbC1ydWxlOm5vbnplcm87c3Ryb2tlOm5vbmUiIGQ9Im0gOTkuNzE2OCwyMDEuNzY3IGMgMCwwIC03LjMzNCwtMSAtNy4zMzQsLTUuNjY2IDAsLTQuNjY3IDguMzM0MiwtNC4zMzQgMTAuNjY3MiwtMi4zMzQiLz48cGF0aCBpZD0icGF0aDQ2IiBzdHlsZT0iZmlsbDojZjdlNGNkO2ZpbGwtb3BhY2l0eToxO2ZpbGwtcnVsZTpldmVub2RkO3N0cm9rZTpub25lIiBkPSJtIDU0LjM4MjgsMTgwLjEwMSBjIDAsMCAtMTIuNjY3Miw3LjY2NyAtMTQsMC4zMzMgLTEuMzMzMiwtNy4zMzMgLTQuMzM0LC0xMi42NjcgMiwtMjAuMzMzIGwgLTQuMzMzMiwxLjMzMyAtNCwxMC4zMzMgLTEuMzMyOCwxMCA3LjY2Niw4LjAwMSA4LjY2NjgsLTAuNjY3IDUsLTQgMC4zMzMyLC01Ii8+PHBhdGggaWQ9InBhdGg0OCIgc3R5bGU9ImZpbGw6I2Y3ZTRjZDtmaWxsLW9wYWNpdHk6MTtmaWxsLXJ1bGU6ZXZlbm9kZDtzdHJva2U6bm9uZSIgZD0ibSA2MC4zODI4LDIwMS4xMDEgYyAwLDAgNS42NjY4LDI5LjMzMyAzNC4zMzQsMzUgMjMuNjAxMiw0LjY2NSAzNS45OTkyLC0xIDQwLjY2NjIsLTYuMzMzIDAsMCAtMjEsMjQuOTk5IC00MS4wMDAyLDE3LjMzMyAtMjAsLTcuNjY3IC0zNC42NjYsLTIxLjY2NyAtMzQuMzMzMiwtMzAuNjY2IDAuNTY3NiwtMTUuMzI4IDAuMzMzMiwtMTUuMzM0IDAuMzMzMiwtMTUuMzM0Ii8+PHBhdGggaWQ9InBhdGg1MCIgc3R5bGU9ImZpbGw6I2Y3ZTRjZDtmaWxsLW9wYWNpdHk6MTtmaWxsLXJ1bGU6ZXZlbm9kZDtzdHJva2U6bm9uZSIgZD0ibSAxMzcuNzE3LDIyNi40MzUgYyAwLDAgLTkuNjY2LDAuMzMzIC0xMCwtOC4zMzQgMCwwIC0wLjAwMSwtMS4zMzMgMC42NjYsLTIuNjY2IDAsMCA3LjY2OCw4LjY2NyAxMi4zMzQsNCIvPjxwYXRoIGlkPSJwYXRoNTIiIHN0eWxlPSJmaWxsOiNmN2U0Y2Q7ZmlsbC1vcGFjaXR5OjE7ZmlsbC1ydWxlOmV2ZW5vZGQ7c3Ryb2tlOm5vbmUiIGQ9Im0gOTUuMzg4NywyMTQuNTMyIGMgMCwwIC0xLjY2NDEsMTMuMzAzIC0xMy4wMDU5LDUuNTY5IC03LjMzMzIsLTUgLTYuNjY2LC0xMiAtNS4zMzMyLC0xMy4zMzMgMS4zMzMyLC0xLjMzNCAwLjk3MDcsLTQuMDE5IDEuOTg1NiwtMi4xNzYgMS4wMTQ0LDEuODQzIDAuNjgwNCw3Ljg0MyA0LjM0NzYsOS41MDkgMy42NjY4LDEuNjY3IDkuNjc3NywzLjUyOSAxMi4wMDU5LDAuNDMxIi8+PHBhdGggaWQ9InBhdGg1NCIgc3R5bGU9ImZpbGw6IzQ5NzI4YjtmaWxsLW9wYWNpdHk6MTtmaWxsLXJ1bGU6ZXZlbm9kZDtzdHJva2U6bm9uZSIgZD0ibSA2NC4wNDk2LDEyNC40MzUgLTMxLjMzMjgsLTE0IGMgMCwwIDEzLC01MS42NjcgNi4zMzI4LC02Ny42NjcgbCAtNC42NjY4LDEuNjY2IC0wLjMzMzIsMTkuNjY3MiAtOC42NjU2LDM3LjMzMjggLTMuNjY3MiwxMC4zMzQgMzIuNjY2LDIxLjk5OSA5LjY2NjgsLTkuMzMyIi8+PHBhdGggaWQ9InBhdGg1NiIgc3R5bGU9ImZpbGw6IzQ5NzI4YjtmaWxsLW9wYWNpdHk6MTtmaWxsLXJ1bGU6ZXZlbm9kZDtzdHJva2U6bm9uZSIgZD0ibSA2Ny4yNzE1LDk1Ljg1NzggNC40NDUzLC01LjQyMzggMCwtMjAgLTUuMzM0LDAgYyAwLDAgLTAuNjY2LDE0IC0wLjY2NiwxNS42NjcyIDAsMS42NjY4IDAuNjY2LDcuNjY2OCAwLjY2Niw3LjY2NjgiLz48cGF0aCBpZD0icGF0aDU4IiBzdHlsZT0iZmlsbDojNDk3MjhiO2ZpbGwtb3BhY2l0eToxO2ZpbGwtcnVsZTpldmVub2RkO3N0cm9rZTpub25lIiBkPSJtIDY3LjM4MjgsNjcuNDM0IC0xNSwtMC42NjYgNC4zMzQsLTMgMTAuNjY2LC0xLjY2NjgiLz48cGF0aCBpZD0icGF0aDYwIiBzdHlsZT0iZmlsbDojMzM1MDYxO2ZpbGwtb3BhY2l0eToxO2ZpbGwtcnVsZTpldmVub2RkO3N0cm9rZTpub25lIiBkPSJtIDExOC43MTcsNzAuNzY4IDEyLjMzMywwLjMzMzIgMywtMzAuNjY3MiAtMTIuNjY3LC0xLjY2NiAtMi42NjYsMzIiLz48cGF0aCBpZD0icGF0aDYyIiBzdHlsZT0iZmlsbDojMzM1MDYxO2ZpbGwtb3BhY2l0eToxO2ZpbGwtcnVsZTpldmVub2RkO3N0cm9rZTpub25lIiBkPSJtIDEyMi4wNSw3MC43NjggMTguNjY3LDEgYyAwLDAgNy42NjYsMTkuMzMzMiA3LjY2NiwyMC4zMzMyIDAsMSA2LjY2NywyNy45OTk4IDYuNjY3LDI3Ljk5OTggbCAtMTUsMTUuNjY2IC0zLDIuNjY3IC04LC04IDAsLTMxIC03LC0yOC42NjYiLz48cGF0aCBpZD0icGF0aDY0IiBzdHlsZT0iZmlsbDojNDk3MjhiO2ZpbGwtb3BhY2l0eToxO2ZpbGwtcnVsZTpldmVub2RkO3N0cm9rZTpub25lIiBkPSJtIDEzMC4zODMsNzMuMTAxMiAtMTEuNjY2LC0yLjMzMzIgMS42NjYsLTkuMzM0IGMgNC4zMzMsLTIgMTEuNjY3LDMuMzM0IDExLjY2NywzLjMzNCIvPjxwYXRoIGlkPSJwYXRoNjYiIHN0eWxlPSJmaWxsOiM0OTcyOGI7ZmlsbC1vcGFjaXR5OjE7ZmlsbC1ydWxlOmV2ZW5vZGQ7c3Ryb2tlOm5vbmUiIGQ9Im0gMTMwLjcxNywxMzEuNDM0IDIzLjMzMywtMTcuMzMzIDAuNjY3LDggLTE3LjY2NywxNi4zMzMgLTYuMzMzLC03Ii8+PHBhdGggaWQ9InBhdGg2OCIgc3R5bGU9ImZpbGw6I2ZmZmZmZjtmaWxsLW9wYWNpdHk6MTtmaWxsLXJ1bGU6ZXZlbm9kZDtzdHJva2U6bm9uZSIgZD0iTSA3OC45NTA4LDUuMDk4MDUgNzIuMDQ5NiwzMy4xMDIgNjguNjE3Miw1My43NjQ4IDY4LjA0OTYsNjkuMTAyIGwgMzEuMjM0OCwxLjY2MjggMTkuNDMyNiwwLjAwMzIgLTEuNzY3LC0zNS4wMDMyIDMsLTI2Ljk5OTk2IC0wLjMzMywtNSAtMjUuMzMyNiwtMiAtMTUuMzMzNiwzLjMzMzIxIi8+PHBhdGggaWQ9InBhdGg3MCIgc3R5bGU9ImZpbGw6I2RjZDlkODtmaWxsLW9wYWNpdHk6MTtmaWxsLXJ1bGU6ZXZlbm9kZDtzdHJva2U6bm9uZSIgZD0ibSAxMTQuMzgzLDcxLjEwMTIgYyAwLDAgLTEuNjY2LC0zNC42NjcyIDMuMzM0LC01OS4zMzMyIDAsMCAtMTAsLTYuMzM0MDIgLTI0LjY2NzQsLTguMDAwMDMgbCAyOC4wMDA0LDEgMy4zMzMsMiAtNCw1NC42NjYwMyAtMSwxMS42NjgiLz48cGF0aCBpZD0icGF0aDcyIiBzdHlsZT0iZmlsbDojZmZmZmZmO2ZpbGwtb3BhY2l0eToxO2ZpbGwtcnVsZTpldmVub2RkO3N0cm9rZTpub25lIiBkPSJtIDEzNC42MTgsNDMuMDk4IDEzLDMuNjY2OCAyNC42NjYsMS4zMzMyIDMuNjY3LDExLjMzMjkgLTYuNjY3LDE5LjY2NzEgLTcuNjY2LDEgLTEwLjY2NywtMy4zMzMyIC0xMC4yMzQsLTQuOTk2OCAtNS40MzMsMC45OTY4IC00LjIzNCwtMS42NjM2Ii8+PHBhdGggaWQ9InBhdGg3NCIgc3R5bGU9ImZpbGw6I2RjZDlkODtmaWxsLW9wYWNpdHk6MTtmaWxsLXJ1bGU6ZXZlbm9kZDtzdHJva2U6bm9uZSIgZD0ibSAxMzQuMzgzLDQ5Ljc2OCBjIDAsMCA4LjY2NiwzLjk5OTIgMTAsMy42NjYgbCAtMy42NjYsMTguMzM0IDQuMzMzLDEuNjY2IGMgMCwwIDMsLTE3LjMzMjggMywtMTkuMzMyOCAwLDAgMTguNjY2LC0xIDIwLjMzMywtMSAwLDAgNCw3LjY2NjggMywxNS42NjY4IGwgMy42NjcsLTEwLjY2NjggMC4zMzMsLTYgLTUuMzMzLC04IC02LC0xLjMzMzIgLTEwLDAuMzMzMiAtMy4zMzMsNC4zMzI4IC0xMS42NjcsLTEuNjY2IC0zLjY2NywtMS4zMzQiLz48cGF0aCBpZD0icGF0aDc2IiBzdHlsZT0iZmlsbDojZmZmZmZmO2ZpbGwtb3BhY2l0eToxO2ZpbGwtcnVsZTpub256ZXJvO3N0cm9rZTpub25lIiBkPSJtIDEyMS4yODQsNzMuNDMwOSAtNy4zMzMsMTguNjY3MSAtNy42NjcsMTEgYyAwLDAgMS42NjYsNC42NjcgNCw0LjY2NyAyLjMzNCwwIDcuNjY3LDAgNy42NjcsMCBsIDcuMzMzLC0yLjY2NyAtMC42NjYsLTEyLjMzMzIgLTMuMzM0LC0xOS4zMzM5Ii8+PHBhdGggaWQ9InBhdGg3OCIgc3R5bGU9ImZpbGw6I2RjZDlkODtmaWxsLW9wYWNpdHk6MTtmaWxsLXJ1bGU6ZXZlbm9kZDtzdHJva2U6bm9uZSIgZD0ibSAxMjIuNzE3LDc5Ljc2OCBjIDAsMCAtOS4zMzQsMTcuOTk5MiAtOS4zMzQsMjAuNjY2IDAsMCAxLjY2Niw0IDQsMyAyLjMzNCwtMSA3LjMzNCwtMy42NjYgNy4zMzQsLTMuNjY2IGwgMCw2LjMzMyAtMTEuMzM0LDIuMzM0IC03LjY2NiwtMSAxMywtMzAuNjY3IDIuNjY2LC0wLjMzNCIvPjxwYXRoIGlkPSJwYXRoODAiIHN0eWxlPSJmaWxsOiNmZmZmZmY7ZmlsbC1vcGFjaXR5OjE7ZmlsbC1ydWxlOm5vbnplcm87c3Ryb2tlOm5vbmUiIGQ9Im0gODEuOTUxMiwxMjMuNzY0IC05LjIzNDQsMS4wMDQgLTguNjY3MiwyLjY2NyAwLC0zIDQuMjM0OCwtNC42NyAxMy4zMzMyLC02Ii8+PHBhdGggaWQ9InBhdGg4MiIgc3R5bGU9ImZpbGw6I2RjZDlkODtmaWxsLW9wYWNpdHk6MTtmaWxsLXJ1bGU6ZXZlbm9kZDtzdHJva2U6bm9uZSIgZD0ibSA2Ny4wNTA4LDEyMi43NjUgYyAwLDAgMTAuMzM0LC00LjMzNCAxMy42NjcyLC0zLjMzNCBsIDAuMzMxNiwtMy45OTYgLTkuMzMxNiwxLjk5NiAtNS42NjcyLDQgMSwxLjMzNCIvPjxwYXRoIGlkPSJwYXRoODQiIHN0eWxlPSJmaWxsOiNkMzM4MzM7ZmlsbC1vcGFjaXR5OjE7ZmlsbC1ydWxlOmV2ZW5vZGQ7c3Ryb2tlOm5vbmUiIGQ9Im0gMTM0LjU4MiwxMDYuNjMgYyAtNS42NTYsMC4xNjYgLTEwLjc2NiwwLjgzOCAtMTUuMjQsMi4xIDAuMzA0LDEuODM0IC0wLjI2NSwzLjYzNCAwLjE5Miw0Ljk1NSAxLjI0NywwLjg5OCAzLjMzNywwLjg4NCA1LjIyMiwxLjA5NSAtMS42MywwLjgwMSAtMy45MiwxLjExOCAtNS44MDEsMC42NTUgLTAuMDQ0LDEuMjczIC0wLjYxNSwyLjA2MiAtMC45NjEsMy4wNTggMy4xOCwxLjEzNSAxMC42ODcsOC41NzYgMTQuOTEsNi4xMTIgMi4wMTIsLTEuMTcyIDIuODY3LC03Ljg2NiAzLjAyMywtMTEuMTIxIDAuMTMsLTIuNyAtMC4yNDUsLTUuNDI0IC0xLjM0NSwtNi44NTQiLz48cGF0aCBpZD0icGF0aDg2IiBzdHlsZT0iZmlsbDpub25lO3N0cm9rZTojZDMzODMzO3N0cm9rZS13aWR0aDoyO3N0cm9rZS1saW5lY2FwOmJ1dHQ7c3Ryb2tlLWxpbmVqb2luOm1pdGVyO3N0cm9rZS1taXRlcmxpbWl0OjQ7c3Ryb2tlLW9wYWNpdHk6MTtzdHJva2UtZGFzaGFycmF5Om5vbmUiIGQ9Im0gMTM0LjU4MiwxMDYuNjMgYyAtNS42NTYsMC4xNjYgLTEwLjc2NiwwLjgzOCAtMTUuMjQsMi4xIDAuMzA0LDEuODM0IC0wLjI2NSwzLjYzNCAwLjE5Miw0Ljk1NSAxLjI0NywwLjg5OCAzLjMzNywwLjg4NCA1LjIyMiwxLjA5NSAtMS42MywwLjgwMSAtMy45MiwxLjExOCAtNS44MDEsMC42NTUgLTAuMDQ0LDEuMjczIC0wLjYxNSwyLjA2MiAtMC45NjEsMy4wNTggMy4xOCwxLjEzNSAxMC42ODcsOC41NzYgMTQuOTEsNi4xMTIgMi4wMTIsLTEuMTcyIDIuODY3LC03Ljg2NiAzLjAyMywtMTEuMTIxIDAuMTMsLTIuNyAtMC4yNDUsLTUuNDI0IC0xLjM0NSwtNi44NTQgeiIvPjxwYXRoIGlkPSJwYXRoODgiIHN0eWxlPSJmaWxsOiNkMzM4MzM7ZmlsbC1vcGFjaXR5OjE7ZmlsbC1ydWxlOmV2ZW5vZGQ7c3Ryb2tlOm5vbmUiIGQ9Im0gMTA3LjUzNSwxMTUuODc2IGMgLTAuMDE1LC0wLjQyOCAtMC4wMzMsLTAuODU5IC0wLjA1LC0xLjI5MSAtMS43NjYsLTEuMTYgLTQuNjE3LC0xLjE0NiAtNi41NTUsLTIuMTIxIDIuODU3LC0wLjEyNSA1LjEwNiwtMC44MTMgNy4wNTIsLTEuNzgzIC0wLjA0MywtMS4wNzggLTAuMDg0LC0yLjE1NSAtMC4xMjYsLTMuMjMzIC0zLjIzNywtMi4yMTYgLTYuMTk0LC01LjUxNiAtMTAuMDA1MiwtNy41OTQxIC0xLjgwMiwtMC45ODI4IC04LjEyNjIsLTMuNTExNyAtMTAuMDQzNCwtMy4wNjQ4IC0xLjA4NDcsMC4yNTE5IC0xLjE4MjQsMS41OTggLTEuNjE2LDIuODY2OCAtMC45MjM4LDIuNzE3MSAtMy4wNTA4LDcuMDQyMSAtMy4yMzYzLDExLjEzMjEgLTAuMjM2Myw1LjE2NiAtMC43NTc4LDEzLjgyNCA0LjgwOTQsMTIuNzYgNC40OTE0LC0wLjg1NyA5LjcxNTIsLTIuOTI2IDEzLjE5MjUsLTQuODI2IDIuMTI1LC0xLjE2MiAzLjM1NCwtMi41OTggNi41NzgsLTIuODQ2Ii8+PHBhdGggaWQ9InBhdGg5MCIgc3R5bGU9ImZpbGw6bm9uZTtzdHJva2U6I2QzMzgzMztzdHJva2Utd2lkdGg6MjtzdHJva2UtbGluZWNhcDpidXR0O3N0cm9rZS1saW5lam9pbjptaXRlcjtzdHJva2UtbWl0ZXJsaW1pdDo0O3N0cm9rZS1vcGFjaXR5OjE7c3Ryb2tlLWRhc2hhcnJheTpub25lIiBkPSJtIDEwNy41MzUsMTE1Ljg3NiBjIC0wLjAxNSwtMC40MjggLTAuMDMzLC0wLjg1OSAtMC4wNSwtMS4yOTEgLTEuNzY2LC0xLjE2IC00LjYxNywtMS4xNDYgLTYuNTU1LC0yLjEyMSAyLjg1NywtMC4xMjUgNS4xMDYsLTAuODEzIDcuMDUyLC0xLjc4MyAtMC4wNDMsLTEuMDc4IC0wLjA4NCwtMi4xNTUgLTAuMTI2LC0zLjIzMyAtMy4yMzcsLTIuMjE2IC02LjE5NCwtNS41MTYgLTEwLjAwNTIsLTcuNTk0MSAtMS44MDIsLTAuOTgyOCAtOC4xMjYyLC0zLjUxMTcgLTEwLjA0MzQsLTMuMDY0OCAtMS4wODQ3LDAuMjUxOSAtMS4xODI0LDEuNTk4IC0xLjYxNiwyLjg2NjggLTAuOTIzOCwyLjcxNzEgLTMuMDUwOCw3LjA0MjEgLTMuMjM2MywxMS4xMzIxIC0wLjIzNjMsNS4xNjYgLTAuNzU3OCwxMy44MjQgNC44MDk0LDEyLjc2IDQuNDkxNCwtMC44NTcgOS43MTUyLC0yLjkyNiAxMy4xOTI1LC00LjgyNiAyLjEyNSwtMS4xNjIgMy4zNTQsLTIuNTk4IDYuNTc4LC0yLjg0NiB6Ii8+PHBhdGggaWQ9InBhdGg5MiIgc3R5bGU9ImZpbGw6I2QzMzgzMztmaWxsLW9wYWNpdHk6MTtmaWxsLXJ1bGU6ZXZlbm9kZDtzdHJva2U6bm9uZSIgZD0ibSAxMTAuNzUsMTA5LjcxMiBjIC0wLjQ5NCwyLjgxNCAtMS4wNjUsMy42MTcgLTAuODQ0LDYuMDcyIDcuNTA1LDUuMDA0IDguOTE0LC04LjU5NSAwLjg0NCwtNi4wNzIiLz48cGF0aCBpZD0icGF0aDk0IiBzdHlsZT0iZmlsbDpub25lO3N0cm9rZTojZDMzODMzO3N0cm9rZS13aWR0aDoyO3N0cm9rZS1saW5lY2FwOmJ1dHQ7c3Ryb2tlLWxpbmVqb2luOm1pdGVyO3N0cm9rZS1taXRlcmxpbWl0OjQ7c3Ryb2tlLW9wYWNpdHk6MTtzdHJva2UtZGFzaGFycmF5Om5vbmUiIGQ9Im0gMTEwLjc1LDEwOS43MTIgYyAtMC40OTQsMi44MTQgLTEuMDY1LDMuNjE3IC0wLjg0NCw2LjA3MiA3LjUwNSw1LjAwNCA4LjkxNCwtOC41OTUgMC44NDQsLTYuMDcyIHoiLz48cGF0aCBpZD0icGF0aDk2IiBzdHlsZT0iZmlsbDojZWYzZDNhO2ZpbGwtb3BhY2l0eToxO2ZpbGwtcnVsZTpldmVub2RkO3N0cm9rZTpub25lIiBkPSJtIDEyMS42MTcsMTA3LjQzMSBjIDAsMCAtMi4zMzQsMy4zMzQgLTAuNjY3LDQuMzM0IDEuNjY3LDEgMy4zMzQsLTAuMDAxIDQuMzM0LDEuNjY2IDEsMS42NjcgMCwyLjY2NyAwLjMzMyw0LjY2NyAwLjMzMywyIDIuMDAxLDIuMzM0IDMuNjY3LDIuNjY3IDEuNjY2LDAuMzMzIDYuMzM0LDEgNywtMC42NjcgbCAtMiw2IC00LDEuMzMzIC0xMi42NjcsLTcuMzMzIC0wLjY2NywtMy42NjcgMCwtNy4zMzMiLz48cGF0aCBpZD0icGF0aDk4IiBzdHlsZT0iZmlsbDojZWYzZDNhO2ZpbGwtb3BhY2l0eToxO2ZpbGwtcnVsZTpldmVub2RkO3N0cm9rZTpub25lIiBkPSJtIDg2LjYxNzIsOTYuNDMwOSBjIC0wLjQwMDQsNS4yMDIxIC0wLjgyNDIsMTAuMzk3MSAtMS4yOTU3LDE1LjU5NDEgLTAuNzA1NSw3Ljc2IDEuODY0LDYuNDA2IDguNTkwNiw2LjQwNiAxLjAyNzQsMCA2LjMyNTksLTEuMjI1IDYuNzA0OSwtMiAxLjgxOCwtMy43MTMgLTMuMDQsLTIuODg4IDIuMDk0LC01LjY4OCA0LjMzNCwtMi4zNjMgMTEuOTksMS40MzUgMTAuMjM5LDYuNjg4IC0wLjk4LDEuMTY4IC01LjEwNiwwLjM2NCAtNi41ODUsMS4xMzEgLTIuNjA0LDEuMzUgLTUuMjA4LDIuNyAtNy44MTIzLDQuMDUgLTMuMzEzMiwxLjcxOSAtMTAuOTcwNyw0LjIyNSAtMTQuNTAzMSwxLjgyMyAtOC45NTA0LC02LjA4NyAwLjU2NDksLTIxLjI5NiAzLjc1NzgsLTI3LjY0NTkiLz48cGF0aCBpZD0icGF0aDEwMCIgc3R5bGU9ImZpbGw6IzIzMWYyMDtmaWxsLW9wYWNpdHk6MTtmaWxsLXJ1bGU6ZXZlbm9kZDtzdHJva2U6bm9uZSIgZD0ibSA5NS4zODg3LDIxNC41MzIgYyAtOS4wODUyLDIuMTE2IC0xMy41OTk2LC0zLjgwMiAtMTYuMzUzNSwtOS45NCAtMi40NTksMC41OTYgLTEuNDgwNSwzLjk0IC0wLjg1OTQsNS42NDQgMS42MjYyLDQuNDcyIDguMTc5NywxMC40MjUgMTMuNTM0NCw5LjYxOCAyLjMwNDMsLTAuMzQ3IDUuNDIyNiwtMi40NTQgMy42Nzg1LC01LjMyMiIvPjxwYXRoIGlkPSJwYXRoMTAyIiBzdHlsZT0iZmlsbDojMjMxZjIwO2ZpbGwtb3BhY2l0eToxO2ZpbGwtcnVsZTpldmVub2RkO3N0cm9rZTpub25lIiBkPSJtIDEzOS42NTUsMjA0LjE4NiBjIDAuMTQzLC0wLjAwNiAwLjI4OCwtMC4wMTEgMC40MzEsLTAuMDE3IDIuMDUzLC00LjI2NSAzLjgzLC04Ljc4MyA2LjQyLC0xMi41NDggLTEuNzM1LC00LjA0MSAtMTMuMTM4LC03LjYxNyAtMTIuOTYyLC0wLjM2MSAyLjQ2NiwxLjA3OCA2LjcyMywwLjIyIDguOTA5LDEuNTk3IC0xLjI2NCwzLjQ2OSAtMy4wODgsNi40MjIgLTIuNzk4LDExLjMyOSIvPjxwYXRoIGlkPSJwYXRoMTA0IiBzdHlsZT0iZmlsbDojMjMxZjIwO2ZpbGwtb3BhY2l0eToxO2ZpbGwtcnVsZTpldmVub2RkO3N0cm9rZTpub25lIiBkPSJtIDEwMC4wNCwyMDQuMDc1IGMgMS45NDgsLTMuNTcxIDIuNTgyLC03LjMyMyA1LjM1MSwtMTAuMDIyIDEuMjQ3LC0xLjIxNSAzLjY3MiwtMi42OTYgMi40NywtNi4wNzUgLTAuMjgxLC0wLjc5NyAtMi4zMzQsLTIuNTc0IC0zLjUxOSwtMi45MjMgLTQuMzI5LC0xLjI3OCAtMTQuNDE2MiwtMC4yNjQgLTExLjAwMDIsNS4xMzMgMy41ODAxLC0wLjE2NyA4LjM5MjIsLTIuMzI1IDExLjA2ODIsMC4yNzQgLTIuMDU1LDMuMjg1IC01LjcxODYsOS43ODQgLTQuMzcsMTMuNjEzIi8+PHBhdGggaWQ9InBhdGgxMDYiIHN0eWxlPSJmaWxsOiMyMzFmMjA7ZmlsbC1vcGFjaXR5OjE7ZmlsbC1ydWxlOmV2ZW5vZGQ7c3Ryb2tlOm5vbmUiIGQ9Im0gMTM4LjAzLDE2Ny43ODEgYyAtNi41MTgsLTQuMTg3IC0xMy43ODYsLTguNzQgLTI0LjQ2NiwtNy42ODQgLTIuMjgyLDEuOTg0IC0zLjE1Miw2LjM5OSAtMC45MzUsOS4zMTUgMS4xNTQsLTEuOTg0IDAuNDI5LC01LjYzMyAzLjY0NSwtNi4xODIgNi4wNiwtMS4wMzcgMTMuMTEzLDMuNzA3IDE3LjQ3Miw1LjM2NSAyLjcwMyw0LjU1NyAtMC4yMzMsNi4yMzMgLTIuNjY4LDkuMTY2IC00Ljk4NSw2LjAwOSAtMTEuNjcyLDEzLjQ1NyAtMTEuNDI5LDIyLjQ1MyAyLjAxNSwxLjQ2MSAyLjE4OSwtMi4yMyAyLjQ3OCwtMi45MDIgMi42MDMsLTYuMDkyIDkuMTU0LC0xMy44ODMgMTMuOTM1LC0xOS4wOTcgMS4xNzQsLTEuMjg0IDMuMTA3LC0yLjUxNiAzLjMyMiwtMy4zNjUgMC42MiwtMi40NjkgLTEuNjEzLC01LjQyNyAtMS4zNTQsLTcuMDY5Ii8+PHBhdGggaWQ9InBhdGgxMDgiIHN0eWxlPSJmaWxsOiMyMzFmMjA7ZmlsbC1vcGFjaXR5OjE7ZmlsbC1ydWxlOmV2ZW5vZGQ7c3Ryb2tlOm5vbmUiIGQ9Im0gNTIuMTAxNiwxNzIuMTg5IGMgLTIuMDQzLDEuMTY2IC0yLjUyOTMsNi4zMDIgLTQuOTI3OCw2LjQ0OCAtMy40Mjc3LDAuMjA4IC0yLjgwMjcsLTYuNjYzIC0yLjc4OSwtMTAuNjgxIC0yLjM1OTQsMi4xNDIgLTIuNzc0Myw4LjczNyAtMS4wNDEsMTIuMTI0IC0xLjk3NTQsMC45NyAtMi44NTc1LC0xLjA3IC0zLjk1MzIsLTEuNzg5IDEuNDA4MiwxMC4yMyAxNC45NjQ5LDQuNzQ1IDEyLjcxMSwtNi4xMDIiLz48cGF0aCBpZD0icGF0aDExMCIgc3R5bGU9ImZpbGw6IzIzMWYyMDtmaWxsLW9wYWNpdHk6MTtmaWxsLXJ1bGU6ZXZlbm9kZDtzdHJva2U6bm9uZSIgZD0ibSAxNDIuMTgsMTYzLjUyMSBjIC0zLjAzNCwtNS43NzUgLTcuMzI2LC0xMi4xMzUgLTE2LjIyOSwtMTIuMzIgLTAuMTgxLDEuODY1IC0wLjMyLDQuNzAzIDAuMDEsNS44MjYgNi44MDYsMC42NTQgMTEuMDA4LDQuMTE4IDE2LjIxOSw2LjQ5NCIvPjxwYXRoIGlkPSJwYXRoMTEyIiBzdHlsZT0iZmlsbDojMjMxZjIwO2ZpbGwtb3BhY2l0eToxO2ZpbGwtcnVsZTpldmVub2RkO3N0cm9rZTpub25lIiBkPSJtIDk5LjUyNjYsMTU5Ljc3NyBjIDUuNjc4NCwtMi45ODYgMTYuMTE0NCwtMy4zMDcgMjMuODMyNCwtMy4wODEgMC40MTQsLTEuNjkxIDAuNDA0LC0zLjc4IDAuNDIsLTUuODQyIC05LjkyMSwtMC40OTUgLTIxLjY1MSwxLjk2IC0yNC4yNTI0LDguOTIzIi8+PHBhdGggaWQ9InBhdGgxMTQiIHN0eWxlPSJmaWxsOiMyMzFmMjA7ZmlsbC1vcGFjaXR5OjE7ZmlsbC1ydWxlOmV2ZW5vZGQ7c3Ryb2tlOm5vbmUiIGQ9Im0gOTguNDQ3MywxNTQuMjA5IGMgMy45MjY3LC05Ljg1OSAxNy40MjI3LC04LjcyNCAyOC44MDM3LC04LjQ1MiAtMC41MDEsLTEuMjggLTEuNTg3LC0yLjc5MiAtMi45MzcsLTMuMzM5IC0zLjY0NywtMS40ODQgLTEzLjcwNiwtMi42MSAtMTguNzY5LDAuMDc5IC0zLjIxMSwxLjcwNyAtNS4yNzQsNS41NjQgLTcuMDMzMyw3LjgyNSAtMC44NDk2LDEuMDkyIC01LjA4MDEsMy44ODEgLTAuMDY0NCwzLjg4NyIvPjxwYXRoIGlkPSJwYXRoMTE2IiBzdHlsZT0iZmlsbDojODFiMGM0O2ZpbGwtb3BhY2l0eToxO2ZpbGwtcnVsZTpldmVub2RkO3N0cm9rZTpub25lIiBkPSJtIDEzNy41NTYsOTkuODI2MiBjIC00LjYwOCwtNy44OTIyIC05LjAxNywtMTUuOTk4MSAtMTQuNDg0LC0yMi45NTk0IDIuMjkyLDYuNzM5MSAzLjI3MywxOC4wMTg0IDMuNjE5LDI2LjYxNzIgNC43OTUsMi4yNDQgOC45MDEsLTAuNTA1IDEwLjg2NSwtMy42NTc4Ii8+PHBhdGggaWQ9InBhdGgxMTgiIHN0eWxlPSJmaWxsOiMyMzFmMjA7ZmlsbC1vcGFjaXR5OjE7ZmlsbC1ydWxlOmV2ZW5vZGQ7c3Ryb2tlOm5vbmUiIGQ9Im0gMTYyLjM1Miw3MS40NjA5IGMgLTUuMTU5LC0xLjAzMjggLTguNzg0LC02LjA0NjggLTEzLjgxNywtNS43MjUgMi43NjYsMy44OTkzIDcuNjEzLDUuNTQzIDEzLjgxNyw1LjcyNSIvPjxwYXRoIGlkPSJwYXRoMTIwIiBzdHlsZT0iZmlsbDojMjMxZjIwO2ZpbGwtb3BhY2l0eToxO2ZpbGwtcnVsZTpldmVub2RkO3N0cm9rZTpub25lIiBkPSJtIDE2NC42MjgsNjMuMzg3MSBjIC00LjIwNSwtMC40NDQxIC05LjE0NCwtMS4xMjUgLTEzLjQwOSwtMC43NzQyIDIuMDE5LDMuMDg0IDkuNzk4LDIuMDE5OSAxMy40MDksMC43NzQyIi8+PHBhdGggaWQ9InBhdGgxMjIiIHN0eWxlPSJmaWxsOiMyMzFmMjA7ZmlsbC1vcGFjaXR5OjE7ZmlsbC1ydWxlOmV2ZW5vZGQ7c3Ryb2tlOm5vbmUiIGQ9Im0gMTY2LjA4NSw1Ni40MjYyIGMgLTQuNzI2LC0wLjEwMjQgLTEwLjYsLTAuMDA4MiAtMTUuMDkyLDAuMzY4NyAyLjY1NywyLjg1MzkgMTIuMDI3LDEuMDU5IDE1LjA5MiwtMC4zNjg3Ii8+PHBhdGggaWQ9InBhdGgxMjQiIHN0eWxlPSJmaWxsOiNkY2Q5ZDg7ZmlsbC1vcGFjaXR5OjE7ZmlsbC1ydWxlOmV2ZW5vZGQ7c3Ryb2tlOm5vbmUiIGQ9Im0gMTI4LjY2NCwzNy4zNzcgYyAwLjY3OCwtNS45MzUyIDMuMDMxLC0xMS45NDg5IDIuNzM2LC0xOC40NDg5IC0yLjYxMywtMC44ODEyIC00LjExNCwtMS42NTE5IC03LjYxNSwtMS42NDcyIC0wLjI0Nyw1LjUyNDIgLTAuOTg2LDEzLjk2OTEgLTAuNzY1LDE5LjIzNTEgMS43MjIsLTAuMTE0IDQuMjYxLDEuMjMwMSA1LjY0NCwwLjg2MSIvPjxwYXRoIGlkPSJwYXRoMTI2IiBzdHlsZT0iZmlsbDojZjBkNmI3O2ZpbGwtb3BhY2l0eToxO2ZpbGwtcnVsZTpldmVub2RkO3N0cm9rZTpub25lIiBkPSJtIDEyMS4wNDUsMTI0Ljg0OSBjIC0yLjM3MywtMS41NDkgLTQuMzk0LC0zLjQ4MyAtNi42NzMsLTUuMTM3IC01LjA1NCwtMC4yNSAtNy44MTIsMC4zNSAtMTEuNTI1LDMuMjUyIDAuMDYxLDAuMjMzIDAuNDM0LDAuMTI5IDAuNDQ4LDAuNDE1IDUuNDEsLTIuNDExIDEyLjI4NywwLjk4MiAxNy43NSwxLjQ3Ii8+PHBhdGggaWQ9InBhdGgxMjgiIHN0eWxlPSJmaWxsOiM4MWIwYzQ7ZmlsbC1vcGFjaXR5OjE7ZmlsbC1ydWxlOmV2ZW5vZGQ7c3Ryb2tlOm5vbmUiIGQ9Im0gOTIuNjQ0NSw4Ny45NzExIGMgMS40ODY0LDYuNDQxIDcuMzEwNiw5Ljc3NjkgMTIuNTk5NSwxMy4zMjM5IDUuNDU5LC02LjkyODIgOC43NzksLTE1LjgzOCAxMi40MzUsLTI0LjQzNiAtOC42MzgsMi42MDM5IC0xNy40NjQsNi44Mjg5IC0yNS4wMzQ1LDExLjExMjEiLz48cGF0aCBpZD0icGF0aDEzMCIgc3R5bGU9ImZpbGw6IzIzMWYyMDtmaWxsLW9wYWNpdHk6MTtmaWxsLXJ1bGU6ZXZlbm9kZDtzdHJva2U6bm9uZSIgZD0ibSAxMjMuMDIsMzYuNTE2IGMgLTAuMjIxLC01LjI2NiAwLjUxOCwtMTMuNzEwOSAwLjc2NSwtMTkuMjM1MSAzLjUwMSwtMC4wMDQ3IDUuMDAyLDAuNzY2IDcuNjE1LDEuNjQ3MiAwLjI5NSw2LjUgLTIuMDU4LDEyLjUxMzcgLTIuNzM2LDE4LjQ0ODkgLTEuMzgzLDAuMzY5MSAtMy45MjIsLTAuOTc1IC01LjY0NCwtMC44NjEgeiBNIDY4LjUwNTksNjYuNDY0OCBDIDcwLjgxNDUsNDUuMjQxOCA3NC4xNTgyLDI3LjQwMTIgODAuMjkxLDguNjA3ODEgOTMuOTAyMyw0LjQ3NSAxMTAuMzExLDQuMTE0ODQgMTIyLjM0Miw3Ljg0NDE0IDEyMC4xMzMsMTguNDUxMiAxMjEuMDk4LDMxLjM2NDggMTE5LjgwNyw0Mi42ODQgYyAtMC45NzMsOC41MDc4IC0wLjQ3NywxNy4wNjggLTEuODExLDI1Ljc0OCAtMTQuNTc4LDMuMDMyOCAtMzUuMTgzNSwwLjcwOSAtNDkuNDkwMSwtMS45NjcyIHogbSA1Mi45MzcxLDEuODM0IGMgLTAuMTIzLC05LjExNDggMC40MDgsLTE4LjEwNTggMS4xMDQsLTI3LjIzMiAzLjUsMC41MjU0IDUuODc1LDAuODc2MiA5LjEyNywxLjU4OTEgLTEuMDU2LDguNzg1OSAtMC45MjYsMTguNjcyMiAtMy4wNzcsMjYuNDQ0MSAtMi40ODYsLTAuMDIzOCAtNC42NzUsMC4wMjg5IC03LjE1NCwtMC44MDEyIHogbSAxNy43NTUsMS40NjkyIGMgLTEuNjYxLDAuMzgwOCAtMy41OTUsMC4wMTQ4IC01LjE4MiwtMC4wMTYgMC43NDYsLTcuNDMwMSAyLjU1NiwtMTUuNjI5IDMuMTkzLC0yMy40MjgyIDIuNDk3LC0wLjA3NzcgMy44MzEsMS4xIDUuODg1LDEuNDk2MSAwLjExLDYuODQ2MSAtMC41OTgsMTYuMjc4MSAtMy44OTYsMjEuOTQ4MSB6IG0gMjYuODg0LC0yNC41NjI5IGMgNS4yMDUsMS4yNjQgOC40NzgsNy42MzkgNy4wMjIsMTQuMTg1OSAtMC45NzcsNC40IC0yLjcxNywxMi42ODUyIC00LjU3OSwxNS41IC0xLjM3NiwyLjA4MiAtNS4xMDcsNC44MDc4IC04LjA4NiwyLjkgLTQuODQ2LC0zLjEwMzEgLTEzLjM4MywtNC4wMDM5IC0xNi45MTcsLTcuNzYwMSAxLjc3MiwtNS45IDIuMzIyLC0xNC4wMDM5IDMuMDUzLC0yMS40Nzk3IDYuMDU0LC0wLjM3NzQgMTMuNTAzLDEuNjY2IDE4LjUzOCwtMC41MDI0IC0zLjUxNSwtMS4xMzg2IC04LjA3NiwtMS4xNDc2IC0xMS4xMTMsLTIuODA3IDIuNDgyLC0xLjE5ODggOC4yOTMsLTAuOTU2NiAxMi4wODIsLTAuMDM2NyB6IE0gMTE3LjY3OSw3Ni44NTkgYyAtMy42NTYsOC41OTggLTYuOTc2LDE3LjUwNzggLTEyLjQzNSwyNC40MzYgQyA5OS45NTUxLDk3Ljc0OCA5NC4xMzA5LDk0LjQxMjEgOTIuNjQ0NSw4Ny45NzExIDEwMC4yMTUsODMuNjg3OSAxMDkuMDQxLDc5LjQ2MjkgMTE3LjY3OSw3Ni44NTkgeiBtIDkuMDEyLDI2LjYyNSBjIC0wLjM0NiwtOC41OTg4IC0xLjMyNywtMTkuODc4MSAtMy42MTksLTI2LjYxNzIgNS40NjcsNi45NjEzIDkuODc2LDE1LjA2NzIgMTQuNDg0LDIyLjk1OTQgLTEuOTY0LDMuMTUyOCAtNi4wNyw1LjkwMTggLTEwLjg2NSwzLjY1NzggeiBtIC0xMC4yMTYsMy42MyBjIC0yLjA3MSwwLjIyMyAtMy44MjksLTIuMzgxIC02LjUyMiwtMS4yNTUgLTAuNjE3LC0wLjY4MiAtMS4xNzgsLTEuNDIxIC0xLjgwNywtMi4wODcgNS45NDgsLTcuMTY4MSA4LjY1MSwtMTcuMzM4IDEzLjI0NSwtMjUuNzYxOCAyLjQ2NSw4LjA5MTggMi4xODEsMTYuOTU3IDIuNzI0LDI1Ljc4ODggLTMuMzg3LC0wLjIxNSAtNS4yNjYsMy4wNjMgLTcuNjQsMy4zMTUgeiBtIC02LjU2OSw4LjY3IGMgLTAuMjIxLC0yLjQ1NSAwLjM1LC0zLjI1OCAwLjg0NCwtNi4wNzIgOC4wNywtMi41MjMgNi42NjEsMTEuMDc2IC0wLjg0NCw2LjA3MiB6IG0gLTguOTQ5LDIuOTM4IGMgLTMuNDc3MywxLjkgLTguNzAxMSwzLjk2OSAtMTMuMTkyNSw0LjgyNiAtNS41NjcyLDEuMDY1IC01LjA0NTcsLTcuNTk0IC00LjgwOTQsLTEyLjc2IDAuMTg1NSwtNC4wOSAyLjMxMjUsLTguNDE1IDMuMjM2MywtMTEuMTMyMSAwLjQzMzYsLTEuMjY4OCAwLjUzMTMsLTIuNjE0OSAxLjYxNiwtMi44NjY4IDEuOTE3MiwtMC40NDY5IDguMjQxNCwyLjA4MiAxMC4wNDM0LDMuMDY0OCAzLjgxMTIsMi4wNzgxIDYuNzY4Miw1LjM3ODEgMTAuMDA1Miw3LjU5NDEgMC4wNDIsMS4wNzggMC4wODMsMi4xNTUgMC4xMjYsMy4yMzMgLTEuOTQ2LDAuOTcgLTQuMTk1LDEuNjU4IC03LjA1MiwxLjc4MyAxLjkzOCwwLjk3NSA0Ljc4OSwwLjk2MSA2LjU1NSwyLjEyMSAwLjAxNywwLjQzMiAwLjAzNSwwLjg2MyAwLjA1LDEuMjkxIC0zLjIyNCwwLjI0OCAtNC40NTMsMS42ODQgLTYuNTc4LDIuODQ2IHogbSAtMzMuMjEzNiw2LjAzMyBjIC0yLjg4NiwtMi45MyA4LjA5NDUsLTYuOTI0IDExLjU5MDYsLTcuMTM5IC0wLjAxOTUsMS44NTQgMS4wNTY2LDMuNjAyIDAuODM5OCw0LjkzMiAtNC4xNTIzLDAuNzI5IC05LjYwOTMsMC4yNDggLTEyLjQzMDQsMi4yMDcgeiBtIDM1LjU1MTYsLTEuMzc2IGMgLTAuMDE0LC0wLjI4NiAtMC4zODcsLTAuMTgyIC0wLjQ0OCwtMC40MTUgMy43MTMsLTIuOTAyIDYuNDcxLC0zLjUwMiAxMS41MjUsLTMuMjUyIDIuMjc5LDEuNjU0IDQuMywzLjU4OCA2LjY3Myw1LjEzNyAtNS40NjMsLTAuNDg4IC0xMi4zNCwtMy44ODEgLTE3Ljc1LC0xLjQ3IHogbSAzMi42MzIsLTkuODk1IGMgLTAuMTU2LDMuMjU1IC0xLjAxMSw5Ljk0OSAtMy4wMjMsMTEuMTIxIC00LjIyMywyLjQ2NSAtMTEuNzMsLTQuOTc3IC0xNC45MSwtNi4xMTIgMC4zNDYsLTAuOTk2IDAuOTE3LC0xLjc4NSAwLjk2MSwtMy4wNTggMS44ODEsMC40NjMgNC4xNzEsMC4xNDYgNS44MDEsLTAuNjU1IC0xLjg4NSwtMC4yMTEgLTMuOTc1LC0wLjE5NyAtNS4yMjIsLTEuMDk1IC0wLjQ1NywtMS4zMjEgMC4xMTIsLTMuMTIxIC0wLjE5MiwtNC45NTUgNC40NzQsLTEuMjYyIDkuNTg0LC0xLjkzNCAxNS4yNCwtMi4xIDEuMSwxLjQzIDEuNDc1LDQuMTU0IDEuMzQ1LDYuODU0IHogbSAtNzMuMDQyMiw4LjQzNyBjIC0wLjkwNjMsMC42NDYgLTcuMDM3MSw4LjYyMyAtNy44NzcsOC4yOTIgQyA0My45MTQxLDEyNS44MzggMzMuNTQxLDExOC4yNzMgMjQuMjcxNSwxMTEuMTE4IDMzLjEwOTQsOTIuMTUzOSAzNi42NzcsNjguOTE5OSAzNy4zMDc0LDQ2LjUyNjIgNDcuNDMxNiw0MS43OTEgNTYuMzI0MiwzNC45NjQ4IDcwLjA2MjUsMzQuMjUyIDY4LjQ3MjcsNDUuNSA2Ny4wMjE1LDU1LjUzNTIgNjYuMTE5MSw2Ni4xMjUgYyAtMy40NTE5LDEuNDU1MSAtOC40MDQzLC0wLjA2NiAtMTEuNjM0NywwLjQ1MTIgLTAuMDI3NCwzLjg5MjkgNC45MzM2LDEuNzA0NyA1LjM0NjgsNC4zMjI2IDAuMzExNCwxLjk4MDEgLTIuNzI5NiwyLjEzMDEgLTEuNzM5NCw1LjI0ODEgMi41MjU0LC0wLjkxOCAzLjg1MTYsLTIuOTQ1NyA2LjU0NDksLTMuNzA3MSAyLjQ2MSw1LjM4NCAtMC4wMzQ0LDE0LjkxMDIgMC4zMjAzLDE5LjQxMDIgMC4wNjcyLDAuODQ0OSAwLjQyMTksNC42ODA5IDIuMzE0NSw0LjAwNzggMS42NzUsLTAuNTk1NyAtMC4wOTU3LC0xMC4yMDE5IDAuMDg3OSwtMTQuNDYwOSAwLjE2NzIsLTMuOTIzOSAtMC40NzM5LC03LjcyMDcgMS4xMTUyLC0xMC4xODQgMTMuMjc1NCwxLjgwNyAyNi43NjU2LDIuOTc1IDQxLjEyOTQsMy4zNjkxIC0zLjE2LDEuMzU1OSAtNi45MTQsMi42MzkxIC0xMS4wMjk4LDQuOTU5IC0yLjIzMTIsMS4yNTc4IC05LjI2NDQsMy44NzUgLTkuOTA4Miw1Ljk5NDIgLTEuMDI3MywzLjM3NjkgMi42OTUzLDUuMTc1NyAzLjMzMiw4LjA3MDcgLTYuNzAxMSwtMy42NTQ3IC04LjAwODUsMy41MDMxIC05LjU5MzcsOC41NzQxIC0xLjQzNjMsNC41OTMgLTIuMjUzOSw4LjAyNCAtMi42MDYzLDEwLjY3MyAtNS43NzI2LDIuNzUyIC0xMS45NDQ1LDUuNTM5IC0xNi45MTMyLDkuMDY4IHogbSA2Ny4xNzkyLDcuMzI3IGMgOS4yNDMsNC40ODIgMTAuOTA5LC0xNi43NTEgNy4yODYsLTIzLjU5MSAwLjU2LC0yLjA0IDIuNDg2LC0yLjgyMSAzLjI3MiwtNC42NTUgLTUuMTU4LC05LjIzOTkgLTEwLjg4NywtMTcuODY0OSAtMTYuMTUsLTI2Ljk5NjEgMy45MTUsMi40MzcxIDkuNTA3LDAuNDM1OSAxNC4xMTQsMi4yNjAxIDEuNjg0LDAuNjY2IDIuOTAzLDQuNTIxMSA0LjE3OCw3LjYwNTEgMy41MDcsOC40ODQ4IDcuMTg5LDE5LjE4MTkgOC44MjcsMjcuMjc4OSAwLjM3LDEuODQ1IDEuMzc4LDUuODY1IDEuMTUyLDcuNTA3IC0wLjQwMywyLjk0IC00LjM5Miw1LjEyIC02LjQyMSw2LjkzOCAtMy43MzgsMy4zNTggLTYuMDkyLDYuMzEzIC05Ljk5MSw5LjQ1MyAtMS41ODEsLTIuMzM0IC00Ljk3NCwtMy45MDIgLTYuMjY3LC01LjggeiBtIC04OC4zMTc5LDgxLjk2OCBjIC00LjQwNDMsLTQuODQ2IC0zLjQ4MjQsLTEzLjkyNiAtMi45NDkyLC0yMC4zODYgNy45NjA5LDUuMDA4IDE4LjUyNzMsLTAuMzk2IDE4LjQyNzcsLTguOTE0IDMuODAwOCwwLjEwMSAxLjQxOTksNC43NDcgMC43MzI0LDcuNzQgLTIuMjQ2OCw5Ljc3NiAzLjc4NTIsMjAuMzk3IDAuMjczNSwyOS4zMzcgLTYuODE4NCwtMC41MTcgLTEyLjQyLC0zLjMwMiAtMTYuNDg0NCwtNy43NzcgeiBtIDMxLjUxMzcsMjguMTI2IGMgLTkuOTcwNywtMi44MjYgLTIyLjc0OTMsLTEwLjA3MSAtMjYuODQ2NSwtMTkuMDI4IDMuMTcyNiwwLjQ2MSA1LjM3NSwyLjA2MSA4LjUwNDcsMi4yNTkgMS4xODI4LDAuMDc3IDIuNzMyNCwtMC40OTYgNC4wOTE4LC0wLjE1OCAyLjcwOSwwLjY3MiA0Ljk5NTMsNi43NDYgNy4wMzksOS4wMDYgMS45OTIyLDIuMjA3IDQuMzg2NywzLjE1IDYuMDI1NCw1LjE2MiAxLjA1MjgsMC41MDggMi42MDk0LDAuNDczIDIuNjY5MiwyLjA1NCAtMC40NTYzLDAuNDg4IC0wLjkzNjgsMC44NiAtMS40ODM2LDAuNzA1IHogbSA1MS45MDMyLC0yLjY1OCBjIC0xMC4zNDksNS44MzkgLTI3Ljg2NjEsMTAuMjMxIC0zOC44NzQ3LDQuNzQzIC04Ljg4MjgsLTQuNDI5IC0yMC44ODk5LC0xMS43NTcgLTI0Ljk4MzYsLTIxLjA0MyAzLjgyNDIsLTguOTYxIC0xLjEzMjgsLTE3LjE3MiAtMS40NDkyLC0yNi4yNyAtMC4xNjgsLTQuODQxIDIuMjc5MywtOS4wNjcgMi40NjY4LC0xNC4zMzcgLTEuMzA4NiwtMi4xNTkgLTUuMzA2NywtMi40MjUgLTguMDc0MywtMi4yNzcgLTAuOTMxNiw0LjY2MiAtMi41NjI1LDkuOTAyIC03LjM2MzIsMTAuNDI4IC02Ljc5MywwLjc0MyAtMTEuNzU5OCwtNC44NzkgLTEyLjA2ODQsLTEwLjc1NCAtMC4zNjUyLC02LjkwOSA1LjMwNjYsLTE4LjM2IDEzLjM0NTcsLTE3LjU2NSAzLjEwNTUsMC4zMDcgMy44Njg0LDMuNDIgNy4yNTIsMy4zODggMS44MzM5LC0zLjY1OSAtMi44Mjg5LC00LjgwOCAtMy4zMDg2LC03LjQyNSAtMC4xMjUsLTAuNjc2IDAuMzg2NywtMy4zMTggMC42ODQzLC00LjU1NyAxLjQ2MDIsLTYuMDMzIDQuNzE1MywtMTMuODQxIDcuOTE5MiwtMTguNDM0IDQuMDY2NCwtNS44MjYgMTIuMDU1NSwtNi43MDQgMjAuNjUwNCwtNy4yNzUgMS41MzUxLDMuMzA3IDcuMTkwMiwzLjAzNSAxMC44NzUsMi4xNyAtNC40MTYsMS43NDkgLTguNTIxNSw1Ljk4OSAtMTEuOTIzOSw5Ljc0MiAtMy45MDgyLDQuMzA2IC03Ljg2NzEsOC45MjUgLTguMDY3MSwxNC41NTMgNy4zODU1LC0xMC4yNDYgMTMuNDg3MSwtMTkuMTk0IDI2LjkxNjgsLTIzLjcwMSAxMC4xNjE4LC0zLjQwOCAyMi4wMjk4LDEuNTYyIDI5LjgzNzgsNy4wNDUgMy4yNCwyLjI3OSA1LjE3NCw1Ljg5NSA3LjQ3Nyw5LjIwNSA4LjYxNywxMi4zOTUgMTIuNjM4LDMwLjA4NyAxMS43NTQsNDcuMjM1IC0wLjM2NCw3LjA3MiAtMC4zNDgsMTQuMTIgLTIuNzIxLDE4Ljg3OCAtMi40OCw0Ljk3NSAtMTAuODY4LDkuNDI2IC0xNS43NzgsNC45MjYgLTAuOTEsNC44MzggNC4wODMsNy44MyA5Ljk0OCw2LjA4OSAtNC4xODIsNS4zOTcgLTguNTcxLDExLjg4MiAtMTQuNTE1LDE1LjIzNiB6IE0gMTQ0LjQ0NCw3Ny4xMTY4IGMgOC4wODcsNC4wMjAzIDIzLjE5NywxMC44MjExIDI4LjI2NywtMC4wMTQ4IDEuODcxLC0zLjk5NDIgNC4wNjYsLTEwLjc0NjEgNS4wMzUsLTE0Ljg2OTIgMS4zNjksLTUuODE2OCAtMS40ODQsLTE4LjA0MyAtNy40NjMsLTE5Ljk5NDkgLTUuMjgxLC0xLjcyMzggLTExLjQ0MywtMS42MTg4IC0xNy44MDQsLTAuMzQxIC0wLjc0OSwwLjYyMyAtMS41ODMsMS43MDkgLTIuMTY2LDIuODQxIC00LjU0MiwwLjE3NjIgLTguNzk1LC0wLjI0MzggLTEyLjM4MywtMi4xMTA5IDAuMzQsLTMuMzU5IC0xLjkzMiwtMy44OTgxIC00LjA2MiwtNC41ODk5IC0xLjU3OSwtNi4yNjA5IDMuMTU5LC0xNC40MzcxIDIuMDI1LC0yMC4xNDYxIC0wLjgwOSwtNC4wNjcyIC01LjgxMywtNC42OTYxIC05LjQ5MSwtNS40NTcgLTAuMTIsLTIuMjYwMiAwLjE2MSwtNC4xNDY4OSAwLjQxMiwtNi4wNTkgLTAuODQxLC0zLjA5ODgzIC00LjYxMywtNC44NjI4OSAtOC4xODcsLTUuMjk0OTIgLTExLjc1OSwtMS40MTQwNjQgLTI5LjYxMzMsLTIuMDQ5MjIxIC00MC45MjM5LDIuMDE3OTcgLTMuMTU2Miw3Ljc0MTc1IC01LjY0MjYsMTcuMTU3ODUgLTguMjcxNSwyNS45OTgwNSAtMTEuMDMxMiwtMS4xNzgxIC0xOS45NTMxLDQuNzU5OCAtMjguMzY0LDguNjUgLTIuOTEyMSwxLjM1IC02Ljk0MDYsMi4wOTM3IC04LjAyODUsNC40MTE3IC0xLjA1NDcsMi4yNDQyIC0wLjYyMzEsNi41NDUzIC0wLjg4NDgsMTAuNjA4MiAtMC42NjYsMTAuMzc3IC0xLjIzNjMsMjAuMzg2IC0zLjk3NjYsMzEuMDExIC0xLjIzMDQsNC43Njc5IC0zLjM3NSw4Ljk3NSAtNC44NzExLDEzLjU2OTEgLTEuMzgyOCw0LjI1NzkgLTMuNzk4OCw5LjUxOTkgLTQuNDI4OSwxMy43NjU5IC0wLjkzNDMsNi4yOTMgNC45OTE0LDYuNjQzIDguNzgwNSw5LjM3IDUuODU3NCw0LjIxNyAxMC40NTUxLDYuNTQ5IDE2Ljc5ODgsMTAuMzU1IDEuODc4OSwxLjEyNyA3LjU0NSwzLjk4IDguMTg5NSw1LjI5NCAxLjI4MTIsMi42MDUgLTIuMTk5Miw2LjI3OCAtMy4xMjk3LDguMzIgLTEuNDcxOSwzLjIyOSAtMi4yMzk1LDUuOTcyIC0yLjQ1MDQsOS4xNTggLTUuMzIxNSwwLjg0MSAtOS4zNTU1LDQuMDA4IC0xMS43OTIyLDcuNTc5IC00LjAzMDgsNS45MSAtNi44MjYyLDE2Ljg0NCAtMy4zMzg3LDI1LjE2MSAwLjI3MzUsMC42NTUgMS42Mzc1LDEuOTQzIDEuODM4NywyLjk0OSAwLjM5NjksMS45ODEgLTAuNzQ2OSw0LjYxNSAtMC44MTgsNi43MjIgLTAuMzY2NCwxMC44MSAxLjgyOSwyMC4xMjQgOS4xMDYzLDIzLjM4NCAyLjk1NDMsMTEuNzY5IDEzLjUyODEsMTUuNjgyIDIzLjQ5MDIsMjEuNTMxIDMuNzIzOSwyLjE4NiA3LjgyODksMy41ODMgMTIuMDY4NCw1LjE0MyAxNS4yMDgyLDUuNTk3IDM4LjU0MTksNC41NDMgNTEuMTYzOSwtNS4wMDMgNS4zNTIsLTQuMDQ4IDEzLjkwNywtMTIuNTk1IDE2Ljk2NywtMTguNzgzIDguMDgyLC0xNi4zMzcgNy41MDgsLTQzLjY0IDEuODU1LC02My41MTMgLTAuNzYsLTIuNjY4IC0xLjg2MiwtNi41OSAtMy40MDEsLTkuNzk1IC0xLjA3MywtMi4yMzggLTQuNDA4LC02LjcxNiAtNC4wMDMsLTguNjkyIDAuNDE3LC0yLjA0MyA3LjYwNCwtNy41IDkuMTQ1LC04Ljk4NiAyLjc3NSwtMi42NzcgOC4wNDcsLTYuMjMgOC40NzQsLTkuNjA4IDAuNDU5LC0zLjU5NSAtMS41ODQsLTguNTEzIC0yLjYxOSwtMTEuOTgyIC0zLjQ2LC0xMS41NzY5IC02LjgzNiwtMjIuMjc4MSAtMTAuNzU5LC0zMi41OTkyIi8+PHBhdGggaWQ9InBhdGgxMzIiIHN0eWxlPSJmaWxsOiNmN2U0Y2Q7ZmlsbC1vcGFjaXR5OjE7ZmlsbC1ydWxlOmV2ZW5vZGQ7c3Ryb2tlOm5vbmUiIGQ9Im0gOTAuNDkxLDE1Ny4yNTUgYyAwLjQzODcsMC41ODQgMi44NTA4LDEuNDcxIDYuMjI1OCwtMC4xNTQgMCwwIC00LC0wLjY2NyAtMy42NjcyLC03LjMzNiBsIC0xLjY2NjgsMC4zMzQgYyAwLDAgLTEuNzIyNiw2LjA0NyAtMC44OTE4LDcuMTU2Ii8+PHBhdGggaWQ9InBhdGgxMzQiIHN0eWxlPSJmaWxsOiMxZDE5MTk7ZmlsbC1vcGFjaXR5OjE7ZmlsbC1ydWxlOmV2ZW5vZGQ7c3Ryb2tlOm5vbmUiIGQ9Im0gMTE5LjcxNyw5OS45MzQgYyAwLC0xLjAxMjEgLTAuODIxLC0xLjgzMjggLTEuODM0LC0xLjgzMjggLTEuMDEyLDAgLTEuODMzLDAuODIwNyAtMS44MzMsMS44MzI4IDAsMS4wMTIgMC44MjEsMS44MzQgMS44MzMsMS44MzQgMS4wMTMsMCAxLjgzNCwtMC44MjIgMS44MzQsLTEuODM0Ii8+PHBhdGggaWQ9InBhdGgxMzYiIHN0eWxlPSJmaWxsOiMxZDE5MTk7ZmlsbC1vcGFjaXR5OjE7ZmlsbC1ydWxlOmV2ZW5vZGQ7c3Ryb2tlOm5vbmUiIGQ9Im0gMTIxLjU1LDkxLjQzNCBjIDAsLTEuMDEyMSAtMC44MjEsLTEuODMyOCAtMS44MzQsLTEuODMyOCAtMS4wMTIsMCAtMS44MzMsMC44MjA3IC0xLjgzMywxLjgzMjggMCwxLjAxMjEgMC44MjEsMS44MzQgMS44MzMsMS44MzQgMS4wMTMsMCAxLjgzNCwtMC44MjE5IDEuODM0LC0xLjgzNCIvPjwvZz48L2c+PC9zdmc+;" parent="1" vertex="1">
          <mxGeometry x="2985.5" y="1474.78" width="52.46" height="72.42" as="geometry" />
        </mxCell>
        <mxCell id="kG0iY3HcZwcLajI_eg3o-151" value="Jenkins&lt;br&gt;192.168.100.12" style="text;html=1;align=center;verticalAlign=middle;whiteSpace=wrap;rounded=0;" parent="1" vertex="1">
          <mxGeometry x="2965.5" y="1556.97" width="89" height="30" as="geometry" />
        </mxCell>
        <mxCell id="kG0iY3HcZwcLajI_eg3o-152" value="" style="image;points=[];aspect=fixed;html=1;align=center;shadow=0;dashed=0;image=img/lib/allied_telesis/computer_and_terminals/Server_Desktop.svg;" parent="1" vertex="1">
          <mxGeometry x="2922.9" y="882.4" width="42.599999999999994" height="54" as="geometry" />
        </mxCell>
        <mxCell id="kG0iY3HcZwcLajI_eg3o-153" value="CCTV&lt;br&gt;192.168.1.X" style="text;html=1;align=center;verticalAlign=middle;whiteSpace=wrap;rounded=0;" parent="1" vertex="1">
          <mxGeometry x="2899.7000000000007" y="944" width="89" height="30" as="geometry" />
        </mxCell>
        <mxCell id="kG0iY3HcZwcLajI_eg3o-154" value="&lt;font style=&quot;font-size: 14px;&quot;&gt;工具类VM&lt;/font&gt;" style="text;html=1;align=center;verticalAlign=middle;whiteSpace=wrap;rounded=0;" parent="1" vertex="1">
          <mxGeometry x="2961.5" y="1280" width="93" height="30" as="geometry" />
        </mxCell>
        <mxCell id="kG0iY3HcZwcLajI_eg3o-155" value="" style="image;html=1;image=img/lib/clip_art/computers/Server_Tower_128x128.png;imageBackground=none;imageBorder=none;" parent="1" vertex="1">
          <mxGeometry x="2652.6" y="990" width="80" height="80" as="geometry" />
        </mxCell>
        <mxCell id="kG0iY3HcZwcLajI_eg3o-156" value="" style="editableCssRules=.*;html=1;shape=image;verticalLabelPosition=bottom;labelBackgroundColor=#ffffff;verticalAlign=top;aspect=fixed;imageAspect=0;image=data:image/svg+xml,PHN2ZyB4bWxucz0iaHR0cDovL3d3dy53My5vcmcvMjAwMC9zdmciIHhtbG5zOnY9Imh0dHBzOi8vdmVjdGEuaW8vbmFubyIgd2lkdGg9IjIwIiBoZWlnaHQ9IjIwIiB2aWV3Qm94PSIwIDAgMjAgMjAiPiYjeGE7CTxzdHlsZSB0eXBlPSJ0ZXh0L2NzcyI+JiN4YTsJLnN0MHtmaWxsOiM0Mjg1ZjQ7fSYjeGE7CTwvc3R5bGU+JiN4YTsJPHBhdGggY2xhc3M9InN0MCIgZD0iTTEzLjMzIDB2Mi4zOGgtMi4xNlYwSDguODN2Mi4zOEg2LjY3VjBINC4yOXYyLjM4YTIgMiAwIDAgMC0xLjkxIDEuOTFIMHYyLjM4aDIuMzh2Mi4xNEgwdjIuMzhoMi4zOHYyLjE0SDB2Mi4zOGgyLjM4YTIgMiAwIDAgMCAxLjkxIDEuOTFWMjBoMi4zOHYtMi4zOGgyLjE2VjIwaDIuMzR2LTIuMzhoMi4xNlYyMGgyLjM4di0yLjM4YTIgMiAwIDAgMCAxLjkxLTEuOTFIMjB2LTIuMzhoLTIuMzh2LTIuMTRIMjBWOC44MWgtMi4zOFY2LjY3SDIwVjQuMjloLTIuMzhhMiAyIDAgMCAwLTEuOTEtMS45MVYwem0xLjUzIDE1LjI0SDUuMTRhLjM4LjM4IDAgMCAxLS4zOC0uMzhWNS4xNGEuMzguMzggMCAwIDEgLjM4LS4zOGg5LjcyYS4zOC4zOCAwIDAgMSAuMzguMzh2OS43MmEuMzguMzggMCAwIDEtLjM4LjM4em0tMi4wNy02LjEybC0zLjUgNC44NnYtMy42M0g3LjIybDMuNjEtNC44MXYzLjU4eiIvPiYjeGE7PC9zdmc+;" parent="1" vertex="1">
          <mxGeometry x="2664" y="996.1999999999999" width="20" height="20" as="geometry" />
        </mxCell>
        <mxCell id="kG0iY3HcZwcLajI_eg3o-158" value="" style="endArrow=classic;html=1;rounded=0;exitX=0;exitY=1;exitDx=0;exitDy=0;entryX=0.25;entryY=0;entryDx=0;entryDy=0;" parent="1" source="kG0iY3HcZwcLajI_eg3o-51" target="kG0iY3HcZwcLajI_eg3o-142" edge="1">
          <mxGeometry width="50" height="50" relative="1" as="geometry">
            <mxPoint x="2705" y="856" as="sourcePoint" />
            <mxPoint x="2263" y="856" as="targetPoint" />
          </mxGeometry>
        </mxCell>
        <mxCell id="kG0iY3HcZwcLajI_eg3o-159" value="" style="endArrow=classic;html=1;rounded=0;exitX=0.75;exitY=1;exitDx=0;exitDy=0;entryX=0.5;entryY=0;entryDx=0;entryDy=0;" parent="1" source="kG0iY3HcZwcLajI_eg3o-51" target="kG0iY3HcZwcLajI_eg3o-145" edge="1">
          <mxGeometry width="50" height="50" relative="1" as="geometry">
            <mxPoint x="2248" y="893" as="sourcePoint" />
            <mxPoint x="2356" y="996" as="targetPoint" />
          </mxGeometry>
        </mxCell>
        <mxCell id="kG0iY3HcZwcLajI_eg3o-160" value="" style="endArrow=classic;html=1;rounded=0;exitX=1;exitY=1;exitDx=0;exitDy=0;entryX=0.25;entryY=0;entryDx=0;entryDy=0;" parent="1" source="kG0iY3HcZwcLajI_eg3o-51" target="kG0iY3HcZwcLajI_eg3o-155" edge="1">
          <mxGeometry width="50" height="50" relative="1" as="geometry">
            <mxPoint x="2258" y="903" as="sourcePoint" />
            <mxPoint x="2366" y="1006" as="targetPoint" />
          </mxGeometry>
        </mxCell>
        <mxCell id="kG0iY3HcZwcLajI_eg3o-161" value="" style="endArrow=classic;html=1;rounded=0;entryX=1;entryY=0.5;entryDx=0;entryDy=0;" parent="1" source="kG0iY3HcZwcLajI_eg3o-142" target="kG0iY3HcZwcLajI_eg3o-7" edge="1">
          <mxGeometry width="50" height="50" relative="1" as="geometry">
            <mxPoint x="2268" y="913" as="sourcePoint" />
            <mxPoint x="2376" y="1016" as="targetPoint" />
          </mxGeometry>
        </mxCell>
        <mxCell id="kG0iY3HcZwcLajI_eg3o-162" value="&lt;span style=&quot;font-size: 12px;&quot;&gt;虚拟化&lt;/span&gt;" style="edgeLabel;html=1;align=center;verticalAlign=middle;resizable=0;points=[];" parent="kG0iY3HcZwcLajI_eg3o-161" vertex="1" connectable="0">
          <mxGeometry x="0.0034" y="2" relative="1" as="geometry">
            <mxPoint as="offset" />
          </mxGeometry>
        </mxCell>
        <mxCell id="kG0iY3HcZwcLajI_eg3o-163" value="" style="endArrow=classic;html=1;rounded=0;exitX=0.146;exitY=0.872;exitDx=0;exitDy=0;exitPerimeter=0;" parent="1" source="kG0iY3HcZwcLajI_eg3o-149" target="kG0iY3HcZwcLajI_eg3o-11" edge="1">
          <mxGeometry width="50" height="50" relative="1" as="geometry">
            <mxPoint x="2278" y="923" as="sourcePoint" />
            <mxPoint x="2386" y="1026" as="targetPoint" />
          </mxGeometry>
        </mxCell>
        <mxCell id="kG0iY3HcZwcLajI_eg3o-164" value="&lt;span style=&quot;font-size: 12px;&quot;&gt;虚拟化&lt;/span&gt;" style="edgeLabel;html=1;align=center;verticalAlign=middle;resizable=0;points=[];" parent="kG0iY3HcZwcLajI_eg3o-163" vertex="1" connectable="0">
          <mxGeometry x="0.0053" relative="1" as="geometry">
            <mxPoint as="offset" />
          </mxGeometry>
        </mxCell>
        <mxCell id="kG0iY3HcZwcLajI_eg3o-165" value="" style="endArrow=classic;html=1;rounded=0;exitX=0.648;exitY=0.833;exitDx=0;exitDy=0;entryX=0.5;entryY=0;entryDx=0;entryDy=0;exitPerimeter=0;" parent="1" source="kG0iY3HcZwcLajI_eg3o-149" target="kG0iY3HcZwcLajI_eg3o-108" edge="1">
          <mxGeometry width="50" height="50" relative="1" as="geometry">
            <mxPoint x="2288" y="933" as="sourcePoint" />
            <mxPoint x="2396" y="1036" as="targetPoint" />
          </mxGeometry>
        </mxCell>
        <mxCell id="kG0iY3HcZwcLajI_eg3o-166" value="&lt;span style=&quot;font-size: 12px;&quot;&gt;虚拟化&lt;/span&gt;" style="edgeLabel;html=1;align=center;verticalAlign=middle;resizable=0;points=[];" parent="kG0iY3HcZwcLajI_eg3o-165" vertex="1" connectable="0">
          <mxGeometry x="-0.0534" y="2" relative="1" as="geometry">
            <mxPoint as="offset" />
          </mxGeometry>
        </mxCell>
        <mxCell id="kG0iY3HcZwcLajI_eg3o-167" value="" style="endArrow=classic;html=1;rounded=0;exitX=1;exitY=0.75;exitDx=0;exitDy=0;entryX=0.067;entryY=0.013;entryDx=0;entryDy=0;entryPerimeter=0;" parent="1" source="kG0iY3HcZwcLajI_eg3o-149" target="kG0iY3HcZwcLajI_eg3o-6" edge="1">
          <mxGeometry width="50" height="50" relative="1" as="geometry">
            <mxPoint x="2298" y="943" as="sourcePoint" />
            <mxPoint x="2406" y="1046" as="targetPoint" />
          </mxGeometry>
        </mxCell>
        <mxCell id="kG0iY3HcZwcLajI_eg3o-168" value="&lt;font style=&quot;font-size: 12px;&quot;&gt;虚拟化&lt;/font&gt;" style="edgeLabel;html=1;align=center;verticalAlign=middle;resizable=0;points=[];" parent="kG0iY3HcZwcLajI_eg3o-167" vertex="1" connectable="0">
          <mxGeometry x="-0.3002" y="-2" relative="1" as="geometry">
            <mxPoint as="offset" />
          </mxGeometry>
        </mxCell>
        <mxCell id="kG0iY3HcZwcLajI_eg3o-169" value="" style="endArrow=classic;html=1;rounded=0;exitX=1;exitY=0.75;exitDx=0;exitDy=0;" parent="1" source="kG0iY3HcZwcLajI_eg3o-51" target="kG0iY3HcZwcLajI_eg3o-152" edge="1">
          <mxGeometry width="50" height="50" relative="1" as="geometry">
            <mxPoint x="2527" y="890" as="sourcePoint" />
            <mxPoint x="2683" y="1000" as="targetPoint" />
          </mxGeometry>
        </mxCell>
        <mxCell id="kG0iY3HcZwcLajI_eg3o-171" value="" style="image;aspect=fixed;perimeter=ellipsePerimeter;html=1;align=center;shadow=0;dashed=0;spacingTop=3;image=img/lib/active_directory/firewall.svg;" parent="1" vertex="1">
          <mxGeometry x="1369.9999999999995" y="795.7800000000002" width="50.5" height="82.79" as="geometry" />
        </mxCell>
        <mxCell id="kG0iY3HcZwcLajI_eg3o-81" value="" style="shape=image;verticalLabelPosition=bottom;labelBackgroundColor=default;verticalAlign=top;aspect=fixed;imageAspect=0;image=data:image/png,iVBORw0KGgoAAAANSUhEUgAAAMoAAACnCAYAAABQD8MsAAABU2lDQ1BJQ0MgUHJvZmlsZQAAGJV1kL1Lw1AUxU+1UvwYgjg6RFBQrCKx0rlWKIJDrBU/tvQ1pkqaPpJUcXN0dnBycBAHJ3Gpbgr+B4qCi+AkCC5Kl1qe97VqWsUL950fh8PjcIE2GJzbYQAFx3fTqWl1eWVVjTyjE71QMIoBg3k8oetzFMG3tk7lDiGpN2Pyr53Mu312uMfM1MXLSVXM/M23TFfO9BjpB+0w464PhAaJ9S2fS6ZFn0uliHclWw0+kJxt8Gk9k0knia+JFZY3csS3xNFsk281ccEusa8Osn2P6SwuSKXtRwYa4piid/6fXKyeS6IIjm24WIeFPHyoSJDDYcMknoUDhnFEiTVM0MbkfX/fLfCKr0B8g+Ap8Iwj4HyTKj8G3hDdVSG+srnhGj/XDFXC3tqk1uDuMtCxL8TbEhAZAWr3QlTLQtSOgfYH4LLyCRfyZEmnMNhiAAAAOGVYSWZNTQAqAAAACAABh2kABAAAAAEAAAAaAAAAAAACoAIABAAAAAEAAADKoAMABAAAAAEAAACnAAAAAHfNb/QAADpQSURBVHgB7V0HfFzF0f+feu+yuiXLDfeCG2644YbBtIQWQi+mfRBq6C0BUwMhGAgJBAKhmmpsA+5Ws2y5yLJlWb1Lp35qdyfpvpknn3TS7Z3u5DvVt/7Jt2/f7L7deW9mZ2dnZhU6SpCTjAEZA2Yx4GD2rnxTxoCMAQkDMqHIH4KMAQswIBOKBUiSQWQMOD5DqbdoKC4uRn19Pby9vaUm+Fqfz8/Ph6+vLxobG1FYWAh/f39UV1ehqLgQAf5eqKwsQ0V5MXx9XFBelo/G+gp4urYhL/ckNGrOa5B+4hC06nJ4uTUi9Ug8FK1KeLjU4ujhvXDWlcPdqQKHk3fBRVEGd0clUijvrCuBh3OFlA/0VsGxrRgHk3YgPKgZ0BbiQMKviAhWS/mk+F868omUjzxTnrB/GyJHaCQYU+X7927FyBCtBLN/D+VDDfMtQEsx9u2m8rA2ginB3t3bEB0OtDYVI27fL1SuQHFBGk6nH0JYkA45WUdQUZaJAG8ad9oBqGry4eeloXEnolFVBD/vFhyjfJOqlPJapB07gPq6Yvj5tFF5Elo11fBxb0Fc3G5EhLrBoa0ecft3YmSED0D5+Pi9iArjfIMEMzLcj95ZI+IT9iEqwh/QNSM+jvKRgZRXIzFhPyIjgyivwYGkREREBFNei0MHkxEeRnm04CDnw0egra0Fhw/TOMJC6XtQ4XhampSvq6vDyZPpCA3l8nrKn5TybW1tSE1NRUhICDQaDTIyMhAcHIzy8nJUVFTAz88POTk5aGlpgaenp3TfyckJbm5uyMrKkr4rBwcHCYa/K055eXlSPc4XFBRI36FCQTimb5KTSqWSfp2dnaVfa/9zsqqCrgU7fv0Ry86fTG+8BqcO74ejohmhbmMJiW3IPpaBMLdRUr7gRCaiPKKhUKtReqoQMV4R0CjrUVdaB51POBpL6tDUpIHOM4jK66gbCugcvdFaXQ1tkxN0Tt7Q1ZcDDh6Auxe90zK0qTwBNy84aihfT8Tp6gE3nRJtjaVS3sNBCV0T5Rs94e1cCV1jDb1PR/i5VlJZgzTUQM8qyjdJ+RFe1ZQnAqIU4k2wZ/LhfpxPkcrD/Ws7yiMDOd9eHh3cmY8Jof6fKW/PH5LqjuLyhgNSPpbz9QnQtbYhNpT6Uh8HL6gRQsSAeiUCXdT0wRFR1WchwKUBbi70alQZCHBV0Vjo5dadpPI6+Di7UN4NgVTuweW1x6muCl5tztBR+Uh/ek5dEXT0kUT51UJX0/6hRPpQvjZP6kuEN5fnt4/PvQa6qmwpH+peTflMKT/ClfKVGVI+yInyFWlS3kdRReVHpbyvjnBccQStLW3w1FJ5xSF6L2q4q+kdK4l4a5vg0qCi8gR6d2o4qui5ykS0turo+WVUnoQ2TRu0lRWUD0WrUkUE3wKdVxDUynI4N7rSN+EPVXE+QlxCoGtxR2VuHkb5xUjjK8/MRYxfLH1vQGF6Nkb6jKF+KZBz/DQivcYTDJBxJB3nTh1FzKcAMSMj4B4VheMnlfAPjkVkNH3HCsKnBUlhidaLZ4eo4Hr6GA6hgmaCIH/6eOUkY2CQYqCOiNbH25WYsCe27mvA/CXXdMxGpoZk0RqlviIRZTk/0rStkonEFCbl8kGDAYlIuLckhk4bo4KvYl+PfTc7o7C8GOgUL8nhPbYkA8gYGMQY2J1Uj/Cx6zF+/HjhKMyuUXJP70GdSzpGjfQXVpYLZQwMFQzMmuQMrxG0ZjWRzBLKuRPptkYmEhO4k4uHEAa8vGjNoilElboKAQEBRiMzuUY5kpKAhtpcowpygYyBoYqB4qIsnCZVtSiZnFH8fHSkaCP9mpxkDAwTDISHeCNiwjjhaE3OKNERXvBwN0lHwsbkQhkDgx0DeTkn2/ezug1ESCilpaW009q+UdYNXr6UMTCkMZCbkwU1bZJ3T0JCcXd3J3OI1u6w8rWMgSGPgdraSrDpS/dkch9FV/M97Z8UdYeXr22MgTZyB3IQvBgbP0ZuzlIMeM6EwmOeEbRwRikpISO+hHQjYLnAthhIPFSAm+/7pqNRtaYVKanFSD1Z1lEmZ/oYAyb8GIWr9bCwMIS6T6QZpaCPezm8HvfJ1ylwdnaUBl1R2Yhb/vQN/HzdUESGo79+efPwQsYAGe2PP8fjgnXTwcsPwyScUSQAhelbhg3I+d5hID45H8mHC0izSBbAlP7y5i7ccPW5+Oit36GNLIyZcOTU9xi4aO08IyLhXgipQRK94k/2fS+HyROVFQ148qXteOHRVXB0bH8FB48UYN2KcyQMbPnsRgQFyhbaA+lzEBIKi16L55OtvpxsjgGttg0bHv0OqgY1XnlnL3bFZaKM/HRGRvrhg08Pgu+7uQolYpv3RW7QGAM/bIkjP6l2fyXDu6a1XrXbyfYlyxBWztsAAzff/w0mjBuB9asnSGrIDQ9/J61H2Efi+Td2IplmFnaEeuahC7B80WgbPFFuwioMuE+GwmuxURUhobD75OmjX2DxLDIUk5NNMXD0RCmmTQyV2mRPv11xWVixeIxNnyE3dhYYsIZQ+DG6ut8AtdhA7Cy6IVeVMTCgMbBlTz2WX3iP0YLejDBsvDs5oEcod07GgA0wcOHK2VB0Uw1zs8LFPIte++JP2OCxchMyBgYZBoQUYYJQwsPDsUjWeg2yNyx31xYY+OHnBKFRpGnRi+ImyUnGwHDDwMWr50LhaqzEEhIKB6zLPnECi2YMHzTFJ+fg3se+xgMbllk16EPHCiluVKTFdRIO5uK8WTEWwyel5GHuzGiz8I3NWtx8jbEhn9lK8k0TGBDHrBeqh7kFXf0+oCnVRGNDr3jDQ1/i/Y/3woMiE3p6epPWo90Gq6eRNjdrKIKhZUHUuC2NWgsX13azlZ7a5vvNTWq4uRtzOH3dhkYtWR+3YPK4UKxZMYEIfan+lvzbCwx8v6MKay59CK7dZhUzhLKfCOVYLx41OKt8/m0K7nvqB6jpw3chJI0aO4GIhqJRDpJUmJdFoVerKJyqD26+dg5uu27+IOn5AOum61gofC4w6pRwIcKi1/6E9hCaRjWGcIE7ce4ZcxeRGUkLjh85hLyc04NmtJHRozFu8myomt3x17d2Y8KCF/HUxp8HTf8HSkfbWrWWuwJHRkZi4fypA6XvfdIP9p3SuyJMnz0fQcEhUJYV4fTJY2gVuIb2Sad68ZDQyJGIHT8DrQ4++O/mVIyZ+xewWFlDcYDl1DMGftx2kGIjG3v3CmeU9uaG14Yju38auoDGjpuAmXMWo6pCiePHDqJSObicqSKjYxEzdircvEPw865sTF3yMu58+Cvk5FGQcjmZxMD6tXPIR8h4DSnUevGGY9aJ41g4zWR7Q+5GVXUj+YF05SR8tMDcRcuRkXYU2adPEtGUI2JkjMHYDZiJlDW4JqjOq86cQSHa6FgDvnZ0bH8xEpQBKFGu9CzmcJxzdGx/XR0gnKG/VvJfcXRk5UP7HYbna77y9wtEYNAI1NOxB1t352Lzz29g4ZxY3HnjQixbNJYg5GSIgcamZrh7t4HfvWESEgpvOIb5EZU0JBvCDul8feOZYxcEoxw3aRqqK5VIJzGsob4GXu5dtVx6haL+l5vgj1QvyvG1dI8LDP3j9ddtnTXbCNIwnhofBSH5rBCIDnQsBN3l/w1T+7M62+CX3NJCxEXPcnRQoNWgfR21t31nGvYfyEbp8ecNm5HzhIHd+49j5foLLSMUPtxFR+dWdP0chjYeY6ICwIfVmEr+gcF0CE4EivJz4OLCYWYV5DfiAgV9iOZSE3EoHX2o7u5uEgl0Y1RdqrKqWTo8x8Oto102uXd06srduFITneXC59Ryu6I+OJmox3U9vb1QU12HTR/uxwaaWeTUiYG1F8yAwlLRi6PY56SnY/6UzgbkHO+BNEuq44aGZjiRGOTu4QtXMqArLykiTUmrxMUnT59FamU6+IhSFa1rKpQnoXByhJuHC9yp3CQsiXUVGelErI5Qk/OWulndPiMQ8SqIaY0ae05HuxXlpXQyFcGSeKWDViIuafZgWPpnCGvqveWdHj57ZKZwICqvqKpFEEdJNZz5CVDIQttFL9J6NSSI2hqSZYyYTuFFPEQn5jTExXnmcaC/mupKtChbERAYKKkUa+m0sNMnU8Gzj69fAJqbmyUi4dWCqq4GVZWVJmGZCHlm4H5UEaMKDY+EAxGCg4MjaqoqurTbotUQLBOJAjU11QgzA+vrbxxwWjw6uZQxkJqWhyXRFhIKn73XUt8Af+PF/5DFpnkBqn3YvEBmjt9M3N7RSSvt4gcQUUSPbo9X29hQj8xTxyUNmaq2RvrYNeRWqqB6fLalf0APsM1NaKY1xIjQMIweP6kD18EhYcbtEiyvX3qC1RNKE52l6UD++a6ublK7HE9MTcfAyakrBpYunERMyFjUFc4oTCgFWfmYRxGLhktiTi4KpWk4/hb6sLRaLbx9/TB5+mzDW1KeRa6pM+ehtCifRK4yaIjz+/j59yssd6yMRMMWjVqaMT08PBFAe0QcdM+Vz4mUUxcMFBRVIMrXeEYxJh2qxhuO8+YMrw3HRjp41ZGmlcJc03ECHJ2dJB27Qw+hnJzoQFKGcT7z2+VNdLuwNyzPJFoikgjaV+G9FZ71tKSskZMYA/mFdPAqzbbdk5BQpBmlYHBtsHUfmLXX114xC5+//0c6abcZWeliG7emhgZJ7NLSTGEu8XqEYfS//QnrwFo5gxfPIpdItDDXx+F0b8GcsUaqYR6/SUKpqaNTgIdZWjg3Fkd2PYhzJ4/A6bRkqGpru2CARSsXFxdppuhyo9uFt4+fBKP/7Xa7y6UeRv/b5Wa3Cz2M/rfb7S6XehhXN3dJW8YzZT5FavchsZGVEay2Tkkt7FJHvgBOZRYLZxShkMqiV0QQEYqqaFjibvNHN+KR537Af79Jga8/hZcl+yl90gesq6muIhWuOJpjvaqui72QpbAtLVpaT5j+eHmPRZ+sgeU1Ca+rWFOm3yvi/ZeZUyL1zcm/ZzBQT/HWWPSySD1cS5y0pqwEw/mM041PXUyHvAbi9ff2ICezAaPGTKDFMO1akGUxFM3IzUwn5Wx70pLJiDNptvSpmfdbaH3SUK8iBYHlsPUEr8nL6Wire7usPWMxitu1FFbfJ2cX0z4tehj5Fzh3erRQNBXOKKx2bDEwexiuCLzjhgW4dO1UXPzHfyI34yiZjvBinv6cnMkshIiDiEFKtB7pyFMB22RFxsTS5qQbVLTPYStYtkWLHDXaonb1sKbeHc9Opco6U7eHbXnKkRzMWGyhrZe/vz/83KNI9JKPfggZ4Y2kbX/C/z2+Gf/5IpFmEwdMnjnH4g9pIMCKOssiWGiwj+jWsC5zp6Dp3cUuRohwRmHr4RplDiaED2ucdRn8m3+5DHWqJnz90xHknDrc5Z7oopVmZTZjdKR1gShJ90mMarf6NYZgo0Y2bpS0VmduE7i09uFNT8Mk+U/QvoijwUaZWq2hzcVOaz0WGXk21KfqGnk20ePC8HfCuDAhoQhdgXmNUlV2DDH+sj2QIRI5/8P2492LhNcVVfXk765FZAQbUBqnwqJqySo4LNTX+CaV8H1fH3fa0W/fSWegFm0rSsvrjNpkWE6Gz0o5VoCZU0kqOJNOZysxNjZYfyn9XrxKDsTeBSF0se9gFRaveaJ7MYSEwlA6dQ5Qt9WoglzQOwyczqnA2FFBvass1+ozDBSWKRA1eYPR84T7KOXl5Ug7MXj8xY1GNcAKfvo1HW+8F4eEgwU27dmprAqbtic3RrNyuJ8QDUJC8fLyQlhYe8R1YS250CIMNDa34N3/JOHHX07C3c0Z3l6dawaLGjADVF5Rjw8/P4TPNh81AyXfshYD7NQmSp2rO4O7Hh4e8HAKgK7rxrQBhJztCQP7kvLw3dY0qOrVtLEXgWsvn0aEYru9jBFBXpg/eyRef3cfSspVeOCOhT11Sb5vAQZmzYgWQglnlPz8fBw+KgfpFmLMgsId+7Lw3seJKCiukQ4MuuP6OWaJhE8BvuvP31t9GvDFKyfg9WfXYdf+LFx522cW9EwG6QkDgX5dDznVwwsJxc/PD2GhsuilR5I1v//5MoVMXw4j0N8TT96/HBeeOZfRXBuk2QUHtxBZrZqrx/dmTgnH3/9yMVoowMRtD36LZjVZDsip1xjYFXdKWFdIKD4+PuQfHiKsIBeKMVBQXIsnN/6K3XHZmDsjCn/580pMmWA5DhsatMjMqRQ33kPpqGh/fP7uNZK6+fp7viQV8vAzaO0BRRbfnkihaUVJSCh5eXlIOnBEBC+XCTDA2qxHX9hKH3oFrlw/FXdcPxdenpYv3HMLeB9ER/scvVcfOzs7YNPG9RhDKuib7v+KjuYuFPRULuoJAyHB7fEOusMJCYVFrzFjRnWHla8FGPj6x+P4+7/iJFHr6QdXYPWycQIo80VjRgVSoG8KDKG3sjQPbvYuz2QXLB6LB5/7Gd9vP2kWVr5pjIF9iWLHPaHWy9eXdos9tNDVGDckl7RjoKqmCS++tRtFJbVYNHcUbrpmFrnWdjUtsRRXTCDGPnWW1jaGu//2hQglG7W3P4hDaZkKt//Rcts049aGV8kYE7O6kFBY61ValIHZY4YXkiwd7dG0Ejz98m+0gG7F/926EBecf3aIYnuuNrLWZj92W6WrL52GANLgvPT33SivrCfFwjJbNT2k2wkjBiNKQtErKCgIEyeeI4If9mVbd2bg2dd2kF2VL+6/fdFZEwkjVB++04Z0Ir2nVUvH4b1XL0PKsWLc9+RPFP+re4zJYf86uyCAQ9Puic/sUqa/EBIKbzh6eYkpS19xuP1qNK14+R978cGnB7B84Rj87bl1WL5otE3Q4EAuYKzWLSq1vUXvOBIl/knEwtHsb/nTN6ioFHtl2mQgg7wRjqvG60VREhIKa70SEw+K4IdlWWZuJe5+7AfsS8zBPTfPx103zSOXWiHqeoWf+kaNJHZFRYjtjHrVqEGloEAPfPD65fDzdcetD25GRrZsI2aAno4si758EJMoCd82R4o899wZIvhhV7YzLgv3PfGTRBh//8t6LJkfa3Mc+JIpfbsviS2X9F27yYT9t+fXgdWfdz3yHXhccuqKARa99iZkdy08cyVczEvnQzi62lQTI3z6AC9kuT6LZpNVS8bhnlvOs1tvHSigGLtfizzrbP3Qd1++hMxrDuDFv+1C3IE8eZFvgGAWvcbGikUvIaGw6FVSlIu5w/T4DN7Zfu71HcgvrMGDdy6yyyxi8H7O7J9w3GHDUvvlWV3s6uqET79Owd88XXHfbQvs97BB1DKLXmEh4rW5UPSKjo7GvHnDU/cen5yPWx/4Bk10JPUm4r72ELW6fzssdmko2AObwfRVuuHKmXjhz6uxfXcGHvvrLzZ5LJvwXPD7f4Ht3fILTY+F7/22NxPfbTth9si8nLxqsCpeTYqUvkgULZdEL7FIatLDEW10/kblv/uifwPmGZs+SsK3W49jzbJzSPXbd1y2vKIBN973Fd4i48bR0QF9ig/+GB954WcEkBHnxidWk/txp+uxtR1hK4U/Pf2j1EZtXTOiI/2lE4qvvWw6+eu38+TX3t2PN9/fJzXNm6I1BLfxybW4dM1E5BXUEP7ToKxswNad6aSha5DgVtP7eP/VS63tjtXwHHiosqoJI855wKiuUPTKzc1FKQVim3t2+2hGDxMVMBdKPJSPP1wxA0vnj8bISLEPOXOhDPL7Zg3RkvNGSRocUXv84uvqm3HO2BEW75Szzwj3g9t/5O4lNlP7ivonLqOIYRQ5gtXEfZ3YoHLTy5eSrdo2XHfXl/j7Xy9GdFTvtG+jz6hW43+6U5qR9ybk4r1PkshQNEvSuvEswkRywfnj8MrTa6UN0Y++SKEIN98jOMATlTWN5F+zF5ddOAXvvHQpJo0fIUXgP3S0bwIxcvTZYNIQipKQUGJiYhATHQldxTFRHZuWTZsYRmGADuLVd/bgyZe2W8SFHn7Odlzo0LEivPDGLkKQJz782+8krZBNB2hBY7WqZimod18s5kXdCfT3wNtEIE+98hvu/PN3eOHRVZgxOUwEarYsr5ADYrjhCIlLzHxKyHzGz9cN8QfzUE0mP8/RRu09tyzEQ7Tu0ycWAfcm5ODjr1Lw8N2LyebNWdLONVBgjoTkvDMW1QpMGBOM4CBPfTW7/Gq1OuxNzMSKy4ybFxJKO5hw+WLcwlmW9CcX+uenyfjf5iNYs/ycLi/vLIdkdXX2XWF/kr5azIs6yIt7Fr14U5Utoe+9Zb5FvjSGbZ04VQ4Wua7d8D9MnhBKkTYDsIIOVH31qQul4/UKS2pw/e+Ntx0a6PzM+bNj0NCgoSDoWsxZ/Ta5Cqgkpjln5kjpMNe0jCAsCYo1fJzN83yW7KzpUcJ2hYSSk5ODstLSPhG9+oMLtbbq8H9P/ojTtPH2yN3ng009+jPxgaS9cdqyR58fvmsx2M34rQ/iycW4HreQsaeliVXpt/9xnoTT7huyjHNOmTlVUvv6Nn/ZfZqCbuThpcfX4GRmuTQj8Zrkut9N7/OoNaz14j0tURISyqhRo8B/OiX7pNhvE4w71NdcKC29HE+/+iv8KGbWp/+4Crxr3d+JjSK1FLOrisxMers+sOUYWBwKpY3JN97fjzLi7I/ft9Si5pUU8GL6pHCh1YIj7RVdf+UssnD4Dk89sILa95a0Xp9RIPQ3nqM4z7RW+m1/JgJprRJOKtrvt51ERVUj2HQo0N8dN18zmyyixb4iFnXOAiAtnZ25dVcG1l9rDCwklE4wXlzal1D6kgvxwvEjWg+tXjoej95zfucw+znHaxOeVXidNFAS+9WEkTnHky/+QpqsLXj+0ZXwpHCj5hKHI21Sk47VRGILZhdyRXjtnb1ooIObpk0Mx4+f3IBpk9rXQ3x4azbNSn99cyem0r1zxgYjKtyXZiDPDq2ZiaZtUswMa/WS8cK2hOphSfQqK8Pc0Uepkn112Bdf9x9JC2Jq55u1UVt+OynkQpevmwReZ3xKPupXrZ8macRMcaFHSKtz5Hhxr2RvIeZsWMhhjS669kN8/I8rTdoa2fBxVjWVm1+Dx1/aRh+4E55/ZCUiw8S2UNxombKeNFkeZ/VRs/EmL+jdaM3UL0lBR9MG3W70aOGKncWuefPmETDPKPZNlnChS9dOlrjQnY9+K4kCzIWYSDgZciH2V+eYvcyFYqL8pRd2KkuJq27/HzgO1qebrrJ6gSo9xM7/SWsUmrn7S+tlbngxI/1IZbxeikt27+M/4Hi66ZPY2I5Mv19irk1z99hws7+IhEWv72kTVJSEM4oeUFfxAUle5o9h08P29teeXIiDw73/3ySsINfYJyyUs3s7jrOpxzPK+j9+hE/evsrucnhv+8mL8bsf+x7s3//ne5di8byY3jY1sOspyCU76DajPgrnNxa9OKzqnNH2n1FMOfMb9dRMAXOh7ulxkq0PpOSTByKdcbKm8yjq7nAD4dqZjrXWEDcTqYcHwoYs44gX45s2XoK3/hmPl9/eQ3skdVIgjYGAP5v2QSf+5oWE0qH1qhCHl7Rpx2zcGO/MP7FxO+0Mt+Cjv/9+wMn8ouHyIlJ0HBrD9veGbPf+3nvrfIwgEYvDubI//v8NIYNKNTGrX3efxEXXdB+1ifNROsHE1NV5f2Dl2Bjv4y8OYdF5sXjmweUDq3NmesPcuo1Em8qqBknDYwjanxuyhv0wzF91yVSEk0Zs49u7oSQV7tMPLD/rtYlh+/2VdyV7tHWrxNKHcEbpEL3G0Frfvtphm+HkaTK/YKeby9ZOsavviM063K0h9kkJDDDe0+mPDdluXRNe8hrF13uVFD+AN2+foVBNrMYd9MnE925S6zV37lwa88CfUdhY8rq7v5CCz/37jd8NSiLhj8uV1K9aQfAHww3Zt/8dj/Sscsks5NcvbunRLGTS+JAuZiETFryKZ1/9DacpImU67YKnZZjWYFnywfP+x9+eu4iO4tZS8IofB72LMZ9KxlbLoiScUToBBzahfLv1hBS7at6saCmEaWe/B19OQzvzzt2OnONR9OWGbG+wxtbe7GL87Gs78aentuAJ2lScd67YXqo37fdlHT66b82yCcJHCgklOzsblZWVmBU7cAnl+Td2Yg/tm9xEpg3XXj5dOLihUDgYzELYYvj1Z9fiBXIvZgvw++9YhLXLxTvcA/6diFSP1GkhocTGxoL/dJUZA25c+5Jy8S/ajWe/lLdfWo9zyPx6KCRWEasa1EZyviUbsgPFLIT3qtig8l1ygMug08AGm4uxmkJG/bYvDeuuNv6izG84Vv2PLFjaD9I0rtr3JT/QyVVv/yse48eMwFM0xdvbP6EvR7js8vfxz9euwOiYrh6O9tyQtdf4Nm9Jw8ekgZwzMwqP3nu+TSNg2qvPHe06eEAReEPHpT4jnFGysrKgVCoxd9zAEL3YtOAVMqTbm5iNqy6ZjpuuPlff/yHzy26oogj49tqQtSfiLrtwEjnAedPG5G489OxWyfqYw7sO5iTUeo0ePbrPbL16Qh4Ha7vtoc04eLQQL5LPwlAkEj0O+Bz5oZIWzBlJwStWoZBOHXvgmS3Iyqsa8ENrlLRe4hMAhITSOaIebncC2iXHcX5Zk+Lv6wGOR9Ub91S7dExu1CIM8EFKr5B3I2vzHnr2Z6SkFltUr7+APFjrtVy84SikBBa9kpKSaBtFeNvu4+A4vHykwrsfJWLdBedIGhVeJMpp8GGA1cevUiCJ8aR0ef71neDzLQd0MjGrCymBRa/+2nBMz1Tijoe+RfKRQjx01/nS6VUDGrE26lwbLVJUDc02am1gNePj7YoXH1uFBXOi8Y8PEyi44M6B1cEzvWlsasFPvx4X9k1IKJ2QfbuY30aiFofN8aJjph+4YzEWzo3u7MoQz7Evioe7y5Ae5YMbFknejEfTivEmWSEPtOTh7kQSzBRht0xqvSoqKjCnj/aMWNR6+98JUpABPlLhzhvnSWbdwh4P0cI7b6AxU8TIoZ7YgHI7+aW/98kByZmOg1mcTdA9m+PLxHLD/D5KzbeAtsRmfckhzQeHDuWwNLn5leSD0Ypxo0cgNjqQfNlTMHHcCKxcMkwDHtsMy4OjoaQU0mK+tYt848Pw3MMrBkSnmWH/tq8IF1290ag/PRDKZiKUUqNKlhacIgO+r74/jFNFWlQ0OKCK/hy8Q8hByRHa5kaK4K6lSIAu8HNSwctRjRVzQzB7ygjMmTHS0kcMWjhzTEPkiDZoB2qm46z6j6Gwq2xZMGCSox8UAcYOKUJCYa1XVVUVZo3NJ0Ips3oMx04UY9N/DyG7zgtVGnrwyCXwjaUI6n6mz11XHt1Gj0qDZ1Mmwj1VWDLFCxtuXGj1swdqBZlp9PxmBgTzsIZQ9EPSVX8FtCj1lz3+FpXW4rV/JuBEqSsq3SYh+Py74eBk/QK16sRueCp3wbPuJJZM98F9ty/p8dkDFUBmGqbfzEBjHpKtV1wJ1l35olGnhTOKHkpXRYTSahmhbCM7/je+KUaF01iErfqzvomz+q1I/QUuBVsxNaQWD984gwJ4+59Ve31ZWWYaprE9oJmHUwAU/lcZdV5IKB2i1+gcIpSez/t7aOMu7MtwhNu8++EVMcHoIWdbUPjTcxjvfhr3/H4sqYxjz7Y5u9eXmYYYxQOdebC9nYIIxSHAQkLRD1NX9QURSqX+Uvh762M/42jtaAQsfRBOHuIjG4QVrSzM/vFljGxLwUv3zMD0yRFW1u47cJlpiHE9GJhHI2m9dsWVkuj1V6NBCGcUPZSu6nMiFNPGbA9v3Ind+REYceHz+ip2/S1L3oyA8p/w8dOzEUKH0Ay0JDMN8RsZVMzDMZC0XlcaDUS4w8WiV3JyMgGbMHyhO8wh9mY4STOJUat2KgiZfRkqA5bhgY177PSE3jfLTINnVmYa9pxZuYexFz2MyvDf45FNp6TImb3vtf1rMvPYkx8OvzWv2EUs5xFErnsKqY1T8MK/T1DY3N4fOsRB/visGlESEgrbes2ePVsEL5WxrPnGN0XSmsTeH0X3ToSe9wdk1frhX58ldr/Vb9cy0xCjfrAxDz4r8nBqnnAwQkLphBTPKK//MxFKx7F24xCdzxfnvJY+g+8SVGC9e38nmWmI38BgZB5s67VkgVgZJSQUc6IXq/aOlzojfPVjYgz1UKptrIYq/xiqTuyS/tQ11m9ouvqHosRhHN7+hMXD/k0y0zDG/2BlHhwuKjtXvB0iNIpk0Yv/dFWnjLDAO+5VrrSYNrpjvqDmdCKq0/dCW18BRxfyLSEDwDZtMyqO/SJFcXcfEYvIpbeYb8Tgbuiqx5H60410kmw1Hb7TP/srHUzjwt4zjeaKAsJJu2bRM3yiWesFg+F3ZA2ZxmtPrOoo789MO/OYgHArtwqYiZ4tPnjc7RLHI1i2oIoOKOoag8AcXrR0PGAVnTU5WgAkJBQtHbjtQB9y9+mGd1LZLCV45b2CpkwX5fz0KjQqJfzGzEXQtLugripGS7MKbS1a+ERPQ+XxHagvTMPpL59AyJzL4BMz03RjBnfKWqPw3mcH8ddHLjAo7buszDSMcd0b5mFrJtpb5uFBZ7LMmiHeehASSn5+frutV2zXNQobOFZqRiDUCrMU/vgVzq6IXf8oyg98i+zvXyTHSReKcuhKh1iqoTz0A1wDIolALqcZZx+K4z6TCIiJqqfkM3kdRTx8pycwu9yXmYYYrdYyD0MmGjz9Htrwc0VTWVYHI1XXFKOx5LTVTLQ3EgcfD1hcWokYP+OxCQmlQ/SqPNmlRjpZAbOBo6WJkeDg7IbQ836PvO1vw8nTD1HLbodbYGckwZaGapQRsRTt/xgjZlxE8K5QHt4C96BoEkNCzT7Kd/QclBz5AAcP5xMn6FuLY5lpGL8aa5mHnomOJ7N2FrtK4v6HRmV2F0aq06olRspu6dYwUe6d9RKHgnxkVIgxHpo4AJ5KpZJAvbrtoyjrneB3rmm1sWH7PJ2yuDX6kseQu+3v8B83H4GTjCPMO3n6I2Lx9aikxX35wc1ESHdAU6dEJa1dwhf/0bBJYb7VIxwHDuf1OaHITMP4dVjDPPRMdPSlT6ChNAMlCV+YZaTqulI4ewVazES5d9ZKHHxa2OzpscYDo5LuyxAJiA8RSk9P71KBVbFVDYoeuby+Ei/c/cbMQVniN3By9xESiR6WfwMnLoVbQBTKaTZhwqnLO4yWplpDEGHeOWQy+bV0FRGFgDYulJhGrHVMI3r1PfRBfCkxjZiV93SZWbl7eqYRMGGJxDT8xy2Ai3eQxDQs6b6eaVgCaw8YS5lHBxMlIuF3bClO2tQqmlicLMaHJHHUu0gShyXjZa1XToHYtlFIKJ0bjp0fIHsmOvlYpuviaVRDmpygaWvQWJGD0NmXWtJPmk1uQ3MVaYEaa+Do6oXKNAuCEHiEQNXc2U+LHnSWQDLTECPQUuahZ6LcirWM1Mnd22Imyu1bwzxaSetVWVnP1YySkFDYaYsjRRqasLD7rsKEP3H3VpuV+aQC9qSPvpA4AJ3warAm6Q7b5drBkThoMBppMcfrk5bGui63RRet2iaU1rSIbtmtTGYaxqi1lHnomWjw9AvplLE2qxkpi/O6NvqgLWGi1E1rJA4+ZHXWDCtEr+rqarDmy5BQ2Me9pbnJGEOCEm1DFRGIA1qb60m7ZZ3jlsLJCbpWLYlrvlDX9Oyv36pRk+5bbJ8j6JpNimSmYYxGS5mHnomykqexLLNXjJS/LUuYqNRLKySOFhK9TmUWGw+OSkxqvRhaV3GkoxIHgmglH3eLEoXeYU7P+yStrRqLquiBWtWN7ecZEjIsSW3qBni6tFkCajOYdqZhGXHaimk0Vxf22H+JadRa1q8eG7MSwFLmoccHN99bRspEZgkTlZ7BEkejZRIHi15NTWIxXvg1suhVUFBAz+msxNFSHB2d+dk9Js+wc0ArbGkzsa1FjRaaYSxNrbQR6R01mdY4FfAIHdNjtaaKXLgqLCTgHluzDEBmGsZ4sljiOMNEuYXeMlLh8cnGXZJKrJE4XEn0mj41RtiSkFBqampQV8frg05C4ZBCfs7ihU73lnl9wQHdKmjH3c0/EmUpP3YHEV6XJPwPzp6BpP2KRHNlIbzCxQZqhpUd1OUYExNkWGT3vMw0jFFsKfPQM1Fuga0yesNIHVzcLWKi/AxrJA72mU89zksO4yQkFD5EaNKkSQTdSSgcQsfToQnKo1uNWxGUsO0Wm6UETV2JxlKK6nLCvAZLVZgqGUsGTDyf1IWfSz4dXpHcB/PJRafGebNizAPZ+K7MNIwRainz0DNR3gZgEao3jLS1icJbWcBEuZfWSByOdJiTk4nQSUJC6RC9up1DsJzibnFIIUsSGzi2NtVJZikhs9aTPddvKNhB5iZtrUbVmTBK9n9KRLWKZpQA1OUc6nHfhRthMc0HSkyfEmnUpj0LZKZhjF1rmIeeiXIr1jJSSdFDLueWMFFu3xqJw8nJARPGir8lIaE0NzeD/7qneVNCpLhb3ctNXbOBo6rwOBpKMqQdd1q2IOOrJ5C75XXk//IPZP/4Ek5/9STU1SUInfs7MluJkUxdPEPHwW/sPFPNdpSXHtiM2ZMCwQPs6yQzja4Yt4Z56Jlo0Z6P4BEyGpYyUu+R0yVrD5GFR9fedF5ZI3Gw6LUvMb2zskFOqPUKDw+XQHTKHQagkMxEwjzSUHhyFwImLO1yT3TBVsC8YGPbLdZ/Ryy+AVqy7dLUltGObB1NLlpauE+lNUmEJG7VZn9OU+p4RC67VdScUZlPYyrmLeyf4yCYaXwRl2nUJ1MFzDTYVolt2dhMp+zwTxLTcPEKlspaaNe5tblBmlGZabC5BtvHMT4sZRor+olp6MfMzOPfKSxxrNEXmfzV46Mk/n8Im3+1tH9mDid+4xehKm2XxfjgB3dKHHNN9sPwBote48aEGRZ15IWEwgG6GxoaMNKjc42ir7F0qjc2p+8GLCAUrsNWwGzgWEkxuk5//QycXN3hHhgNB1c6K482MEsPfE1m90XSvkkofUx+Y8/TP8rsbynZhUWjCJevu9AsnL1ushGmzDS6Ytca5mHIRPO2vyUx0egL7qQ1RZ4RI60+tY/WuLutYqLcM5Y4rGEeLJmEBIt9m4RRWHjDkQ0jo9x/6oqJM1eXbPgepTG3IWiKdX4gbNfDvidtmmaoa0tpttFI2guviInkVjxR+CxTheodD+Hic2pxz62LTYHYvXzTh/uJaYTA9fxnLX6WuqZUYhq1uUeMmIaaZl090wicvMw6plHxFb55q3+YhuHgf3//VhRG3mKRxMH17IEPfX9U2x7EvSsVxEyn6YvM/qrVbdiVpMKay40DOAoJpb01HXTKTcKG33x/N74+5g3ftW8I79u7sGzXPzDNaT8+eLH/PwyZaXR9271hHtyCLZkotydJHFYyD47ColFE0brpYm6iSxKKXrzZ2FBfh/Emtif+77YlyHh+J+IpgmMEhYrpy1SbnQyP0l9xzW2WcQl7923pDF9iGj8DVs6ubKLD4ZfONklMw6WQZtb+Zxo8Fg6svp0ljtRfrZI4bIUPPT79axMo0Lt1sd8cHRVwd3XVN9HlV6gu8vLygoenuIK+9sM3zMA4CnOa/dPL+iK7//ImZGvKJly7MhzLFo21+/MseQAzDY6NXERMo69TB9NYO66vH232ecw8nAuIefRTYuYRLTEP68RyNR3T/suOo8JeCwnF398fI6PaNV/CWlTIAR04FnB062FwBEd7J7ZEbtzzHDas8cZt18239+Osal9mGl3RNViZh5ODAnPniJmOkFBycnJwOCWl6+gFVxww+693T5PCnJbFfyKAsE0Rc86mXU9hwyp3XPe72bZp1IatyEzDGJmDkXmw6OXr7WE8GCpxfIaS6I67m4JOwcoW3epSFhbig5Wzg3Bo968oOrIDjmHnwsnNOtmwS4PdLngadTn1Ef6w1A83XdPzJmS36n12yUdSTIrxQNyeBFRU1MEryj5rKGYa2oRXsGG154BkGnqE8wZkmJ8DjqWkQqlysHuwxA6Jg/By09W9+0602hbsSSxGLLmtd0+mtV7aCuhqvuwOb/aaw5x+l1BHwenGg6NgnE0qo30Sv5oERLsW4hqSwQfKmqSnMZWVq6TYyFm1/vBa9hQ5oIk3sHpqR3SfmYakyFgRhtuvXyACGXBlh1ML8ei7GajyX4qQ+dfZpX/MPNoOb8Idq73Pinm0kclWfUskfMPXG/VTSCi5ubkoLUrH3HE9zyjdW2RPN47gmFrsJEXBYAd/9l22JLWq61GatBk+jccQTJuJ55PWoj/3SSzpsykYmWl0YmZQMQ/XcVD4rOjs/JmckFB4s1HRWg5P7XajCpYWcARHDk6XXqJAiYpieHmESW6Z8AxBK2048l+bph5Nyjw4NJfDRaGGR1sV5kz2x4IJnhZvElnan/6Ak5lGV6wPdOahJa3X1n21WH+lsTQkJBRpeJpC6Gp/6DrSXl5x3C0OKcTGyHVNbSiraUUlha70Is9EZ2gwdlSwZCrPVsD9YeDYy2FZXE1mGp2oGsjMo5Wj+biMhZP/ys4On8kJCSUvLw/F+Ucw75wiowpywdlhYLgzDT32BizzcD8HCq9l+m52/AoJRcesX5ND7H9bB6CckTFgLwwMFOZBSi/8EleHdVc8ajRUIaEwlE59mgjlV6MKcoGMgSGNAfcJNKMYu5AINxxZ9EpKOjyk8SEPTsaANRgQEkp0dDRt5U+2ph0ZVsbAoMcARSvCNz/EC8chJBQJUmfs2y5sQS6UMTBEMEAOjrj84oXC0QgJhc3sExI7g98Ja8qFMgaGJAYUwlEJCSUqKgrnzbPO41DYulwoY2CQYeDr7/YKeywkFAlSFr2ECJMLhzYGrrjkfOEAhYTSLnqlCivIhTIGzhYDbHzY28SBtO2aKMKpKJneR6mPozB7Ym8vUUNymYwBSzCQeKgA732chA/fvAKvvbsfRSV1WLt8HM6bHQ1Pd2ezTbzzYRJ+3pGOGVPCccf1c8l3xA0b396DMmU9RscE4uarZyEoUOxPYrZhg5s/7KzHRb97UDrs16BYfOKWBKCwjnIHNJcwHHE/5mUcAZ98nQJnZ0fpLYwZFYhksgPctisDl1z/Mb75yXQU0mYKTrfpP/G49vLpFM1xBJ586Ve0tLRi2sQw3HDluYhLysEHnyWf9du9eN0CIyLhRoWiV3FxMeLij1n8UOYSN9/3jQTPXOJPT/+M3/ZmoqFJ22MbzCUuueETPLmRHL9KOTA4RV2lqfmjL1KwLylXuh4K/9kaR8qKBjz9ym+44d6v8NnmwTHzxyfnE2EUwOPMzKFubsHCuaNw+x/n4IE7FuEvb+7Azrgs4eveuT8La1dMwNWXTsM1l01DNp3Xw85h0yaH4tVNexHg70Eu4pa5cwgf0EOhkFA4UuSCuXR0g4XJllyCieWCKz7Aa5v2IJt8W4ZKsiWOGCdPEZFwZMN7bpmPF9/aicrqxgGNKibsJ1/ajhceXSX1mzubnqXE9t2n8NJbe5CSWoyXHl+DZQtGC8dx7EQpZk+LlO4xA3Y8s5Zwc3XGqJEBOJFRhm+3mp6RhI0KCr/fEg+t1pjBOwlgzxRZJnrpucT82TFSPT2XuOmac5GVU4XHXtwGf383IQIMuQRXfv+/SfDycMHrz1+E7TQdOzu1T9FSw4P4P1vjiFHx4mMriTO7kJhAIXbcnOm4toGLIPbz2PDod1A1qPHKO3uJqBukdQVbEH/6j6swYdyIHjvPM8bREyW44qLJeJnWJTdfOwe1dc3g4yZee2Ytsoiprrn639I6pcfGzACsv3ABFM7GayUhobDolZl6HItmmg9ZZMgltu8mI0pKei5RXtG+wLKWS/j6uJHcGYpvf06jqdXNzJAGxy174IhHzmIHf4B/enoLVi0df9aLWHti846Hv8W8c0fixcdXSefmbHj4Owpd6kWnsbUZiec8JmVVAzRq9llqJ6hymo0uWT0B6/7wEfk1FWDS+FBcdelUZOZU4rYHN6OxUQNXFyfcdcN5NhiGWOslJBQWvcI8KWyLJs/kg+3FJfQP5MWbXpbVlw22X3vi6GhaCZ59bQd9cN54+oHlAxo19966QGJ+3EmOxvjI3e17FW++cBGYMRqmrbtO4aPPD0niFN9zIvGyqqaRFuwzsfu7O1BN+YhQH6nKuNgg7N58m7Sm5QIHE6pdw/Z7ym/ZlogL1s2Ea7dAeEJCkRrrYcPRXlxCP5DmZi1cnE13Tw83kH/thaPM3EpcdN1H5BUaDSUd9zx/3TtYTgEBmWMPxMQSgj5xSKAVi8dIl92JhAsvXjlB+tPDG/56uDlRrOp2IjEstwWB6Nu7cPV5UHQjEr4n3EeRRK+jH2PRLONO6Rs8SosrPQKYS+wibQUjgOXG7gj44ZeTQi7x6tNr0UiaD0MuoW9fVa+WZO/B7BpsTxwxfry92kVjjaYVZSTqRoX76tEn//YSAzuTFZi/9Aa4u7t3aUFIKHx+Y9bxLzB9rPHqv0tt+ULGwBDDQHHtSIyIppPfui3ohephBzq62svbb4ihQB6OjIGeMRAeFmREJFxLSCgcpHvMmPE9typDyBgYQhhgBVJi8gnhiISEwpD7Ek+gjuRgOckYGC4YcKNz5sNCxWedmCSU8eOnwOfMYnG4IEoe5zDHgIMnYsatECLBJKGEhE8CXEehhTRacpIxMNQxwGLXtzs00LSItyRMEgoj5sgpHQ4fk4PgDfWPRB4f4OY9Fmsu+gNcXFyE6BCqhw0hdQ2JQGOKZC7h7GyWrgyryXkZA4MDAwpnHDrljVkLrjLb3x6/fIXnPBQ3TMfu5HYTeN4glJOMgcGOAVUzmc64UrC7wOsQHHkexcU2v8TokVAYIREx87Fy/WNQBN+J1MKpKGlaAPisRPxxb2SXh2PvESdUNI4CPKbj570Upd51CuWnYltcM/1SfDD3Sdi6n8zAKQof/23nPIXXh+tYytfTL5k0uI4mYmyiIMnUjksMHWNM5S7R9DcSuxJrAWcysXaOwN6DRLDOdGyecxj2JJEZvlMI/Y3AngOcD6ajkQKxP5nyjgH054+4Q5X064sGtRviD5aTQtwLecUanMyi9h08cCq7DvnF9FyFK5KPlkFZzZusTkhOKYZaw6N3QOIhFj/bjeXYr0SfklI684mHCvXFBN+ZTz7cmU9MEecPGYi3luSTD3eKw4btHzzaXs6WEsln8mySri9nqwm2wOVUTl6Bh44VS/miUhWOkO0Yp/ziOqSeJDwpHJFXqMKxExWUd0FuYT1S0wmvDu6EvybCn4rw6knlavojRDl440RmI3KLiZE6+uFQmgqllWT9Te9j38Fq1DZ6dbwnrYI0S05h9I5rpHfK73Z3Er1jetf8tzOR2pa+g1HYkcDfx2jpG9mRSO9J+m7G45cEykvf00Rs2895WlO7T6Hvj/NT6bubhi17+PubAXjOxJa9GlRqZ2BHSggRx00oa16EbCU9T+EGjmOn6MlOjCip16mxsVHX0tKi41+NRiO1w/m2NnK9otTQ0CD98n+1tbUd+Zqamo58VVVVR76ysrIjr1QqO/JlZWUd+fLy8o48mdr0mC8qKpJg6CgLnT7PfdHXLS0t1en7Q+fC6KqrqyV4ipapU6vVUp7L21ObLicni7Kt9Neiy84+rdO1EUxbsy476wT9Nkp/pzOPE4hK+svMOEK/NHb6O30qharRGOnvdPpB+qUxtpRTebJOpymlvxJdZnoS/dK4NEW6rPQEnU5dKOUz0xPPlJfqsiR4wgnVP51+gH4rqP1qXXYGt1+ja9PU6Nqfq9I1qpS6rMw0ut9I+SrKn5L6W1VZRv3PlMZRXVWpy8nOlobI49ePt3ueccKJ8aXHJef175Zxqc/zfbLwkOAZ1/pyzuvxyvD6ZOodG34T+nfDdQzL+d3qE39/+tTc3KzP6jjPzzWE7bhpQabHNYrEZuT/ZAwMcwxYJHoNcxzJw5cxgP8HUBA3BxGTqZUAAAAASUVORK5CYII=;" parent="1" vertex="1">
          <mxGeometry x="265.15999999999997" y="1258.03" width="202" height="167" as="geometry" />
        </mxCell>
        <mxCell id="YLHaFjpxiZxeZrMz3eUW-1" value="&lt;font style=&quot;font-size: 16px;&quot;&gt;公网：223.76.134.63&lt;/font&gt;" style="text;html=1;align=center;verticalAlign=middle;whiteSpace=wrap;rounded=0;" vertex="1" parent="1">
          <mxGeometry x="1319.6" y="765.78" width="170.4" height="30" as="geometry" />
        </mxCell>
        <mxCell id="YLHaFjpxiZxeZrMz3eUW-3" value="" style="shape=image;verticalLabelPosition=bottom;labelBackgroundColor=default;verticalAlign=top;aspect=fixed;imageAspect=0;image=data:image/png,iVBORw0KGgoAAAANSUhEUgAAADAAAAAwCAYAAABXAvmHAAAOXUlEQVR4nMR6C7RcZXX/3vs7rzln5t7cVyLhjyh/hbAQFEWQQo28W7oKS1mWUohdIMGQlYR35P1aPJLK0zQESUoFKwjigrYUULRAEVSgoGB4CBYWSwy577kz58x5fXt3fWfmJiEzk5to2n5r3QWZ+fZ3fr/93ucbS0TArH955x1Y+JOnYPuXkcMO/99atj6WvOxEEJyUVD0tifVAsWV6q2yxF7c6ttNnW8iuPXw+HPfRjxRf0Q4g3r6leC+qJOuQZICnvFN5yj1LADX1xHeC4k/t7MdZO/GsXgyS5SCYG9AAEmIpA0ksgFg9yLF6BIPsbPCykyVyVoLg6M546M4gQOjlp6HFB3DorASNbxd2JrHR1gdIql4FoCqgJBLZKwFlLgbp5cD0pkT2GgDI/68IlNDLTgGU2ZJYj0pkryv8FGEXDJLTyc/OQMX/Dz29kev2KkmstZCrYQD4vdS8ZWDxPuhnF4BAVWLrbgCs/+8QkCJAP0devoDr7koQeVeEABXPpiC9BP3sa4jgNjcjIMkc1ZNeI5JeIqFzK4f2CgCogsb1EtrrgWQOltMVRZCn6skdhbNjQYyyC1aSW9HiA3nKXQaM7wJCiYLkIjUYvklBtmwz+K1Ezb5yeqEait7EUrbYqKFwNYGNMuUtReKPUSW5DUg+siOQts8CIi4G2TJAmSM19xoAGDHKRTc7mSrJdWjxh9vSaDcdkAyp3ni1+NlSXXMvhIz+GUREYnudJDAL/fQCAEglsr8BgNEfT8DJjydXH8+hvUoy9RIanMRzqDe+g7z8OGg5/o4tBLR5ntUfPcSpeoqr3iLQ9DoITErdvaSZitNbJFVPSmLdu1XV+MDq7kKKP1HkcwCHq+5pBjxoBCxlS9RQ+Bvy9HHbB1xAGKZEIOtEhByerwaj59HPvg4opeJjjW9w1T1DGCcNBrD4s90odCAgFQyS69Foveouk9j6/uYqiMAN6wFJrMe2A3khxJH9XT3uz9bjpT25Yd0DANxGA6GseuIVajB6Db1sQYHLPDNVj+iquxhtfSiWkxsBpa87AQPQ0gdjOb3e5GeuOdcCSQQWb95JDCD4Pk96J+pJd4kIpNuCz6FzO1e9vwWGBJje4Snv5Hy8NJ9Teq7dKxBQye6qr3E3DUTPgaOPMFuQivpxs4Tu32GQXgmWPnxL0U0E0MkPpiA9TqruWZxY76KtD6ee+H7VmzyGpexMEw1IAohSeA43nNV61D+QU/pFNxdFP1uAXn4S5Aogx+a2nH7KY8HBerJ0qmh8r4OUcavPWP3Rj6mv8TBYvK9oBMlxo9S8c8jPDkRHH9luAQSfvPxpcFhTkJ1vDYWPU0l/GR19jOqNb7MGwxfB1ocW6KddStOv9GhwqJ7yzhWGtkKECIHqi++i3sYdgjDLCBowxjgSW9/Oh4N5um5fLQJxRyKe/gvV3/hPDLLzJVVAPTFTKXsCEIJ2Ai0hICE1q3GpMd4HzGvzPlZ/4ynqix5GS3/BWKP5leTGxHq4/HGu298QhtpWSIiCfKE1u/4WBsnlANAHxopGXLAukXOFHgn25chaJwJhByXYVE4Wos1QyG2VONqDWID1mL9MBNpzMAIVWhmInqDe+C5AKWPLGsL4Ptfc5flweS8T6G2iBAOqkl5lzam/iV5+KkjTksJoLPkW17yFemP5Yxzat4vIpoxlrKNHg0XGAmC3xX87AaokIJF9tx4JPsmxerxNYppJKf+KGoxeRzc/SQpFGeFCsxv0ROnLerz0pU4+XhCZ1biTBqLHQfEeBRGBaYsYJZypR8qf4ljdJzn+Wg8Hx0vDfsJ0tmTrmQmgyTqGqca3eMI/Wk94p4jGjR1pKNlV9TXuUf3Rk2DxJ81pWPwJSGo9mA+X9+HYerijAlx9pDUUvkJ+ep6pOlJYpOWWml7lmvfXPOXuy4n1I3Q0bHLZmQhIbBlgTW2aIhRb39Wj/t4cWWtBoF0FBRj+vBoKX6AgWVXk6pa/oq33RGXajM4LEXzVG99AfY0HAWXWB4p6K0ymwZu5gtP2xqE9BhgBg+QaQOjfdKDgBE95Z+Rj/nzJ6OVOaRMRLPLzJWogeo289DKqxGusgfBZtHm/bgQ2KaCU/aXqSVYXJc6UGm7igNQy4Puoktxk4k0SNTMBY0oq5QvVYPQGevlCc/6mL3N6Ro8GB+iqd0Hn1Fe41RwK8qvJzxcB4sy9loDWU+6letI7ZbP6i/8qLGWLDA4qp+eAYmuTi22LAKRkDs2RZFDNatxBfdGzYPGB01kDQDKJnBv0WOkw0fjOjAC3gZxTeiEfLx0ioXNt8UELPzr6EDUQPa964zWme20pRmGHxqfdAlycoqc1QQ4fZA1Ez1JP41uAMgjTeVOrn+cjwSd03blZRHZoLBSGcT3lLdajwecgU78w8VYEKYrpcu+yhsL/QJv3355msT0Ludoc9MGhBEFRkJ/RbLbSpls1014oU+65ejT4vGT06szIgblh3alHg72lYa8BFC2aivPRz5aqofpr5Odf6YCLJaW0VcW3TaAoGIIdm7SmW8V3qMHw1+jmX9pUGDP6mR7z99eT7iLJ8b+2DnJTFE2lzcdL+3HN/SowDptgRSWIbn606ms8q3ribyJBW7c5LU+VrIFOu6Hbg0wJ5GP+qdZg9B1U8qEONAAt2Vv1NX7ApexxrnpLJVdvoEgqkfMtHdvrDCh088NASUUyWi+Rcw8IjhfEmJr53uJPU298Kzmt/qqjuwiYOURPemdyzc2t3dr12kYAFYNo+8d6xN8Lg+xSKqdLzDzbiQh5+ih0w19yzblJGs51ABCKiIZMPSqaHi2KoqZmTi+aWARBGVSV5Gr0s4Um9XbzcxMnXPMuk8i+Awjyoq3Pqa2daHehjICC9GwAzLnuLM+Hg/24YT3UtWVG8FRPcrEaDNejk5+AJJu3MhbAWxgd9LOzrNn11ynIzmyC77g0h/Y/5u9X9ubIvq2YvUvZYnTzIznejkJmkgwF6XI1FL5Gnj4Rmd7SE6Uv5mP+0ZLRK52JTA8j8QM0K34MbT7cdJHQzGg96OanW4PRetUT32J6oc64jbvQi/mo/wVddU8DlGF09OFqIHpB9cSrUclunWzVMQYK1ko+rPoa3+NYfY1r7lJJrcfzMfUZKmWLqJJciQT9nWCQw8dAf3SMMNZAcBJIBrGYdbsP/2aW4Jp3sSTWGmDMAWFXNSu+kUr5X0FrAEGLnWIinMkCrWq36Unk6cOswehFVUluNO7CkbMqHy7vybH1YGdNQuuFFlQKrRXx0y2fF1p/KR8J/oQje5VoUlhOv27Nqb9OpfzELXFIFx9uJ5AXQcdb4XGonJ6rBsPXyM1PAMYxPeGdoCfdBaLxd92JdF/COK6r3tJ8zP8sML6Crv4zazB8WZWTFUhQ7oArLRLCTARa9bxbn7Or6o8eUP3RI4DwIY7tf9Jj/jyu29eKQGM7sWvT2eoRfx6Hzt+jgE298WqrP3oUbd6zm7VUTxxRuT2N0tbwi+6q6l0huelzOgcsefrPraHwV+Rny4HR0nX3Uj0S7KHrzpWi8f1OcsIwyXX71nzE39t0tiDIVE4uVrPD3yo/W7yN+KhyaN+Sbyz/kItuVLoQEEg4tvY3fbfE1nf0SLCnniydLwxTnQ5GJUOqJ1mpZtd/S162SHIak9C5So/6H9U1d5lk9Ixo3CA5vqJrzkV6JNid6+7ZktN7GKQXq9n1t1VPei0qmdsJvBkrObTX6DH//3PdPQdIqjzlAjfs/Q3WNgIS2z/lyP4lVdIbkMRM/RmHzo35cNkMM9/rWgeKETFeYw2FL6CtjwLBWCJ7la56h+pRf66uevtJw1ohmWqY9tyaHf5GVZJrTZB3PNAEYEJP65HyQVxzF5t4a70fcqmSXieJNSGpeqzdAmZl1r9xaN9MvfEt4OZfxOaLrN/rCf+kfDQ4QnJc37UO2Lyf6o9+RLMaDwHJvmYb+ZmR97GUL7Y+VH/dtOcmjrq6izbPKp3M4/580PRSMWaa1sPRR1FvvEYie50k1n1bynSYyOg9nvKKMk+9ydpi8DYjXU7/rsf9/fWUd55IZ7dqxcfx1lD4supvvIN+9pzqjzaoSrIaLd6jK3CRlOv2Sj3qz5PYvkdaBRxQ5pIpYsS76ar3VRDTKH5wdZ2YJLG+z4n1GAXphcBYk9i62fiehPZNeWjfq/ob3yY3P7ozqGZlBoDdp//d9Tk5vq0n/AWg6Znm1iIPWlhKF4PNu3PNvRwQxrodMdMFR41r7iWSqR9SJVmDNh/RArOBJ0rH6qq3TBgmZjijM3CGUNecK/ORYB/I1DOFu5g/Rx9MPck60fSCTHnngeDYts6Z+YYGiyLyEk95p4OSPbAn/iaQ7CKMWkJnlR4uz+PQXiuy/Zd13LDu1yPBPlJ3rgKARlH9UQawEt+Aig/UVe90yNSz2/P2fkfuyJgjey2iNUTl5CJJrWcgUT8AgeEir0f2WuqJbyRX/+k2evsX9ZR7HmTqSaNtMe4iCOhlx5Kjj+W6c72JwR3A9AdcdAuOSN09t3hrUElvApKBlpWe5wl/vp4o/Y3oLacyMdnld3qytFCP+wdBrp6UzbfxPVhOrhOAIZ5yl4B0elu97fUHX7NKbN0PGf0EvXwBIFjcsO9FgPekYd+rNd0HKB9Hkl2BZFxi+xVg0Fs0pEPopycjis2hswoEN2D3W6T/GQJNFjgmDfsWEahQJV3ezFLODZJRjErekBzewNYEJc15zMZStgSJ50rorgCBMTRDz45esW2xdtJvJbAmNecyia1/pZ74dnT0UcU0pgmk+Z4J0NaHUE/8D5LSz7jmXTBTdtnetfN+7IHNCw+ulk4zNYAqyWogmQsIvVhObkZbf5qnvNMgVz/fac/cyT/2mF7MDXsdJtYAlZNLESHg0LlCNG3ADq8G/9j13wEAAP//4xFcv+FGHqMAAAAASUVORK5CYII=;" vertex="1" parent="1">
          <mxGeometry x="3116.23" y="1352.4399999999998" width="57.38" height="57.38" as="geometry" />
        </mxCell>
        <mxCell id="YLHaFjpxiZxeZrMz3eUW-4" value="Jumpserver&lt;br&gt;192.168.100.81" style="text;html=1;align=center;verticalAlign=middle;whiteSpace=wrap;rounded=0;" vertex="1" parent="1">
          <mxGeometry x="3100.4300000000003" y="1416.02" width="89" height="30" as="geometry" />
        </mxCell>
      </root>
    </mxGraphModel>
  </diagram>
</mxfile>
